<svg width="386" height="244" viewBox="0 0 386 244" fill="none" xmlns="http://www.w3.org/2000/svg">
<path d="M152.15 238H81.45V94.5L41.9 133.7L2 92.05L91.25 4.54998H152.15V238ZM338.489 225.05C322.623 236.483 303.489 242.2 281.089 242.2C258.689 242.2 239.439 236.483 223.339 225.05C207.473 213.383 195.806 198.683 188.339 180.95C181.106 162.983 177.489 143.15 177.489 121.45C177.489 87.6167 186.473 59.15 204.439 36.05C222.406 12.7167 247.956 1.04998 281.089 1.04998C314.223 1.04998 339.773 12.7167 357.739 36.05C375.706 59.15 384.689 87.6167 384.689 121.45C384.689 143.15 380.956 162.983 373.489 180.95C366.256 198.683 354.589 213.383 338.489 225.05ZM248.539 121.45C248.539 160.417 259.389 179.9 281.089 179.9C302.789 179.9 313.639 160.417 313.639 121.45C313.639 82.7167 302.789 63.35 281.089 63.35C259.389 63.35 248.539 82.7167 248.539 121.45Z" fill="black" fill-opacity="0.1"/>
<path d="M152.15 238V239H153.15V238H152.15ZM81.45 238H80.45V239H81.45V238ZM81.45 94.5H82.45V92.1009L80.746 93.7897L81.45 94.5ZM41.9 133.7L41.1779 134.392L41.8815 135.126L42.604 134.41L41.9 133.7ZM2 92.05L1.29993 91.3359L0.59406 92.028L1.27789 92.7418L2 92.05ZM91.25 4.54998V3.54998H90.8416L90.5499 3.83591L91.25 4.54998ZM152.15 4.54998H153.15V3.54998H152.15V4.54998ZM152.15 237H81.45V239H152.15V237ZM82.45 238V94.5H80.45V238H82.45ZM80.746 93.7897L41.196 132.99L42.604 134.41L82.154 95.2102L80.746 93.7897ZM42.6221 133.008L2.72211 91.3582L1.27789 92.7418L41.1779 134.392L42.6221 133.008ZM2.70007 92.7641L91.9501 5.26405L90.5499 3.83591L1.29993 91.3359L2.70007 92.7641ZM91.25 5.54998H152.15V3.54998H91.25V5.54998ZM151.15 4.54998V238H153.15V4.54998H151.15ZM338.489 225.05L339.074 225.861L339.076 225.86L338.489 225.05ZM223.339 225.05L222.747 225.856L222.754 225.861L222.76 225.865L223.339 225.05ZM188.339 180.95L187.412 181.323L187.415 181.331L187.418 181.338L188.339 180.95ZM204.439 36.05L205.229 36.6639L205.232 36.6601L204.439 36.05ZM357.739 36.05L356.947 36.6601L356.95 36.6639L357.739 36.05ZM373.489 180.95L372.566 180.566L372.564 180.572L373.489 180.95ZM337.905 224.239C322.232 235.532 303.311 241.2 281.089 241.2V243.2C303.668 243.2 323.013 237.435 339.074 225.861L337.905 224.239ZM281.089 241.2C258.868 241.2 239.827 235.532 223.918 224.235L222.76 225.865C239.052 237.435 258.511 243.2 281.089 243.2V241.2ZM223.932 224.244C208.207 212.682 196.656 198.125 189.261 180.562L187.418 181.338C194.956 199.242 206.739 214.085 222.747 225.856L223.932 224.244ZM189.267 180.577C182.087 162.742 178.489 143.037 178.489 121.45H176.489C176.489 143.263 180.125 163.225 187.412 181.323L189.267 180.577ZM178.489 121.45C178.489 87.8028 187.419 59.5618 205.229 36.6639L203.65 35.4361C185.526 58.7382 176.489 87.4306 176.489 121.45H178.489ZM205.232 36.6601C222.984 13.6057 248.222 2.04999 281.089 2.04999V0.0499878C247.69 0.0499878 221.829 11.8276 203.647 35.4399L205.232 36.6601ZM281.089 2.04999C313.957 2.04999 339.195 13.6057 356.947 36.6601L358.532 35.4399C340.35 11.8276 314.489 0.0499878 281.089 0.0499878V2.04999ZM356.95 36.6639C374.76 59.5618 383.689 87.8028 383.689 121.45H385.689C385.689 87.4306 376.653 58.7382 358.529 35.4361L356.95 36.6639ZM383.689 121.45C383.689 143.033 379.977 162.734 372.566 180.566L374.413 181.334C381.936 163.232 385.689 143.267 385.689 121.45H383.689ZM372.564 180.572C365.403 198.126 353.858 212.679 337.903 224.24L339.076 225.86C355.321 214.088 367.109 199.241 374.415 181.328L372.564 180.572ZM247.539 121.45C247.539 140.993 250.255 155.81 255.803 165.774C258.586 170.771 262.091 174.565 266.335 177.105C270.581 179.646 275.51 180.9 281.089 180.9V178.9C275.819 178.9 271.255 177.719 267.362 175.389C263.469 173.058 260.193 169.546 257.551 164.801C252.249 155.281 249.539 140.873 249.539 121.45H247.539ZM281.089 180.9C286.669 180.9 291.598 179.646 295.844 177.105C300.088 174.565 303.593 170.771 306.376 165.774C311.924 155.81 314.639 140.993 314.639 121.45H312.639C312.639 140.873 309.93 155.281 304.628 164.801C301.986 169.546 298.71 173.058 294.816 175.389C290.924 177.719 286.36 178.9 281.089 178.9V180.9ZM314.639 121.45C314.639 102.023 311.924 87.2923 306.374 77.3862C303.591 72.4181 300.085 68.6468 295.841 66.1219C291.597 63.5962 286.668 62.35 281.089 62.35V64.35C286.361 64.35 290.926 65.5246 294.819 67.8406C298.713 70.1574 301.988 73.6486 304.63 78.3638C309.93 87.8243 312.639 102.144 312.639 121.45H314.639ZM281.089 62.35C275.511 62.35 270.582 63.5962 266.338 66.1219C262.094 68.6468 258.588 72.4181 255.805 77.3862C250.255 87.2923 247.539 102.023 247.539 121.45H249.539C249.539 102.144 252.249 87.8243 257.549 78.3638C260.191 73.6486 263.466 70.1574 267.36 67.8406C271.253 65.5246 275.818 64.35 281.089 64.35V62.35Z" fill="#151515" fill-opacity="0.41"/>
</svg>
