<svg width="14" height="15" viewBox="0 0 14 15" fill="none" xmlns="http://www.w3.org/2000/svg">
<g clip-path="url(#clip0)">
<path d="M5.24984 13.3333C5.572 13.3333 5.83317 13.0722 5.83317 12.75C5.83317 12.4278 5.572 12.1667 5.24984 12.1667C4.92767 12.1667 4.6665 12.4278 4.6665 12.75C4.6665 13.0722 4.92767 13.3333 5.24984 13.3333Z" stroke="white" stroke-width="2" stroke-linecap="round" stroke-linejoin="round"/>
<path d="M11.6668 13.3333C11.989 13.3333 12.2502 13.0722 12.2502 12.75C12.2502 12.4278 11.989 12.1667 11.6668 12.1667C11.3447 12.1667 11.0835 12.4278 11.0835 12.75C11.0835 13.0722 11.3447 13.3333 11.6668 13.3333Z" stroke="white" stroke-width="2" stroke-linecap="round" stroke-linejoin="round"/>
<path d="M0.583496 1.08334H2.91683L4.48016 8.89418C4.53351 9.16274 4.67961 9.40399 4.8929 9.57569C5.10619 9.74738 5.37307 9.83859 5.64683 9.83334H11.3168C11.5906 9.83859 11.8575 9.74738 12.0708 9.57569C12.284 9.40399 12.4302 9.16274 12.4835 8.89418L13.4168 4.00001H3.50016" stroke="white" stroke-width="2" stroke-linecap="round" stroke-linejoin="round"/>
</g>
<defs>
<clipPath id="clip0">
<rect width="14" height="14" fill="white" transform="translate(0 0.5)"/>
</clipPath>
</defs>
</svg>
