<svg width="1440" height="263" viewBox="0 0 1440 263" fill="none" xmlns="http://www.w3.org/2000/svg">
<rect x="-91.5" y="151" width="1623" height="95.3203" rx="47.6601" fill="white" fill-opacity="0.05" stroke="#484848"/>
<rect x="-80.4521" y="161.034" width="1600.9" height="75.2536" rx="37.6268" fill="#484848" fill-opacity="0.5" stroke="#484848"/>
<path d="M160.087 12.04C160.087 5.39051 165.483 0 172.139 0C178.795 0 184.191 5.39051 184.191 12.04V31.1034C184.191 37.753 178.795 43.1435 172.139 43.1435C165.483 43.1435 160.087 37.753 160.087 31.1034V12.04Z" fill="#282828" fill-opacity="0.25"/>
<path d="M227.377 12.04C227.377 5.39051 232.773 0 239.429 0C246.085 0 251.481 5.39051 251.481 12.04V31.1034C251.481 37.753 246.085 43.1435 239.429 43.1435C232.773 43.1435 227.377 37.753 227.377 31.1034V12.04Z" fill="#282828" fill-opacity="0.25"/>
<path d="M294.667 12.04C294.667 5.39051 300.063 0 306.719 0C313.375 0 318.771 5.39051 318.771 12.04V31.1034C318.771 37.753 313.375 43.1435 306.719 43.1435C300.063 43.1435 294.667 37.753 294.667 31.1034V12.04Z" fill="#282828" fill-opacity="0.25"/>
<path d="M361.957 12.04C361.957 5.39051 367.353 0 374.009 0C380.665 0 386.061 5.39051 386.061 12.04V31.1034C386.061 37.753 380.665 43.1435 374.009 43.1435C367.353 43.1435 361.957 37.753 361.957 31.1034V12.04Z" fill="#282828" fill-opacity="0.25"/>
<path fill-rule="evenodd" clip-rule="evenodd" d="M135 37.0742C135 28.7899 141.716 22.0742 150 22.0742H406.234C414.518 22.0742 421.234 28.7899 421.234 37.0742V77.2565H437.303C440.065 77.2565 442.303 79.4951 442.303 82.2565V151.503H421.234V246.822H135V151.503H113.888V82.2565C113.888 79.4951 116.126 77.2565 118.888 77.2565H135V37.0742Z" fill="#676767"/>
<path d="M222 74C222 67.9 219.577 62.0499 215.263 57.7365C210.95 53.4232 205.1 51 199 51C192.9 51 187.05 53.4232 182.737 57.7365C178.423 62.0499 176 67.9 176 74L199 74H222Z" fill="white" fill-opacity="0.5"/>
<path d="M203 74C203 72.9391 202.579 71.9217 201.828 71.1716C201.078 70.4214 200.061 70 199 70C197.939 70 196.922 70.4214 196.172 71.1716C195.421 71.9217 195 72.9391 195 74L199 74H203Z" fill="#5A5A5A"/>
<path d="M199 74L208 56.5" stroke="#5A5A5A"/>
<path d="M301 74C301 67.9 298.577 62.0499 294.263 57.7365C289.95 53.4232 284.1 51 278 51C271.9 51 266.05 53.4232 261.737 57.7365C257.423 62.0499 255 67.9 255 74L278 74H301Z" fill="white" fill-opacity="0.5"/>
<path d="M282 74C282 72.9391 281.579 71.9217 280.828 71.1716C280.078 70.4214 279.061 70 278 70C276.939 70 275.922 70.4214 275.172 71.1716C274.421 71.9217 274 72.9391 274 74L278 74H282Z" fill="#5A5A5A"/>
<path d="M278 74L287 56.5" stroke="#5A5A5A"/>
<path d="M380 74C380 67.9 377.577 62.0499 373.263 57.7365C368.95 53.4232 363.1 51 357 51C350.9 51 345.05 53.4232 340.737 57.7365C336.423 62.0499 334 67.9 334 74L357 74H380Z" fill="white" fill-opacity="0.5"/>
<path d="M361 74C361 72.9391 360.579 71.9217 359.828 71.1716C359.078 70.4214 358.061 70 357 70C355.939 70 354.922 70.4214 354.172 71.1716C353.421 71.9217 353 72.9391 353 74L357 74H361Z" fill="#5A5A5A"/>
<path d="M357 74L366 56.5" stroke="#5A5A5A"/>
<rect x="372" y="161" width="28" height="58" rx="5" fill="#B3B3B3"/>
<circle cx="386" cy="207" r="4" fill="#5A5A5A"/>
<circle cx="386" cy="190" r="4" fill="#5A5A5A"/>
<circle cx="386" cy="173" r="4" fill="#5A5A5A"/>
<path d="M969.576 12.04C969.576 5.39051 974.972 0 981.628 0C988.284 0 993.68 5.39051 993.68 12.04V31.1034C993.68 37.753 988.284 43.1435 981.628 43.1435C974.972 43.1435 969.576 37.753 969.576 31.1034V12.04Z" fill="#282828" fill-opacity="0.25"/>
<path d="M1036.87 12.04C1036.87 5.39051 1042.26 0 1048.92 0C1055.57 0 1060.97 5.39051 1060.97 12.04V31.1034C1060.97 37.753 1055.57 43.1435 1048.92 43.1435C1042.26 43.1435 1036.87 37.753 1036.87 31.1034V12.04Z" fill="#282828" fill-opacity="0.25"/>
<path d="M1104.16 12.04C1104.16 5.39051 1109.55 0 1116.21 0C1122.86 0 1128.26 5.39051 1128.26 12.04V31.1034C1128.26 37.753 1122.86 43.1435 1116.21 43.1435C1109.55 43.1435 1104.16 37.753 1104.16 31.1034V12.04Z" fill="#282828" fill-opacity="0.25"/>
<path d="M1171.45 12.04C1171.45 5.39051 1176.84 0 1183.5 0C1190.15 0 1195.55 5.39051 1195.55 12.04V31.1034C1195.55 37.753 1190.15 43.1435 1183.5 43.1435C1176.84 43.1435 1171.45 37.753 1171.45 31.1034V12.04Z" fill="#282828" fill-opacity="0.25"/>
<path fill-rule="evenodd" clip-rule="evenodd" d="M939.446 37.0742C939.446 28.7899 946.162 22.0742 954.446 22.0742H1210.68C1218.96 22.0742 1225.68 28.7899 1225.68 37.0742V77.2565H1241.77C1244.53 77.2565 1246.77 79.4951 1246.77 82.2565V151.503H1225.68V246.822H939.446V151.503H918.355V82.2565C918.355 79.4951 920.594 77.2565 923.355 77.2565H939.446V37.0742Z" fill="#676767"/>
<path d="M1027 74C1027 67.9 1024.58 62.0499 1020.26 57.7365C1015.95 53.4232 1010.1 51 1004 51C997.9 51 992.05 53.4232 987.737 57.7365C983.423 62.0499 981 67.9 981 74L1004 74H1027Z" fill="white" fill-opacity="0.5"/>
<path d="M1008 74C1008 72.9391 1007.58 71.9217 1006.83 71.1716C1006.08 70.4214 1005.06 70 1004 70C1002.94 70 1001.92 70.4214 1001.17 71.1716C1000.42 71.9217 1000 72.9391 1000 74L1004 74H1008Z" fill="#5A5A5A"/>
<path d="M1004 74L1013 56.5" stroke="#5A5A5A"/>
<path d="M1106 74C1106 67.9 1103.58 62.0499 1099.26 57.7365C1094.95 53.4232 1089.1 51 1083 51C1076.9 51 1071.05 53.4232 1066.74 57.7365C1062.42 62.0499 1060 67.9 1060 74L1083 74H1106Z" fill="white" fill-opacity="0.5"/>
<path d="M1087 74C1087 72.9391 1086.58 71.9217 1085.83 71.1716C1085.08 70.4214 1084.06 70 1083 70C1081.94 70 1080.92 70.4214 1080.17 71.1716C1079.42 71.9217 1079 72.9391 1079 74L1083 74H1087Z" fill="#5A5A5A"/>
<path d="M1083 74L1092 56.5" stroke="#5A5A5A"/>
<path d="M1185 74C1185 67.9 1182.58 62.0499 1178.26 57.7365C1173.95 53.4232 1168.1 51 1162 51C1155.9 51 1150.05 53.4232 1145.74 57.7365C1141.42 62.0499 1139 67.9 1139 74L1162 74H1185Z" fill="white" fill-opacity="0.5"/>
<path d="M1166 74C1166 72.9391 1165.58 71.9217 1164.83 71.1716C1164.08 70.4214 1163.06 70 1162 70C1160.94 70 1159.92 70.4214 1159.17 71.1716C1158.42 71.9217 1158 72.9391 1158 74L1162 74H1166Z" fill="#5A5A5A"/>
<path d="M1162 74L1171 56.5" stroke="#5A5A5A"/>
<rect x="1181" y="161" width="28" height="58" rx="5" fill="#B3B3B3"/>
<circle cx="1195" cy="207" r="4" fill="#5A5A5A"/>
<circle cx="1195" cy="190" r="4" fill="#5A5A5A"/>
<circle cx="1195" cy="173" r="4" fill="#5A5A5A"/>
<rect x="1440" y="252" width="214" height="250" transform="rotate(-180 1440 252)" fill="url(#paint0_linear)"/>
<rect y="22" width="135" height="241" fill="url(#paint1_linear)"/>
<defs>
<linearGradient id="paint0_linear" x1="1440" y1="377" x2="1654" y2="377" gradientUnits="userSpaceOnUse">
<stop stop-color="#F6F6F6"/>
<stop offset="0.932292" stop-color="#F6F6F6" stop-opacity="0"/>
</linearGradient>
<linearGradient id="paint1_linear" x1="2.28781e-06" y1="147.342" x2="130.24" y2="147.342" gradientUnits="userSpaceOnUse">
<stop stop-color="#F6F6F6"/>
<stop offset="1" stop-color="#F6F6F6" stop-opacity="0"/>
</linearGradient>
</defs>
</svg>
