<svg width="375" height="247" viewBox="0 0 375 247" fill="none" xmlns="http://www.w3.org/2000/svg">
<g clip-path="url(#clip0)">
<rect x="-624.5" y="151" width="1623" height="95.3203" rx="47.6601" fill="white" fill-opacity="0.05" stroke="#404040"/>
<rect x="-624.5" y="151" width="1623" height="95.3203" rx="47.6601" fill="white" fill-opacity="0.05" stroke="#404040"/>
<rect x="-613.452" y="161.034" width="1600.9" height="75.2536" rx="37.6268" fill="#484848" fill-opacity="0.5" stroke="#404040"/>
<rect x="-32.8682" y="169.561" width="58.8459" height="58.2002" rx="29.1001" fill="white" fill-opacity="0.05" stroke="#EF7C00" stroke-width="2"/>
<rect x="-20.6992" y="181.6" width="34.5076" height="34.1201" rx="17.0601" fill="#E2E2E2"/>
<rect x="-20.6992" y="181.6" width="34.5076" height="34.1201" rx="17.0601" fill="#EF7C00" fill-opacity="0.5"/>
<rect x="-20.6992" y="181.6" width="34.5076" height="34.1201" rx="17.0601" stroke="#EF7C00" stroke-width="2"/>
<path d="M109.12 182.609L109.12 170.568" stroke="white" stroke-opacity="0.5"/>
<path d="M109.12 227.758L109.12 215.717" stroke="white" stroke-opacity="0.5"/>
<rect x="79.6968" y="169.561" width="58.8459" height="58.2002" rx="29.1001" fill="white" fill-opacity="0.05" stroke="#EF7C00" stroke-width="2"/>
<rect x="91.8657" y="181.6" width="34.5076" height="34.1201" rx="17.0601" fill="#E2E2E2"/>
<rect x="91.8657" y="181.6" width="34.5076" height="34.1201" rx="17.0601" fill="#EF7C00" fill-opacity="0.5"/>
<rect x="91.8657" y="181.6" width="34.5076" height="34.1201" rx="17.0601" stroke="#EF7C00" stroke-width="2"/>
<path d="M221.685 182.609L221.685 170.568" stroke="white" stroke-opacity="0.5"/>
<path d="M221.685 227.758L221.685 215.717" stroke="white" stroke-opacity="0.5"/>
<rect x="192.262" y="169.561" width="58.8459" height="58.2002" rx="29.1001" fill="white" fill-opacity="0.05" stroke="#EF7C00" stroke-width="2"/>
<rect x="204.431" y="181.6" width="34.5076" height="34.1201" rx="17.0601" fill="#E2E2E2"/>
<rect x="204.431" y="181.6" width="34.5076" height="34.1201" rx="17.0601" fill="#EF7C00" fill-opacity="0.5"/>
<rect x="204.431" y="181.6" width="34.5076" height="34.1201" rx="17.0601" stroke="#EF7C00" stroke-width="2"/>
<path d="M334.25 182.609L334.25 170.568" stroke="white" stroke-opacity="0.5"/>
<path d="M334.25 227.758L334.25 215.717" stroke="white" stroke-opacity="0.5"/>
<rect x="304.827" y="169.561" width="58.8459" height="58.2002" rx="29.1001" fill="white" fill-opacity="0.05" stroke="#EF7C00" stroke-width="2"/>
<rect x="315.996" y="180.6" width="36.5076" height="36.1201" rx="18.0601" fill="#EF7C00" fill-opacity="0.5"/>
<rect x="316.996" y="181.6" width="34.5076" height="34.1201" rx="17.0601" stroke="#EF7C00" stroke-opacity="0.5" stroke-width="2"/>
<g clip-path="url(#clip1)">
<path d="M207.584 104.82H219.084V113.32L216.584 114.82L216.084 133.32H254.584V136.82H254.084L253.084 140.82L254.584 143.82L255.084 146.82L252.084 149.32H248.584L246.084 145.32L248.584 140.32L248.084 136.82H247.084H211.584L214.584 140.82L216.084 144.32L215.584 148.32L211.584 148.82L207.584 147.32L208.584 142.32L209.584 136.82H207.584V104.82Z" fill="white" fill-opacity="0.05"/>
<path d="M226.169 112.374L230.689 97.8259H244.749L249.771 112.374L251.779 114.381V122.408L248.766 125.418L246.758 129.431L228.178 128.929L226.169 123.411L223.658 121.404L224.16 114.381L226.169 112.374Z" fill="#EF7C00"/>
<path d="M212.652 144.438C212.289 144.104 211.73 144.104 211.368 144.438C211.288 144.526 211.224 144.627 211.178 144.737C211.081 144.955 211.081 145.204 211.178 145.423C211.224 145.532 211.288 145.633 211.368 145.721C211.626 145.98 212.017 146.055 212.353 145.911C212.463 145.865 212.564 145.801 212.652 145.721C212.731 145.633 212.796 145.532 212.842 145.423C212.938 145.204 212.938 144.955 212.842 144.737C212.796 144.627 212.732 144.526 212.652 144.438Z" fill="#404040"/>
<path d="M250.531 144.249C250.473 144.268 250.418 144.296 250.368 144.33C250.321 144.363 250.276 144.4 250.233 144.438C250.151 144.525 250.087 144.626 250.043 144.737C249.997 144.845 249.972 144.962 249.971 145.08C249.967 145.198 249.992 145.316 250.043 145.423C250.089 145.532 250.153 145.633 250.233 145.721C250.491 145.98 250.882 146.055 251.218 145.911C251.445 145.829 251.624 145.65 251.706 145.423C251.753 145.314 251.777 145.198 251.779 145.08C251.775 144.841 251.682 144.612 251.517 144.439C251.255 144.186 250.868 144.111 250.531 144.249Z" fill="#404040"/>
<path d="M260.552 111.032C260.383 110.862 260.153 110.767 259.913 110.767C259.673 110.767 259.443 110.862 259.274 111.032C259.104 111.201 259.009 111.431 259.009 111.67V117.088H252.682V115.282C252.679 114.066 251.863 113.002 250.688 112.682L246.69 98.3035C246.361 97.1331 245.294 96.3232 244.077 96.3203H231.461C230.243 96.3235 229.176 97.1336 228.847 98.3043L224.85 112.682C223.675 113.002 222.86 114.066 222.856 115.282V117.088H221.952C220.455 117.09 219.242 118.302 219.24 119.797V132.438H217.433V115.282H218.336C219.334 115.281 220.143 114.473 220.144 113.476V105.35C220.143 104.353 219.334 103.545 218.336 103.544H208.394C207.396 103.545 206.588 104.353 206.587 105.35V136.953C206.586 137.192 206.682 137.422 206.851 137.591C207.021 137.761 207.251 137.856 207.49 137.856H208.618L208.961 140.602C206.992 141.938 206.126 144.402 206.826 146.675C207.526 148.949 209.628 150.5 212.009 150.501C214.389 150.501 216.492 148.95 217.192 146.677C217.893 144.404 217.028 141.94 215.059 140.603L215.409 137.856H247.483L247.827 140.602C245.857 141.939 244.991 144.402 245.691 146.675C246.391 148.949 248.493 150.5 250.874 150.501C253.254 150.501 255.357 148.95 256.057 146.677C256.758 144.404 255.893 141.94 253.924 140.603L254.274 137.856H255.394C255.634 137.856 255.864 137.761 256.033 137.592C256.202 137.422 256.298 137.192 256.298 136.953V118.894H259.009V124.312C259.009 124.81 259.414 125.215 259.913 125.215C260.412 125.215 260.817 124.81 260.817 124.312V111.67C260.817 111.431 260.722 111.201 260.552 111.032ZM230.589 98.7884C230.699 98.398 231.055 98.1277 231.461 98.1262H244.077C244.483 98.1275 244.839 98.3974 244.948 98.7876L245.267 99.9322H230.271L230.589 98.7884ZM229.769 101.738H245.769L248.781 112.573H226.757L229.769 101.738ZM224.663 115.282C224.664 114.784 225.068 114.38 225.567 114.379H249.971C250.47 114.38 250.874 114.784 250.875 115.282V120.7C250.874 121.198 250.47 121.602 249.971 121.603H225.567C225.068 121.602 224.664 121.198 224.663 120.7V115.282ZM248.666 123.409L246.852 128.241C246.719 128.592 246.383 128.825 246.007 128.826H229.531C229.155 128.825 228.818 128.592 228.686 128.24L226.872 123.409H248.666ZM208.394 105.35H218.336L218.338 113.476H208.394V105.35ZM208.394 115.282H215.625V132.438H208.394V115.282ZM215.625 145.079C215.623 147.073 214.005 148.689 212.01 148.691C210.013 148.691 208.394 147.074 208.394 145.079C208.394 143.085 210.013 141.468 212.01 141.468C214.006 141.468 215.625 143.085 215.625 145.079ZM210.439 137.856H213.586L213.335 139.832C212.467 139.605 211.555 139.605 210.687 139.832L210.439 137.856ZM254.49 145.079C254.488 147.073 252.87 148.689 250.875 148.691C248.878 148.691 247.259 147.074 247.259 145.079C247.259 143.085 248.878 141.468 250.875 141.468C252.871 141.468 254.49 143.085 254.49 145.079ZM249.304 137.856H252.451L252.2 139.832C251.332 139.605 250.42 139.605 249.552 139.832L249.304 137.856ZM254.49 136.05H208.394V134.244H254.49V136.05ZM254.49 132.438H221.048V119.797C221.048 119.298 221.453 118.894 221.952 118.894H222.856V120.7C222.859 121.939 223.704 123.017 224.906 123.318L226.993 128.874C227.392 129.929 228.402 130.629 229.531 130.632H246.007C247.136 130.629 248.146 129.93 248.545 128.875L250.631 123.318C251.834 123.017 252.679 121.939 252.682 120.7V118.894H254.49V132.438H254.49Z" fill="#404040"/>
<path d="M211.106 107.156C210.866 107.156 210.636 107.251 210.466 107.421C210.297 107.59 210.202 107.82 210.202 108.059V110.768C210.202 111.267 210.606 111.671 211.106 111.671C211.605 111.671 212.01 111.267 212.01 110.768V108.059C212.01 107.82 211.915 107.59 211.745 107.421C211.576 107.251 211.346 107.156 211.106 107.156Z" fill="#404040"/>
<path d="M215.625 107.156C215.126 107.156 214.721 107.56 214.721 108.059V110.768C214.721 111.267 215.126 111.671 215.625 111.671C216.125 111.671 216.529 111.267 216.529 110.768V108.059C216.53 107.561 216.125 107.156 215.625 107.156Z" fill="#404040"/>
</g>
<g clip-path="url(#clip2)">
<path d="M85.0605 113.378H95.1038V115.385H85.0605V113.378Z" fill="white" fill-opacity="0.05"/>
<path d="M94.7393 103.757L100.765 100.747L102.774 102.753L95.2414 105.262L94.7393 103.757Z" fill="white" fill-opacity="0.05"/>
<path d="M63.4675 98.3283L72.0043 97.325L72.5065 99.8334L72.0043 102.342H62.9653L63.4675 98.3283Z" fill="white" fill-opacity="0.05"/>
<path d="M57.9442 128.929H62.4637V113.378H65.4767V123.411L67.9875 124.414L69.494 123.411L69.9962 113.378L73.0091 113.879V128.929H103.641L104.143 132.441L84.5589 137.458V140.468L106.654 141.471L108.161 144.481L106.654 149.498H95.1044L93.5979 147.993L71.0005 146.989L68.9918 149.999L60.9572 149.498H56.9399L55.9355 143.478L57.9442 141.471L62.4637 140.468V136.956L57.9442 133.444V128.929Z" fill="white" fill-opacity="0.05"/>
<path d="M59.9524 102.342H74.013L79.0346 97.325L97.1126 97.8266L98.619 100.837L94.0996 104.349L95.6061 105.854L99.1212 105.352L98.1169 111.874L96.6104 112.877L62.4632 113.379L58.948 111.372L58.4458 103.847L59.9524 102.342Z" fill="#EF7C00"/>
<path d="M89.0782 116.388H92.091L91.5889 123.913H88.0737L89.0782 116.388Z" fill="#EF7C00"/>
<path d="M102.134 99.3313L104.143 98.8296L105.147 99.3313L106.152 101.338L104.645 102.843L102.134 102.341L102.134 99.3313Z" fill="#EF7C00"/>
<path d="M109.029 143.356L107.066 140.439C106.919 140.22 106.671 140.088 106.407 140.088H85.1998V137.827C86.8991 137.634 94.4944 136.275 99.29 135.169C99.7176 135.07 99.9841 134.644 99.8853 134.217C99.7866 133.79 99.3598 133.523 98.9325 133.622C93.1987 134.945 84.8104 136.277 84.3612 136.321H72.0597C71.621 136.321 71.2653 136.677 71.2653 137.115C71.2653 137.553 71.621 137.909 72.0597 137.909H83.6109V140.088H63.3611V137.115C63.3611 136.862 63.2403 136.624 63.036 136.474L58.5768 133.212C58.3139 133.019 58.157 132.71 58.157 132.383V130.281C58.157 129.714 58.6179 129.254 59.1844 129.254H102.733C103.299 129.254 103.759 129.714 103.759 130.281V131.311C103.759 131.735 103.496 132.119 103.106 132.268C101.834 132.749 100.407 133.211 98.8639 133.64C98.4413 133.757 98.194 134.195 98.3116 134.617C98.4293 135.039 98.8668 135.287 99.29 135.169C100.879 134.727 102.352 134.25 103.67 133.751C104.673 133.37 105.348 132.389 105.348 131.311V130.28C105.348 128.839 104.175 127.667 102.733 127.667H73.7103C73.8073 123.175 73.8495 118.623 73.8363 114.111C74.2986 114.116 74.7607 114.122 75.2222 114.126H75.2292C75.6647 114.126 76.0197 113.775 76.0234 113.339C76.0273 112.901 75.6746 112.542 75.2359 112.538C70.4712 112.497 65.6597 112.37 60.9345 112.159C60.3839 112.135 59.9151 111.743 59.7945 111.205C59.2007 108.56 59.0208 106.617 59.1525 104.274C59.1882 103.64 59.7162 103.135 60.3546 103.123C64.6105 103.046 68.8979 102.995 73.0981 102.972C73.8774 102.968 74.627 102.637 75.1542 102.065C76.5367 100.568 77.5808 99.4135 78.5397 98.3225C78.7712 98.0594 79.1062 97.9086 79.4593 97.9086H79.4615C85.0767 97.9191 90.7804 98.0509 96.4145 98.3005C96.9747 98.3249 97.4444 98.7226 97.5566 99.2676C97.66 99.7697 97.7523 100.279 97.8331 100.788L94.813 102.048C94.225 102.293 93.7679 102.752 93.5261 103.341C93.2842 103.929 93.2863 104.576 93.5319 105.163C93.9034 106.052 94.7666 106.626 95.7311 106.626C96.0481 106.626 96.3572 106.564 96.6495 106.442L98.2527 105.773C98.2459 107.501 98.0378 109.118 97.5692 111.204C97.4484 111.742 96.9801 112.135 96.43 112.159C90.5492 112.421 81.2597 112.553 75.362 112.553C75.3157 112.553 75.269 112.553 75.2225 112.553H75.0827C74.644 112.553 74.2883 112.909 74.2883 113.347C74.2883 113.785 74.644 114.14 75.0827 114.14H75.2222H75.362C77.2495 114.14 82.4638 114.125 84.3611 114.098V114.623C84.3611 115.684 85.2254 116.548 86.288 116.548H87.6203V118.667L87.2429 118.786C86.8244 118.917 86.5918 119.363 86.7232 119.781C86.8299 120.12 87.1431 120.337 87.4809 120.337C87.5271 120.337 87.5736 120.331 87.6202 120.323V121.572L87.2428 121.691C86.8243 121.822 86.5917 122.268 86.7231 122.686C86.8298 123.025 87.143 123.242 87.4808 123.242C87.527 123.242 87.5735 123.236 87.6201 123.228V124.401C87.6201 124.654 87.7406 124.891 87.9445 125.041C88.0826 125.142 88.2475 125.195 88.4146 125.195C88.4944 125.195 88.5748 125.183 88.6528 125.158L91.8663 124.149C92.1974 124.045 92.4226 123.739 92.4226 123.392V121.728L92.7999 121.61C93.2184 121.479 93.451 121.033 93.3195 120.615C93.1984 120.23 92.81 120.003 92.4226 120.072V118.823L92.7999 118.705C93.2184 118.574 93.451 118.128 93.3195 117.71C93.1984 117.325 92.81 117.098 92.4226 117.167V116.548H93.7551C94.8176 116.548 95.6821 115.685 95.6821 114.623V113.779C95.9547 113.767 96.2278 113.757 96.5001 113.745C97.765 113.689 98.8421 112.787 99.1193 111.551C99.6745 109.079 99.8838 107.221 99.8347 105.113L103.068 103.764C103.385 103.871 103.725 103.93 104.079 103.93C105.828 103.93 107.251 102.509 107.251 100.761C107.251 99.014 105.828 97.5924 104.079 97.5924C102.829 97.5924 101.746 98.3183 101.229 99.37L99.3395 100.159C99.2705 99.7532 99.1951 99.3483 99.1126 98.9478C98.8535 97.6893 97.7725 96.7711 96.4842 96.7147C90.8282 96.4643 85.1018 96.3319 79.4641 96.3213H79.4591C78.649 96.3213 77.8791 96.6686 77.3457 97.2749C76.3955 98.356 75.3594 99.5014 73.9855 100.989C73.8889 101.094 73.7746 101.179 73.6501 101.244C73.6363 100.712 73.6209 100.158 73.6037 99.5693C73.5661 98.2827 72.6752 97.1533 71.4372 96.8225C68.9345 96.1554 66.3964 96.1553 63.893 96.8226C62.6548 97.1534 61.7635 98.2829 61.7259 99.5691C61.7077 100.189 61.6903 100.83 61.6733 101.513C61.2238 101.52 60.7744 101.528 60.3255 101.536C58.8605 101.563 57.6483 102.726 57.5661 104.185C57.4254 106.686 57.6155 108.752 58.244 111.553C58.5214 112.788 59.5989 113.689 60.864 113.745C61.0744 113.755 61.2857 113.763 61.4964 113.772C61.4793 118.365 61.5207 123.031 61.6198 127.667H59.1845C57.7418 127.667 56.5682 128.839 56.5682 130.281V132.383C56.5682 133.213 56.9679 134.002 57.6379 134.492L61.7723 137.517V140.088H57.6881C57.4236 140.088 57.1764 140.219 57.0288 140.439L55.0658 143.356C54.9777 143.487 54.9307 143.641 54.9307 143.799C54.9307 146.17 56.3232 149.836 56.3825 149.991C56.5001 150.298 56.7952 150.501 57.1245 150.501H68.6781C68.8888 150.501 69.0909 150.417 69.2399 150.268L71.5417 147.969H92.5532L94.8549 150.268C95.004 150.417 95.206 150.501 95.4168 150.501H106.97C107.3 150.501 107.595 150.298 107.713 149.991C107.772 149.836 109.164 146.17 109.164 143.799C109.164 143.641 109.117 143.487 109.029 143.356ZM90.8338 122.81L89.2091 123.32V122.134L90.8338 121.572V122.81ZM90.8338 120.902L89.2091 121.404V119.833L90.8338 119.323V120.902ZM90.8338 118.275L89.0779 118.895L89.2091 116.548H90.8338V118.275ZM94.0933 114.623C94.0933 114.81 93.9416 114.961 93.7552 114.961H91.6344C91.6322 114.961 91.6302 114.961 91.6282 114.961H88.4146C88.4125 114.961 88.4106 114.961 88.4085 114.961H86.2879C86.1014 114.961 85.9499 114.81 85.9499 114.623V114.074C88.6682 114.024 91.3878 113.948 94.0934 113.844L94.0933 114.623ZM96.0367 104.978C95.9392 105.019 95.8363 105.039 95.7309 105.039C95.4096 105.039 95.1219 104.848 94.9978 104.551C94.9159 104.355 94.9151 104.14 94.9956 103.944C95.0762 103.748 95.2284 103.595 95.425 103.513L100.939 101.212C101.017 101.757 101.234 102.257 101.553 102.676L96.0367 104.978ZM104.079 99.1799C104.952 99.1799 105.662 99.8895 105.662 100.762C105.662 101.634 104.952 102.343 104.079 102.343C103.206 102.343 102.496 101.634 102.496 100.762C102.496 99.8895 103.206 99.1799 104.079 99.1799ZM63.3143 99.6159C63.3316 99.0252 63.7384 98.5072 64.3033 98.3564C66.5343 97.7616 68.7967 97.7617 71.0274 98.3563C71.592 98.5071 71.9984 99.0251 72.0157 99.6161C72.0342 100.242 72.0504 100.829 72.0647 101.392C69.1547 101.411 66.2085 101.443 63.2635 101.488C63.2799 100.832 63.2967 100.213 63.3143 99.6159ZM69.2657 121.935C69.2452 122.8 68.5361 123.507 67.6883 123.51H67.6449C66.7947 123.507 66.0855 122.8 66.0642 121.934C65.9996 119.291 65.9789 116.606 65.998 113.94C67.108 113.975 68.2199 114.005 69.3323 114.031C69.3503 116.675 69.3294 119.33 69.2657 121.935ZM63.0851 113.837C63.5262 113.854 63.9673 113.871 64.4093 113.887C64.3895 116.583 64.4103 119.299 64.4756 121.973C64.5178 123.689 65.9366 125.091 67.6415 125.097H67.6914C69.3945 125.091 70.8133 123.689 70.8541 121.973C70.9179 119.367 70.939 116.711 70.9213 114.065C71.3635 114.073 71.8054 114.081 72.2472 114.088C72.2606 118.608 72.2183 123.168 72.1209 127.667H63.2091C63.1103 123.053 63.0686 118.409 63.0851 113.837ZM106.413 148.914H95.7459L93.4441 146.614C93.2951 146.465 93.0931 146.382 92.8823 146.382H71.2127C71.002 146.382 70.7999 146.465 70.651 146.614L68.3491 148.914H57.6823C57.3308 147.909 56.5941 145.632 56.5248 144.033L58.1114 141.675H105.984L107.57 144.033C107.501 145.632 106.764 147.909 106.413 148.914Z" fill="#404040"/>
</g>
<g clip-path="url(#clip3)">
<path d="M367.277 108.361H372.299V113.378H367.277V108.361Z" fill="#EF7C00"/>
<path d="M402.416 119.102H400.357V115.951H400.917C403.191 115.951 405.034 114.11 405.034 111.838V105.147C405.034 103.244 403.735 101.64 401.976 101.171V97.3785C401.976 96.7941 401.502 96.3203 400.917 96.3203H393.843C393.258 96.3203 392.784 96.7941 392.784 97.3785V101.033H389.132V97.3785C389.132 96.7941 388.657 96.3203 388.072 96.3203H381.001C380.416 96.3203 379.942 96.7941 379.942 97.3785V101.171C378.182 101.639 376.881 103.244 376.881 105.147V109.716H373.731V108.567C373.731 107.565 372.918 106.753 371.915 106.753H367.493C366.49 106.753 365.677 107.565 365.677 108.567V112.982C365.677 113.984 366.49 114.796 367.493 114.796H368.644V119.102H368.298C367.9 119.102 367.509 119.127 367.124 119.176C367.113 119.177 367.101 119.179 367.09 119.181C362.579 119.774 359.086 123.636 359.086 128.298V134.915C359.086 139.988 363.218 144.114 368.298 144.114H368.671V148.242C368.671 149.488 369.684 150.5 370.929 150.5H375.411C376.66 150.5 377.672 149.489 377.672 148.242V144.114H392.312C392.612 147.686 395.616 150.5 399.268 150.5C403.117 150.5 406.248 147.372 406.248 143.527C406.248 143.443 406.245 143.359 406.242 143.275C409.492 141.785 411.625 138.524 411.625 134.915V128.298C411.625 123.227 407.494 119.102 402.416 119.102ZM402.916 105.146V111.836C402.916 112.94 402.02 113.835 400.915 113.835H397.798V103.149H400.917C402.021 103.149 402.916 104.043 402.916 105.146ZM386.236 113.835V111.683H395.679V113.835H386.236ZM393.12 115.951V119.102H388.798V115.951H393.12ZM386.68 115.951V119.102H383.677V115.951H386.68ZM386.236 109.567V107.417H395.679V109.567H386.236ZM395.239 115.951H398.239V119.102H395.239V115.951ZM394.902 98.4367H399.858V101.033H394.902V98.4367ZM395.679 103.149V105.301H386.236V103.149H395.679ZM382.061 98.4367H387.013V101.033H382.061V98.4367ZM379 105.147C379 104.044 379.895 103.149 381 103.149H384.117V113.835H381.001C379.896 113.835 379 112.939 379 111.835L379 105.147ZM373.731 112.982V111.833H376.881V111.836C376.881 114.109 378.725 115.951 381 115.951H381.558V119.102H370.763V114.796H371.914C372.918 114.796 373.731 113.984 373.731 112.982ZM367.795 112.68V108.869H371.612V112.68H367.795ZM375.553 148.242C375.553 148.32 375.489 148.384 375.411 148.384H370.929C370.856 148.384 370.79 148.317 370.79 148.242V144.114H375.553V148.242ZM392.456 141.998H376.613H369.731H368.298C368.294 141.994 368.292 141.992 368.288 141.988V135.767C368.288 135.237 367.911 134.763 367.386 134.687C366.731 134.593 366.169 135.098 366.169 135.734V141.672C363.295 140.767 361.204 138.08 361.204 134.915V128.298C361.204 125.135 363.295 122.449 366.169 121.545V135.734C366.169 136.264 366.546 136.738 367.071 136.814C367.726 136.908 368.288 136.403 368.288 135.767V121.219L402.416 121.219L402.423 121.226V137.313C401.475 136.831 400.403 136.557 399.268 136.557C395.944 136.557 393.157 138.888 392.456 141.998ZM404.115 143.908C403.932 146.282 402.011 148.196 399.634 148.371C396.787 148.58 394.403 146.326 394.403 143.527C394.403 143.407 394.409 143.289 394.418 143.171C394.419 143.162 394.419 143.153 394.42 143.144C394.617 140.646 396.715 138.673 399.268 138.673C402.075 138.673 404.334 141.06 404.115 143.908ZM409.506 134.915C409.506 137.519 408.063 139.888 405.819 141.121C405.525 140.325 405.088 139.598 404.542 138.969V121.544C407.416 122.448 409.506 125.134 409.506 128.298V134.915Z" fill="#404040"/>
<path d="M364.265 121.906L367.278 120.401H381.841L383.347 115.384H387.867L388.871 120.401L394.395 119.899V114.883H398.915L397.91 120.903H404.438L409.46 123.411L410.464 132.943V138.461L407.451 141.973L401.425 149.498L395.399 147.993L393.391 143.478H376.317V148.495L370.793 149.498L369.287 143.478L364.265 141.973L360.75 138.461V125.418L364.265 121.906Z" fill="white" fill-opacity="0.05"/>
</g>
<path d="M-185.801 12.04C-185.801 5.39051 -180.405 0 -173.749 0C-167.093 0 -161.697 5.39051 -161.697 12.04V31.1034C-161.697 37.753 -167.093 43.1435 -173.749 43.1435C-180.405 43.1435 -185.801 37.753 -185.801 31.1034V12.04Z" fill="#282828" fill-opacity="0.25"/>
<path d="M-118.511 12.04C-118.511 5.39051 -113.115 0 -106.459 0C-99.8027 0 -94.4068 5.39051 -94.4068 12.04V31.1034C-94.4068 37.753 -99.8027 43.1435 -106.459 43.1435C-113.115 43.1435 -118.511 37.753 -118.511 31.1034V12.04Z" fill="#282828" fill-opacity="0.25"/>
<path d="M-51.2207 12.04C-51.2207 5.39051 -45.8249 0 -39.1687 0C-32.5126 0 -27.1168 5.39051 -27.1168 12.04V31.1034C-27.1168 37.753 -32.5126 43.1435 -39.1687 43.1435C-45.8249 43.1435 -51.2207 37.753 -51.2207 31.1034V12.04Z" fill="#282828" fill-opacity="0.25"/>
<path d="M16.0693 12.04C16.0693 5.39051 21.4652 0 28.1213 0C34.7774 0 40.1732 5.39051 40.1732 12.04V31.1034C40.1732 37.753 34.7774 43.1435 28.1213 43.1435C21.4652 43.1435 16.0693 37.753 16.0693 31.1034V12.04Z" fill="#282828" fill-opacity="0.25"/>
<path fill-rule="evenodd" clip-rule="evenodd" d="M-210.887 37.0742C-210.887 28.7899 -204.172 22.0742 -195.887 22.0742H60.3464C68.6306 22.0742 75.3464 28.7899 75.3464 37.0742V77.2565H91.4156C94.177 77.2565 96.4156 79.4951 96.4156 82.2565V151.503H75.3464V246.822H-210.887V151.503H-232V82.2565C-232 79.4951 -229.761 77.2565 -227 77.2565H-210.887V37.0742Z" fill="#676767"/>
<path d="M34.1123 74C34.1123 67.9 31.6891 62.0499 27.3758 57.7365C23.0624 53.4232 17.2123 51 11.1123 51C5.01233 51 -0.837812 53.4232 -5.15115 57.7365C-9.46449 62.0499 -11.8877 67.9 -11.8877 74L11.1123 74H34.1123Z" fill="white" fill-opacity="0.5"/>
<path d="M15.1123 74C15.1123 72.9391 14.6909 71.9217 13.9407 71.1716C13.1906 70.4214 12.1732 70 11.1123 70C10.0514 70 9.03402 70.4214 8.28388 71.1716C7.53373 71.9217 7.1123 72.9391 7.1123 74L11.1123 74H15.1123Z" fill="#5A5A5A"/>
<path d="M11.1123 74L20.1123 56.5" stroke="#5A5A5A"/>
<rect x="26.1123" y="161" width="28" height="58" rx="5" fill="#B3B3B3"/>
<circle cx="40.1123" cy="207" r="4" fill="#5A5A5A"/>
<circle cx="40.1123" cy="190" r="4" fill="#5A5A5A"/>
<circle cx="40.1123" cy="173" r="4" fill="#5A5A5A"/>
<path d="M334.221 12.04C334.221 5.39051 339.617 0 346.273 0C352.929 0 358.325 5.39051 358.325 12.04V31.1034C358.325 37.753 352.929 43.1435 346.273 43.1435C339.617 43.1435 334.221 37.753 334.221 31.1034V12.04Z" fill="#282828" fill-opacity="0.25"/>
<path d="M401.511 12.04C401.511 5.39051 406.907 0 413.563 0C420.219 0 425.615 5.39051 425.615 12.04V31.1034C425.615 37.753 420.219 43.1435 413.563 43.1435C406.907 43.1435 401.511 37.753 401.511 31.1034V12.04Z" fill="#282828" fill-opacity="0.25"/>
<path d="M468.801 12.04C468.801 5.39051 474.197 0 480.853 0C487.509 0 492.905 5.39051 492.905 12.04V31.1034C492.905 37.753 487.509 43.1435 480.853 43.1435C474.197 43.1435 468.801 37.753 468.801 31.1034V12.04Z" fill="#282828" fill-opacity="0.25"/>
<path d="M536.091 12.04C536.091 5.39051 541.487 0 548.143 0C554.799 0 560.195 5.39051 560.195 12.04V31.1034C560.195 37.753 554.799 43.1435 548.143 43.1435C541.487 43.1435 536.091 37.753 536.091 31.1034V12.04Z" fill="#282828" fill-opacity="0.25"/>
<path fill-rule="evenodd" clip-rule="evenodd" d="M304.091 37.0742C304.091 28.7899 310.807 22.0742 319.091 22.0742H575.325C583.609 22.0742 590.325 28.7899 590.325 37.0742V77.2565H606.416C609.177 77.2565 611.416 79.4951 611.416 82.2565V151.503H590.325V246.822H304.091V151.503H283V82.2565C283 79.4951 285.239 77.2565 288 77.2565H304.091V37.0742Z" fill="#676767"/>
<path d="M391.645 74C391.645 67.9 389.222 62.0499 384.908 57.7365C380.595 53.4232 374.745 51 368.645 51C362.545 51 356.695 53.4232 352.382 57.7365C348.068 62.0499 345.645 67.9 345.645 74L368.645 74H391.645Z" fill="white" fill-opacity="0.5"/>
<path d="M372.645 74C372.645 72.9391 372.224 71.9217 371.473 71.1716C370.723 70.4214 369.706 70 368.645 70C367.584 70 366.567 70.4214 365.817 71.1716C365.066 71.9217 364.645 72.9391 364.645 74L368.645 74H372.645Z" fill="#5A5A5A"/>
<path d="M368.645 74L377.645 56.5" stroke="#5A5A5A"/>
<rect width="76" height="247" fill="url(#paint0_linear)"/>
<rect width="76" height="247" transform="matrix(-1 0 0 1 375 0)" fill="url(#paint1_linear)"/>
</g>
<defs>
<linearGradient id="paint0_linear" x1="1.28795e-06" y1="128.462" x2="73.3205" y2="128.462" gradientUnits="userSpaceOnUse">
<stop stop-color="#F6F6F6"/>
<stop offset="1" stop-color="#F6F6F6" stop-opacity="0"/>
</linearGradient>
<linearGradient id="paint1_linear" x1="1.28795e-06" y1="128.462" x2="73.3205" y2="128.462" gradientUnits="userSpaceOnUse">
<stop stop-color="#F6F6F6"/>
<stop offset="1" stop-color="#F6F6F6" stop-opacity="0"/>
</linearGradient>
<clipPath id="clip0">
<rect width="375" height="247" fill="white"/>
</clipPath>
<clipPath id="clip1">
<rect width="54.2338" height="54.1802" fill="white" transform="translate(206.584 96.3203)"/>
</clipPath>
<clipPath id="clip2">
<rect width="54.2338" height="54.1802" fill="white" transform="translate(54.9307 96.3203)"/>
</clipPath>
<clipPath id="clip3">
<rect width="54.2338" height="54.1802" fill="white" transform="translate(358.238 96.3203)"/>
</clipPath>
</defs>
</svg>
