<svg width="546" height="268" viewBox="0 0 546 268" fill="none" xmlns="http://www.w3.org/2000/svg">
<path d="M11.6348 14.3635L10.9463 16.8654L13.8004 17.7098V20.8184C13.8004 21.1634 13.9321 21.4951 14.1679 21.7384L19.1863 26.943C19.4307 27.1965 19.7523 27.3242 20.0733 27.3242C20.3943 27.3242 20.716 27.1965 20.9604 26.943L25.9788 21.7384C26.0768 21.6367 26.1454 21.5135 26.206 21.3858L28.5119 22.0688L29.2004 19.5668L26.3463 18.7225V16.2244L28.5119 16.8654L29.2004 14.3635L26.3463 13.5179V11.0198L28.5119 11.6608L29.2004 9.1589L26.3463 8.31327V0H23.8371V7.56867L16.3096 5.33867V0H13.8004V4.59597L11.6348 3.95428L10.9463 6.45621L13.8004 7.30056V9.79867L11.6348 9.15762L10.9463 11.6595L13.8004 12.5052V15.0033L11.6348 14.3635ZM20.0733 24.1831L16.3096 20.2797V18.4544L23.5333 20.5948L20.0733 24.1831ZM16.3096 8.04516L23.8371 10.2752V12.7733L16.3096 10.5433V8.04516ZM16.3096 13.2498L23.8371 15.4798V17.9779L16.3096 15.7479V13.2498Z" fill="#424242"/>
<path d="M31.7324 19.8983L20.0735 31.9899L8.41461 19.8983C8.17999 19.6537 7.86144 19.5171 7.52757 19.5171H0V22.1194H7.00809L19.1865 34.7497C19.4309 35.0032 19.7525 35.1309 20.0735 35.1309C20.3945 35.1309 20.7161 35.0032 20.9606 34.7497L33.139 22.1194H40.147V19.5171H32.6195C32.2856 19.5171 31.9671 19.6537 31.7324 19.8983Z" fill="#424242"/>
<path d="M11.6348 72.5808L10.9463 75.0827L13.8004 75.9271V79.0357C13.8004 79.3807 13.9321 79.7124 14.1679 79.9557L19.1863 85.1603C19.4307 85.4138 19.7523 85.5415 20.0733 85.5415C20.3943 85.5415 20.716 85.4138 20.9604 85.1603L25.9788 79.9557C26.0768 79.854 26.1454 79.7308 26.206 79.6031L28.5119 80.2861L29.2004 77.7841L26.3463 76.9398V74.4417L28.5119 75.0827L29.2004 72.5808L26.3463 71.7352V69.2371L28.5119 69.8781L29.2004 67.3762L26.3463 66.5306V58.2173H23.8371V65.786L16.3096 63.556V58.2173H13.8004V62.8133L11.6348 62.1716L10.9463 64.6735L13.8004 65.5178V68.016L11.6348 67.3749L10.9463 69.8768L13.8004 70.7225V73.2206L11.6348 72.5808ZM20.0733 82.4004L16.3096 78.497V76.6717L23.5333 78.8121L20.0733 82.4004ZM16.3096 66.2624L23.8371 68.4925V70.9906L16.3096 68.7606V66.2624ZM16.3096 71.4671L23.8371 73.6971V76.1952L16.3096 73.9652V71.4671Z" fill="#424242"/>
<path d="M31.7324 78.1156L20.0735 90.2071L8.41461 78.1156C8.17999 77.871 7.86144 77.7344 7.52757 77.7344H0V80.3367H7.00809L19.1865 92.967C19.4309 93.2205 19.7525 93.3482 20.0735 93.3482C20.3945 93.3482 20.7161 93.2205 20.9606 92.967L33.139 80.3367H40.147V77.7344H32.6195C32.2856 77.7344 31.9671 77.871 31.7324 78.1156Z" fill="#424242"/>
<path d="M11.6348 130.798L10.9463 133.3L13.8004 134.144V137.253C13.8004 137.598 13.9321 137.93 14.1679 138.173L19.1863 143.378C19.4307 143.631 19.7523 143.759 20.0733 143.759C20.3943 143.759 20.716 143.631 20.9604 143.378L25.9788 138.173C26.0768 138.071 26.1454 137.948 26.206 137.82L28.5119 138.503L29.2004 136.001L26.3463 135.157V132.659L28.5119 133.3L29.2004 130.798L26.3463 129.952V127.454L28.5119 128.095L29.2004 125.593L26.3463 124.748V116.435H23.8371V124.003L16.3096 121.773V116.435H13.8004V121.031L11.6348 120.389L10.9463 122.891L13.8004 123.735V126.233L11.6348 125.592L10.9463 128.094L13.8004 128.94V131.438L11.6348 130.798ZM20.0733 140.618L16.3096 136.714V134.889L23.5333 137.029L20.0733 140.618ZM16.3096 124.48L23.8371 126.71V129.208L16.3096 126.978V124.48ZM16.3096 129.684L23.8371 131.914V134.412L16.3096 132.182V129.684Z" fill="#424242"/>
<path d="M31.7324 136.333L20.0735 148.424L8.41461 136.333C8.17999 136.088 7.86144 135.952 7.52757 135.952H0V138.554H7.00809L19.1865 151.184C19.4309 151.438 19.7525 151.565 20.0735 151.565C20.3945 151.565 20.7161 151.438 20.9606 151.184L33.139 138.554H40.147V135.952H32.6195C32.2856 135.952 31.9671 136.088 31.7324 136.333Z" fill="#424242"/>
<path d="M11.6348 189.015L10.9463 191.517L13.8004 192.361V195.47C13.8004 195.815 13.9321 196.146 14.1679 196.39L19.1863 201.594C19.4307 201.848 19.7523 201.976 20.0733 201.976C20.3943 201.976 20.716 201.848 20.9604 201.594L25.9788 196.39C26.0768 196.288 26.1454 196.165 26.206 196.037L28.5119 196.72L29.2004 194.218L26.3463 193.374V190.876L28.5119 191.517L29.2004 189.015L26.3463 188.169V185.671L28.5119 186.312L29.2004 183.81L26.3463 182.965V174.651H23.8371V182.22L16.3096 179.99V174.651H13.8004V179.247L11.6348 178.606L10.9463 181.108L13.8004 181.952V184.45L11.6348 183.809L10.9463 186.311L13.8004 187.157V189.655L11.6348 189.015ZM20.0733 198.835L16.3096 194.931V193.106L23.5333 195.246L20.0733 198.835ZM16.3096 182.697L23.8371 184.927V187.425L16.3096 185.195V182.697ZM16.3096 187.901L23.8371 190.131V192.629L16.3096 190.399V187.901Z" fill="#424242"/>
<path d="M31.7324 194.55L20.0735 206.642L8.41461 194.55C8.17999 194.306 7.86144 194.169 7.52757 194.169H0V196.771H7.00809L19.1865 209.402C19.4309 209.655 19.7525 209.783 20.0735 209.783C20.3945 209.783 20.7161 209.655 20.9606 209.402L33.139 196.771H40.147V194.169H32.6195C32.2856 194.169 31.9671 194.306 31.7324 194.55Z" fill="#424242"/>
<path d="M11.6348 247.233L10.9463 249.735L13.8004 250.579V253.688C13.8004 254.033 13.9321 254.364 14.1679 254.608L19.1863 259.812C19.4307 260.066 19.7523 260.193 20.0733 260.193C20.3943 260.193 20.716 260.066 20.9604 259.812L25.9788 254.608C26.0768 254.506 26.1454 254.383 26.206 254.255L28.5119 254.938L29.2004 252.436L26.3463 251.592V249.094L28.5119 249.735L29.2004 247.233L26.3463 246.387V243.889L28.5119 244.53L29.2004 242.028L26.3463 241.182V232.869H23.8371V240.438L16.3096 238.208V232.869H13.8004V237.465L11.6348 236.823L10.9463 239.325L13.8004 240.17V242.668L11.6348 242.027L10.9463 244.529L13.8004 245.374V247.872L11.6348 247.233ZM20.0733 257.052L16.3096 253.149V251.324L23.5333 253.464L20.0733 257.052ZM16.3096 240.914L23.8371 243.144V245.642L16.3096 243.412V240.914ZM16.3096 246.119L23.8371 248.349V250.847L16.3096 248.617V246.119Z" fill="#424242"/>
<path d="M31.7324 252.767L20.0735 264.859L8.41461 252.767C8.17999 252.523 7.86144 252.386 7.52757 252.386H0V254.989H7.00809L19.1865 267.619C19.4309 267.872 19.7525 268 20.0735 268C20.3945 268 20.7161 267.872 20.9606 267.619L33.139 254.989H40.147V252.386H32.6195C32.2856 252.386 31.9671 252.523 31.7324 252.767Z" fill="#424242"/>
<path d="M74.8668 14.3635L74.1782 16.8654L77.0323 17.7098V20.8184C77.0323 21.1634 77.164 21.4951 77.3999 21.7384L82.4182 26.943C82.6627 27.1965 82.9843 27.3242 83.3053 27.3242C83.6263 27.3242 83.9479 27.1965 84.1923 26.943L89.2107 21.7384C89.3087 21.6367 89.3773 21.5135 89.438 21.3858L91.7438 22.0688L92.4323 19.5668L89.5783 18.7225V16.2244L91.7438 16.8654L92.4323 14.3635L89.5783 13.5179V11.0198L91.7438 11.6608L92.4323 9.1589L89.5783 8.31327V0H87.0691V7.56867L79.5415 5.33867V0H77.0323V4.59597L74.8668 3.95428L74.1782 6.45621L77.0323 7.30056V9.79867L74.8668 9.15762L74.1782 11.6595L77.0323 12.5052V15.0033L74.8668 14.3635ZM83.3053 24.1831L79.5415 20.2797V18.4544L86.7652 20.5948L83.3053 24.1831ZM79.5415 8.04516L87.0691 10.2752V12.7733L79.5415 10.5433V8.04516ZM79.5415 13.2498L87.0691 15.4798V17.9779L79.5415 15.7479V13.2498Z" fill="#424242"/>
<path d="M94.9639 19.8983L83.305 31.9899L71.6461 19.8983C71.4114 19.6537 71.0929 19.5171 70.759 19.5171H63.2314V22.1194H70.2395L82.4179 34.7497C82.6624 35.0032 82.984 35.1309 83.305 35.1309C83.626 35.1309 83.9476 35.0032 84.192 34.7497L96.3704 22.1194H103.378V19.5171H95.8509C95.5171 19.5171 95.1985 19.6537 94.9639 19.8983Z" fill="#424242"/>
<path d="M74.6886 72.3635L74 74.8654L76.8541 75.7098V78.8184C76.8541 79.1634 76.9858 79.4951 77.2216 79.7384L82.24 84.943C82.4844 85.1965 82.8061 85.3242 83.1271 85.3242C83.4481 85.3242 83.7697 85.1965 84.0141 84.943L89.0325 79.7384C89.1305 79.6367 89.1991 79.5135 89.2598 79.3858L91.5656 80.0688L92.2541 77.5668L89.4 76.7225V74.2244L91.5656 74.8654L92.2541 72.3635L89.4 71.5179V69.0198L91.5656 69.6608L92.2541 67.1589L89.4 66.3133V58H86.8908V65.5687L79.3633 63.3387V58H76.8541V62.596L74.6886 61.9543L74 64.4562L76.8541 65.3006V67.7987L74.6886 67.1576L74 69.6595L76.8541 70.5052V73.0033L74.6886 72.3635ZM83.1271 82.1831L79.3633 78.2797V76.4544L86.587 78.5948L83.1271 82.1831ZM79.3633 66.0452L86.8908 68.2752V70.7733L79.3633 68.5433V66.0452ZM79.3633 71.2498L86.8908 73.4798V75.9779L79.3633 73.7479V71.2498Z" fill="#EF7C00"/>
<path d="M94.9639 78.1156L83.305 90.2071L71.6461 78.1156C71.4114 77.871 71.0929 77.7344 70.759 77.7344H63.2314V80.3367H70.2395L82.4179 92.967C82.6624 93.2205 82.984 93.3482 83.305 93.3482C83.626 93.3482 83.9476 93.2205 84.192 92.967L96.3704 80.3367H103.378V77.7344H95.8509C95.5171 77.7344 95.1985 77.871 94.9639 78.1156Z" fill="#424242"/>
<path d="M74.8668 130.798L74.1782 133.3L77.0323 134.144V137.253C77.0323 137.598 77.164 137.93 77.3999 138.173L82.4182 143.378C82.6627 143.631 82.9843 143.759 83.3053 143.759C83.6263 143.759 83.9479 143.631 84.1923 143.378L89.2107 138.173C89.3087 138.071 89.3773 137.948 89.438 137.82L91.7438 138.503L92.4323 136.001L89.5783 135.157V132.659L91.7438 133.3L92.4323 130.798L89.5783 129.952V127.454L91.7438 128.095L92.4323 125.593L89.5783 124.748V116.435H87.0691V124.003L79.5415 121.773V116.435H77.0323V121.031L74.8668 120.389L74.1782 122.891L77.0323 123.735V126.233L74.8668 125.592L74.1782 128.094L77.0323 128.94V131.438L74.8668 130.798ZM83.3053 140.618L79.5415 136.714V134.889L86.7652 137.029L83.3053 140.618ZM79.5415 124.48L87.0691 126.71V129.208L79.5415 126.978V124.48ZM79.5415 129.684L87.0691 131.914V134.412L79.5415 132.182V129.684Z" fill="#424242"/>
<path d="M94.9639 136.333L83.305 148.424L71.6461 136.333C71.4114 136.088 71.0929 135.952 70.759 135.952H63.2314V138.554H70.2395L82.4179 151.184C82.6624 151.438 82.984 151.565 83.305 151.565C83.626 151.565 83.9476 151.438 84.192 151.184L96.3704 138.554H103.378V135.952H95.8509C95.5171 135.952 95.1985 136.088 94.9639 136.333Z" fill="#424242"/>
<path d="M74.8673 189.015L74.1787 191.517L77.0328 192.361V195.47C77.0328 195.815 77.1645 196.146 77.4004 196.39L82.4187 201.594C82.6632 201.848 82.9848 201.976 83.3058 201.976C83.6268 201.976 83.9484 201.848 84.1928 201.594L89.2112 196.39C89.3092 196.288 89.3778 196.165 89.4385 196.037L91.7443 196.72L92.4328 194.218L89.5787 193.374V190.876L91.7443 191.517L92.4328 189.015L89.5787 188.169V185.671L91.7443 186.312L92.4328 183.81L89.5787 182.965V174.651H87.0696V182.22L79.542 179.99V174.651H77.0328V179.247L74.8673 178.606L74.1787 181.108L77.0328 181.952V184.45L74.8673 183.809L74.1787 186.311L77.0328 187.157V189.655L74.8673 189.015ZM83.3058 198.835L79.542 194.931V193.106L86.7657 195.246L83.3058 198.835ZM79.542 182.697L87.0696 184.927V187.425L79.542 185.195V182.697ZM79.542 187.901L87.0696 190.131V192.629L79.542 190.399V187.901Z" fill="#424242"/>
<path d="M94.9644 194.55L83.3055 206.642L71.6465 194.55C71.4119 194.306 71.0934 194.169 70.7595 194.169H63.2319V196.771H70.24L82.4184 209.402C82.6628 209.655 82.9845 209.783 83.3055 209.783C83.6265 209.783 83.9481 209.655 84.1925 209.402L96.3709 196.771H103.379V194.169H95.8514C95.5175 194.169 95.199 194.306 94.9644 194.55Z" fill="#424242"/>
<path d="M74.8673 247.233L74.1787 249.735L77.0328 250.579V253.688C77.0328 254.033 77.1645 254.364 77.4004 254.608L82.4187 259.812C82.6632 260.066 82.9848 260.193 83.3058 260.193C83.6268 260.193 83.9484 260.066 84.1928 259.812L89.2112 254.608C89.3092 254.506 89.3778 254.383 89.4385 254.255L91.7443 254.938L92.4328 252.436L89.5787 251.592V249.094L91.7443 249.735L92.4328 247.233L89.5787 246.387V243.889L91.7443 244.53L92.4328 242.028L89.5787 241.182V232.869H87.0696V240.438L79.542 238.208V232.869H77.0328V237.465L74.8673 236.823L74.1787 239.325L77.0328 240.17V242.668L74.8673 242.027L74.1787 244.529L77.0328 245.374V247.872L74.8673 247.233ZM83.3058 257.052L79.542 253.149V251.324L86.7657 253.464L83.3058 257.052ZM79.542 240.914L87.0696 243.144V245.642L79.542 243.412V240.914ZM79.542 246.119L87.0696 248.349V250.847L79.542 248.617V246.119Z" fill="#424242"/>
<path d="M94.9644 252.767L83.3055 264.859L71.6465 252.767C71.4119 252.523 71.0934 252.386 70.7595 252.386H63.2319V254.989H70.24L82.4184 267.619C82.6628 267.872 82.9845 268 83.3055 268C83.6265 268 83.9481 267.872 84.1925 267.619L96.3709 254.989H103.379V252.386H95.8514C95.5175 252.386 95.199 252.523 94.9644 252.767Z" fill="#424242"/>
<path d="M138.098 14.3635L137.41 16.8654L140.264 17.7098V20.8184C140.264 21.1634 140.395 21.4951 140.631 21.7384L145.65 26.943C145.894 27.1965 146.216 27.3242 146.537 27.3242C146.858 27.3242 147.179 27.1965 147.424 26.943L152.442 21.7384C152.54 21.6367 152.609 21.5135 152.669 21.3858L154.975 22.0688L155.664 19.5668L152.81 18.7225V16.2244L154.975 16.8654L155.664 14.3635L152.81 13.5179V11.0198L154.975 11.6608L155.664 9.1589L152.81 8.31327V0H150.301V7.56867L142.773 5.33867V0H140.264V4.59597L138.098 3.95428L137.41 6.45621L140.264 7.30056V9.79867L138.098 9.15762L137.41 11.6595L140.264 12.5052V15.0033L138.098 14.3635ZM146.537 24.1831L142.773 20.2797V18.4544L149.997 20.5948L146.537 24.1831ZM142.773 8.04516L150.301 10.2752V12.7733L142.773 10.5433V8.04516ZM142.773 13.2498L150.301 15.4798V17.9779L142.773 15.7479V13.2498Z" fill="#424242"/>
<path d="M158.196 19.8983L146.537 31.9899L134.878 19.8983C134.643 19.6537 134.325 19.5171 133.991 19.5171H126.463V22.1194H133.471L145.65 34.7497C145.894 35.0032 146.216 35.1309 146.537 35.1309C146.858 35.1309 147.18 35.0032 147.424 34.7497L159.602 22.1194H166.61V19.5171H159.083C158.749 19.5171 158.43 19.6537 158.196 19.8983Z" fill="#424242"/>
<path d="M138.098 72.5808L137.41 75.0827L140.264 75.9271V79.0357C140.264 79.3807 140.395 79.7124 140.631 79.9557L145.65 85.1603C145.894 85.4138 146.216 85.5415 146.537 85.5415C146.858 85.5415 147.179 85.4138 147.424 85.1603L152.442 79.9557C152.54 79.854 152.609 79.7308 152.669 79.6031L154.975 80.2861L155.664 77.7841L152.81 76.9398V74.4417L154.975 75.0827L155.664 72.5808L152.81 71.7352V69.2371L154.975 69.8781L155.664 67.3762L152.81 66.5306V58.2173H150.301V65.786L142.773 63.556V58.2173H140.264V62.8133L138.098 62.1716L137.41 64.6735L140.264 65.5178V68.016L138.098 67.3749L137.41 69.8768L140.264 70.7225V73.2206L138.098 72.5808ZM146.537 82.4004L142.773 78.497V76.6717L149.997 78.8121L146.537 82.4004ZM142.773 66.2624L150.301 68.4925V70.9906L142.773 68.7606V66.2624ZM142.773 71.4671L150.301 73.6971V76.1952L142.773 73.9652V71.4671Z" fill="#424242"/>
<path d="M158.196 78.1156L146.537 90.2071L134.878 78.1156C134.643 77.871 134.325 77.7344 133.991 77.7344H126.463V80.3367H133.471L145.65 92.967C145.894 93.2205 146.216 93.3482 146.537 93.3482C146.858 93.3482 147.18 93.2205 147.424 92.967L159.602 80.3367H166.61V77.7344H159.083C158.749 77.7344 158.43 77.871 158.196 78.1156Z" fill="#424242"/>
<path d="M138.098 130.798L137.41 133.3L140.264 134.144V137.253C140.264 137.598 140.395 137.93 140.631 138.173L145.65 143.378C145.894 143.631 146.216 143.759 146.537 143.759C146.858 143.759 147.179 143.631 147.424 143.378L152.442 138.173C152.54 138.071 152.609 137.948 152.669 137.82L154.975 138.503L155.664 136.001L152.81 135.157V132.659L154.975 133.3L155.664 130.798L152.81 129.952V127.454L154.975 128.095L155.664 125.593L152.81 124.748V116.435H150.301V124.003L142.773 121.773V116.435H140.264V121.031L138.098 120.389L137.41 122.891L140.264 123.735V126.233L138.098 125.592L137.41 128.094L140.264 128.94V131.438L138.098 130.798ZM146.537 140.618L142.773 136.714V134.889L149.997 137.029L146.537 140.618ZM142.773 124.48L150.301 126.71V129.208L142.773 126.978V124.48ZM142.773 129.684L150.301 131.914V134.412L142.773 132.182V129.684Z" fill="#424242"/>
<path d="M158.196 136.333L146.537 148.424L134.878 136.333C134.643 136.088 134.325 135.952 133.991 135.952H126.463V138.554H133.471L145.65 151.184C145.894 151.438 146.216 151.565 146.537 151.565C146.858 151.565 147.18 151.438 147.424 151.184L159.602 138.554H166.61V135.952H159.083C158.749 135.952 158.43 136.088 158.196 136.333Z" fill="#424242"/>
<path d="M138.098 189.015L137.41 191.517L140.264 192.361V195.47C140.264 195.815 140.395 196.146 140.631 196.39L145.65 201.594C145.894 201.848 146.216 201.976 146.537 201.976C146.858 201.976 147.179 201.848 147.424 201.594L152.442 196.39C152.54 196.288 152.609 196.165 152.669 196.037L154.975 196.72L155.664 194.218L152.81 193.374V190.876L154.975 191.517L155.664 189.015L152.81 188.169V185.671L154.975 186.312L155.664 183.81L152.81 182.965V174.651H150.301V182.22L142.773 179.99V174.651H140.264V179.247L138.098 178.606L137.41 181.108L140.264 181.952V184.45L138.098 183.809L137.41 186.311L140.264 187.157V189.655L138.098 189.015ZM146.537 198.835L142.773 194.931V193.106L149.997 195.246L146.537 198.835ZM142.773 182.697L150.301 184.927V187.425L142.773 185.195V182.697ZM142.773 187.901L150.301 190.131V192.629L142.773 190.399V187.901Z" fill="#424242"/>
<path d="M158.196 194.55L146.537 206.642L134.878 194.55C134.643 194.306 134.325 194.169 133.991 194.169H126.463V196.771H133.471L145.65 209.402C145.894 209.655 146.216 209.783 146.537 209.783C146.858 209.783 147.18 209.655 147.424 209.402L159.602 196.771H166.61V194.169H159.083C158.749 194.169 158.43 194.306 158.196 194.55Z" fill="#424242"/>
<path d="M138.098 247.233L137.41 249.735L140.264 250.579V253.688C140.264 254.033 140.395 254.364 140.631 254.608L145.65 259.812C145.894 260.066 146.216 260.193 146.537 260.193C146.858 260.193 147.179 260.066 147.424 259.812L152.442 254.608C152.54 254.506 152.609 254.383 152.669 254.255L154.975 254.938L155.664 252.436L152.81 251.592V249.094L154.975 249.735L155.664 247.233L152.81 246.387V243.889L154.975 244.53L155.664 242.028L152.81 241.182V232.869H150.301V240.438L142.773 238.208V232.869H140.264V237.465L138.098 236.823L137.41 239.325L140.264 240.17V242.668L138.098 242.027L137.41 244.529L140.264 245.374V247.872L138.098 247.233ZM146.537 257.052L142.773 253.149V251.324L149.997 253.464L146.537 257.052ZM142.773 240.914L150.301 243.144V245.642L142.773 243.412V240.914ZM142.773 246.119L150.301 248.349V250.847L142.773 248.617V246.119Z" fill="#EF7C00"/>
<path d="M158.196 252.767L146.537 264.859L134.878 252.767C134.643 252.523 134.325 252.386 133.991 252.386H126.463V254.989H133.471L145.65 267.619C145.894 267.872 146.216 268 146.537 268C146.858 268 147.18 267.872 147.424 267.619L159.602 254.989H166.61V252.386H159.083C158.749 252.386 158.43 252.523 158.196 252.767Z" fill="#424242"/>
<path d="M221.427 19.8983L209.768 31.9899L198.109 19.8983C197.875 19.6537 197.556 19.5171 197.222 19.5171H189.695V22.1194H196.703L208.881 34.7497C209.126 35.0032 209.447 35.1309 209.768 35.1309C210.089 35.1309 210.411 35.0032 210.655 34.7497L222.834 22.1194H229.842V19.5171H222.314C221.98 19.5171 221.662 19.6537 221.427 19.8983Z" fill="#424242"/>
<path d="M201.33 72.5808L200.642 75.0827L203.496 75.9271V79.0357C203.496 79.3807 203.627 79.7124 203.863 79.9557L208.882 85.1603C209.126 85.4138 209.448 85.5415 209.769 85.5415C210.09 85.5415 210.411 85.4138 210.656 85.1603L215.674 79.9557C215.772 79.854 215.841 79.7308 215.901 79.6031L218.207 80.2861L218.896 77.7841L216.042 76.9398V74.4417L218.207 75.0827L218.896 72.5808L216.042 71.7352V69.2371L218.207 69.8781L218.896 67.3762L216.042 66.5306V58.2173H213.532V65.786L206.005 63.556V58.2173H203.496V62.8133L201.33 62.1716L200.642 64.6735L203.496 65.5178V68.016L201.33 67.3749L200.642 69.8768L203.496 70.7225V73.2206L201.33 72.5808ZM209.769 82.4004L206.005 78.497V76.6717L213.229 78.8121L209.769 82.4004ZM206.005 66.2624L213.532 68.4925V70.9906L206.005 68.7606V66.2624ZM206.005 71.4671L213.532 73.6971V76.1952L206.005 73.9652V71.4671Z" fill="#424242"/>
<path d="M221.427 78.1156L209.768 90.2071L198.109 78.1156C197.875 77.871 197.556 77.7344 197.222 77.7344H189.695V80.3367H196.703L208.881 92.967C209.126 93.2205 209.447 93.3482 209.768 93.3482C210.089 93.3482 210.411 93.2205 210.655 92.967L222.834 80.3367H229.842V77.7344H222.314C221.98 77.7344 221.662 77.871 221.427 78.1156Z" fill="#424242"/>
<path d="M201.33 130.798L200.642 133.3L203.496 134.144V137.253C203.496 137.598 203.627 137.93 203.863 138.173L208.882 143.378C209.126 143.631 209.448 143.759 209.769 143.759C210.09 143.759 210.411 143.631 210.656 143.378L215.674 138.173C215.772 138.071 215.841 137.948 215.901 137.82L218.207 138.503L218.896 136.001L216.042 135.157V132.659L218.207 133.3L218.896 130.798L216.042 129.952V127.454L218.207 128.095L218.896 125.593L216.042 124.748V116.435H213.532V124.003L206.005 121.773V116.435H203.496V121.031L201.33 120.389L200.642 122.891L203.496 123.735V126.233L201.33 125.592L200.642 128.094L203.496 128.94V131.438L201.33 130.798ZM209.769 140.618L206.005 136.714V134.889L213.229 137.029L209.769 140.618ZM206.005 124.48L213.532 126.71V129.208L206.005 126.978V124.48ZM206.005 129.684L213.532 131.914V134.412L206.005 132.182V129.684Z" fill="#424242"/>
<path d="M221.427 136.333L209.768 148.424L198.109 136.333C197.875 136.088 197.556 135.952 197.222 135.952H189.695V138.554H196.703L208.881 151.184C209.126 151.438 209.447 151.565 209.768 151.565C210.089 151.565 210.411 151.438 210.655 151.184L222.834 138.554H229.842V135.952H222.314C221.98 135.952 221.662 136.088 221.427 136.333Z" fill="#424242"/>
<path d="M201.33 189.015L200.642 191.517L203.496 192.361V195.47C203.496 195.815 203.627 196.146 203.863 196.39L208.882 201.594C209.126 201.848 209.448 201.976 209.769 201.976C210.09 201.976 210.411 201.848 210.656 201.594L215.674 196.39C215.772 196.288 215.841 196.165 215.901 196.037L218.207 196.72L218.896 194.218L216.042 193.374V190.876L218.207 191.517L218.896 189.015L216.042 188.169V185.671L218.207 186.312L218.896 183.81L216.042 182.965V174.651H213.532V182.22L206.005 179.99V174.651H203.496V179.247L201.33 178.606L200.642 181.108L203.496 181.952V184.45L201.33 183.809L200.642 186.311L203.496 187.157V189.655L201.33 189.015ZM209.769 198.835L206.005 194.931V193.106L213.229 195.246L209.769 198.835ZM206.005 182.697L213.532 184.927V187.425L206.005 185.195V182.697ZM206.005 187.901L213.532 190.131V192.629L206.005 190.399V187.901Z" fill="#424242"/>
<path d="M221.427 194.55L209.768 206.642L198.109 194.55C197.875 194.306 197.556 194.169 197.222 194.169H189.695V196.771H196.703L208.881 209.402C209.126 209.655 209.447 209.783 209.768 209.783C210.089 209.783 210.411 209.655 210.655 209.402L222.834 196.771H229.842V194.169H222.314C221.98 194.169 221.662 194.306 221.427 194.55Z" fill="#424242"/>
<path d="M201.33 247.233L200.642 249.735L203.496 250.579V253.688C203.496 254.033 203.627 254.364 203.863 254.608L208.882 259.812C209.126 260.066 209.448 260.193 209.769 260.193C210.09 260.193 210.411 260.066 210.656 259.812L215.674 254.608C215.772 254.506 215.841 254.383 215.901 254.255L218.207 254.938L218.896 252.436L216.042 251.592V249.094L218.207 249.735L218.896 247.233L216.042 246.387V243.889L218.207 244.53L218.896 242.028L216.042 241.182V232.869H213.532V240.438L206.005 238.208V232.869H203.496V237.465L201.33 236.823L200.642 239.325L203.496 240.17V242.668L201.33 242.027L200.642 244.529L203.496 245.374V247.872L201.33 247.233ZM209.769 257.052L206.005 253.149V251.324L213.229 253.464L209.769 257.052ZM206.005 240.914L213.532 243.144V245.642L206.005 243.412V240.914ZM206.005 246.119L213.532 248.349V250.847L206.005 248.617V246.119Z" fill="#424242"/>
<path d="M221.427 252.767L209.768 264.859L198.109 252.767C197.875 252.523 197.556 252.386 197.222 252.386H189.695V254.989H196.703L208.881 267.619C209.126 267.872 209.447 268 209.768 268C210.089 268 210.411 267.872 210.655 267.619L222.834 254.989H229.842V252.386H222.314C221.98 252.386 221.662 252.523 221.427 252.767Z" fill="#424242"/>
<path d="M264.561 14.3635L263.873 16.8654L266.727 17.7098V20.8184C266.727 21.1634 266.858 21.4951 267.094 21.7384L272.113 26.943C272.357 27.1965 272.679 27.3242 273 27.3242C273.321 27.3242 273.642 27.1965 273.887 26.943L278.905 21.7384C279.003 21.6367 279.072 21.5135 279.132 21.3858L281.438 22.0688L282.127 19.5668L279.273 18.7225V16.2244L281.438 16.8654L282.127 14.3635L279.273 13.5179V11.0198L281.438 11.6608L282.127 9.1589L279.273 8.31327V0H276.763V7.56867L269.236 5.33867V0H266.727V4.59597L264.561 3.95428L263.873 6.45621L266.727 7.30056V9.79867L264.561 9.15762L263.873 11.6595L266.727 12.5052V15.0033L264.561 14.3635ZM273 24.1831L269.236 20.2797V18.4544L276.46 20.5948L273 24.1831ZM269.236 8.04516L276.763 10.2752V12.7733L269.236 10.5433V8.04516ZM269.236 13.2498L276.763 15.4798V17.9779L269.236 15.7479V13.2498Z" fill="#424242"/>
<path d="M284.659 19.8983L273 31.9899L261.341 19.8983C261.106 19.6537 260.788 19.5171 260.454 19.5171H252.926V22.1194H259.934L272.113 34.7497C272.357 35.0032 272.679 35.1309 273 35.1309C273.321 35.1309 273.642 35.0032 273.887 34.7497L286.065 22.1194H293.073V19.5171H285.546C285.212 19.5171 284.893 19.6537 284.659 19.8983Z" fill="#424242"/>
<path d="M264.561 72.5808L263.873 75.0827L266.727 75.9271V79.0357C266.727 79.3807 266.858 79.7124 267.094 79.9557L272.113 85.1603C272.357 85.4138 272.679 85.5415 273 85.5415C273.321 85.5415 273.642 85.4138 273.887 85.1603L278.905 79.9557C279.003 79.854 279.072 79.7308 279.132 79.6031L281.438 80.2861L282.127 77.7841L279.273 76.9398V74.4417L281.438 75.0827L282.127 72.5808L279.273 71.7352V69.2371L281.438 69.8781L282.127 67.3762L279.273 66.5306V58.2173H276.763V65.786L269.236 63.556V58.2173H266.727V62.8133L264.561 62.1716L263.873 64.6735L266.727 65.5178V68.016L264.561 67.3749L263.873 69.8768L266.727 70.7225V73.2206L264.561 72.5808ZM273 82.4004L269.236 78.497V76.6717L276.46 78.8121L273 82.4004ZM269.236 66.2624L276.763 68.4925V70.9906L269.236 68.7606V66.2624ZM269.236 71.4671L276.763 73.6971V76.1952L269.236 73.9652V71.4671Z" fill="#424242"/>
<path d="M284.659 78.1156L273 90.2071L261.341 78.1156C261.106 77.871 260.788 77.7344 260.454 77.7344H252.926V80.3367H259.934L272.113 92.967C272.357 93.2205 272.679 93.3482 273 93.3482C273.321 93.3482 273.642 93.2205 273.887 92.967L286.065 80.3367H293.073V77.7344H285.546C285.212 77.7344 284.893 77.871 284.659 78.1156Z" fill="#424242"/>
<path d="M264.561 130.798L263.873 133.3L266.727 134.144V137.253C266.727 137.598 266.858 137.93 267.094 138.173L272.113 143.378C272.357 143.631 272.679 143.759 273 143.759C273.321 143.759 273.642 143.631 273.887 143.378L278.905 138.173C279.003 138.071 279.072 137.948 279.132 137.82L281.438 138.503L282.127 136.001L279.273 135.157V132.659L281.438 133.3L282.127 130.798L279.273 129.952V127.454L281.438 128.095L282.127 125.593L279.273 124.748V116.435H276.763V124.003L269.236 121.773V116.435H266.727V121.031L264.561 120.389L263.873 122.891L266.727 123.735V126.233L264.561 125.592L263.873 128.094L266.727 128.94V131.438L264.561 130.798ZM273 140.618L269.236 136.714V134.889L276.46 137.029L273 140.618ZM269.236 124.48L276.763 126.71V129.208L269.236 126.978V124.48ZM269.236 129.684L276.763 131.914V134.412L269.236 132.182V129.684Z" fill="#424242"/>
<path d="M284.659 136.333L273 148.424L261.341 136.333C261.106 136.088 260.788 135.952 260.454 135.952H252.926V138.554H259.934L272.113 151.184C272.357 151.438 272.679 151.565 273 151.565C273.321 151.565 273.642 151.438 273.887 151.184L286.065 138.554H293.073V135.952H285.546C285.212 135.952 284.893 136.088 284.659 136.333Z" fill="#424242"/>
<path d="M264.561 189.015L263.873 191.517L266.727 192.361V195.47C266.727 195.815 266.858 196.146 267.094 196.39L272.113 201.594C272.357 201.848 272.679 201.976 273 201.976C273.321 201.976 273.642 201.848 273.887 201.594L278.905 196.39C279.003 196.288 279.072 196.165 279.132 196.037L281.438 196.72L282.127 194.218L279.273 193.374V190.876L281.438 191.517L282.127 189.015L279.273 188.169V185.671L281.438 186.312L282.127 183.81L279.273 182.965V174.651H276.763V182.22L269.236 179.99V174.651H266.727V179.247L264.561 178.606L263.873 181.108L266.727 181.952V184.45L264.561 183.809L263.873 186.311L266.727 187.157V189.655L264.561 189.015ZM273 198.835L269.236 194.931V193.106L276.46 195.246L273 198.835ZM269.236 182.697L276.763 184.927V187.425L269.236 185.195V182.697ZM269.236 187.901L276.763 190.131V192.629L269.236 190.399V187.901Z" fill="#424242"/>
<path d="M284.659 194.55L273 206.642L261.341 194.55C261.106 194.306 260.788 194.169 260.454 194.169H252.926V196.771H259.934L272.113 209.402C272.357 209.655 272.679 209.783 273 209.783C273.321 209.783 273.642 209.655 273.887 209.402L286.065 196.771H293.073V194.169H285.546C285.212 194.169 284.893 194.306 284.659 194.55Z" fill="#424242"/>
<path d="M264.561 247.233L263.873 249.735L266.727 250.579V253.688C266.727 254.033 266.858 254.364 267.094 254.608L272.113 259.812C272.357 260.066 272.679 260.193 273 260.193C273.321 260.193 273.642 260.066 273.887 259.812L278.905 254.608C279.003 254.506 279.072 254.383 279.132 254.255L281.438 254.938L282.127 252.436L279.273 251.592V249.094L281.438 249.735L282.127 247.233L279.273 246.387V243.889L281.438 244.53L282.127 242.028L279.273 241.182V232.869H276.763V240.438L269.236 238.208V232.869H266.727V237.465L264.561 236.823L263.873 239.325L266.727 240.17V242.668L264.561 242.027L263.873 244.529L266.727 245.374V247.872L264.561 247.233ZM273 257.052L269.236 253.149V251.324L276.46 253.464L273 257.052ZM269.236 240.914L276.763 243.144V245.642L269.236 243.412V240.914ZM269.236 246.119L276.763 248.349V250.847L269.236 248.617V246.119Z" fill="#424242"/>
<path d="M284.659 252.767L273 264.859L261.341 252.767C261.106 252.523 260.788 252.386 260.454 252.386H252.926V254.989H259.934L272.113 267.619C272.357 267.872 272.679 268 273 268C273.321 268 273.642 267.872 273.887 267.619L286.065 254.989H293.073V252.386H285.546C285.212 252.386 284.893 252.523 284.659 252.767Z" fill="#424242"/>
<path d="M327.793 14.3635L327.104 16.8654L329.959 17.7098V20.8184C329.959 21.1634 330.09 21.4951 330.326 21.7384L335.345 26.943C335.589 27.1965 335.911 27.3242 336.232 27.3242C336.553 27.3242 336.874 27.1965 337.119 26.943L342.137 21.7384C342.235 21.6367 342.304 21.5135 342.364 21.3858L344.67 22.0688L345.359 19.5668L342.505 18.7225V16.2244L344.67 16.8654L345.359 14.3635L342.505 13.5179V11.0198L344.67 11.6608L345.359 9.1589L342.505 8.31327V0H339.995V7.56867L332.468 5.33867V0H329.959V4.59597L327.793 3.95428L327.104 6.45621L329.959 7.30056V9.79867L327.793 9.15762L327.104 11.6595L329.959 12.5052V15.0033L327.793 14.3635ZM336.232 24.1831L332.468 20.2797V18.4544L339.691 20.5948L336.232 24.1831ZM332.468 8.04516L339.995 10.2752V12.7733L332.468 10.5433V8.04516ZM332.468 13.2498L339.995 15.4798V17.9779L332.468 15.7479V13.2498Z" fill="#424242"/>
<path d="M347.891 19.8983L336.232 31.9899L324.573 19.8983C324.338 19.6537 324.02 19.5171 323.686 19.5171H316.158V22.1194H323.166L335.345 34.7497C335.589 35.0032 335.911 35.1309 336.232 35.1309C336.553 35.1309 336.874 35.0032 337.119 34.7497L349.297 22.1194H356.305V19.5171H348.778C348.444 19.5171 348.125 19.6537 347.891 19.8983Z" fill="#424242"/>
<path d="M327.793 72.5808L327.104 75.0827L329.959 75.9271V79.0357C329.959 79.3807 330.09 79.7124 330.326 79.9557L335.345 85.1603C335.589 85.4138 335.911 85.5415 336.232 85.5415C336.553 85.5415 336.874 85.4138 337.119 85.1603L342.137 79.9557C342.235 79.854 342.304 79.7308 342.364 79.6031L344.67 80.2861L345.359 77.7841L342.505 76.9398V74.4417L344.67 75.0827L345.359 72.5808L342.505 71.7352V69.2371L344.67 69.8781L345.359 67.3762L342.505 66.5306V58.2173H339.995V65.786L332.468 63.556V58.2173H329.959V62.8133L327.793 62.1716L327.104 64.6735L329.959 65.5178V68.016L327.793 67.3749L327.104 69.8768L329.959 70.7225V73.2206L327.793 72.5808ZM336.232 82.4004L332.468 78.497V76.6717L339.691 78.8121L336.232 82.4004ZM332.468 66.2624L339.995 68.4925V70.9906L332.468 68.7606V66.2624ZM332.468 71.4671L339.995 73.6971V76.1952L332.468 73.9652V71.4671Z" fill="#424242"/>
<path d="M347.891 78.1156L336.232 90.2071L324.573 78.1156C324.338 77.871 324.02 77.7344 323.686 77.7344H316.158V80.3367H323.166L335.345 92.967C335.589 93.2205 335.911 93.3482 336.232 93.3482C336.553 93.3482 336.874 93.2205 337.119 92.967L349.297 80.3367H356.305V77.7344H348.778C348.444 77.7344 348.125 77.871 347.891 78.1156Z" fill="#424242"/>
<path d="M327.793 130.798L327.104 133.3L329.959 134.144V137.253C329.959 137.598 330.09 137.93 330.326 138.173L335.345 143.378C335.589 143.631 335.911 143.759 336.232 143.759C336.553 143.759 336.874 143.631 337.119 143.378L342.137 138.173C342.235 138.071 342.304 137.948 342.364 137.82L344.67 138.503L345.359 136.001L342.505 135.157V132.659L344.67 133.3L345.359 130.798L342.505 129.952V127.454L344.67 128.095L345.359 125.593L342.505 124.748V116.435H339.995V124.003L332.468 121.773V116.435H329.959V121.031L327.793 120.389L327.104 122.891L329.959 123.735V126.233L327.793 125.592L327.104 128.094L329.959 128.94V131.438L327.793 130.798ZM336.232 140.618L332.468 136.714V134.889L339.691 137.029L336.232 140.618ZM332.468 124.48L339.995 126.71V129.208L332.468 126.978V124.48ZM332.468 129.684L339.995 131.914V134.412L332.468 132.182V129.684Z" fill="#EF7C00"/>
<path d="M347.891 136.333L336.232 148.424L324.573 136.333C324.338 136.088 324.02 135.952 323.686 135.952H316.158V138.554H323.166L335.345 151.184C335.589 151.438 335.911 151.565 336.232 151.565C336.553 151.565 336.874 151.438 337.119 151.184L349.297 138.554H356.305V135.952H348.778C348.444 135.952 348.125 136.088 347.891 136.333Z" fill="#424242"/>
<path d="M327.793 189.015L327.104 191.517L329.959 192.361V195.47C329.959 195.815 330.09 196.146 330.326 196.39L335.345 201.594C335.589 201.848 335.911 201.976 336.232 201.976C336.553 201.976 336.874 201.848 337.119 201.594L342.137 196.39C342.235 196.288 342.304 196.165 342.364 196.037L344.67 196.72L345.359 194.218L342.505 193.374V190.876L344.67 191.517L345.359 189.015L342.505 188.169V185.671L344.67 186.312L345.359 183.81L342.505 182.965V174.651H339.995V182.22L332.468 179.99V174.651H329.959V179.247L327.793 178.606L327.104 181.108L329.959 181.952V184.45L327.793 183.809L327.104 186.311L329.959 187.157V189.655L327.793 189.015ZM336.232 198.835L332.468 194.931V193.106L339.691 195.246L336.232 198.835ZM332.468 182.697L339.995 184.927V187.425L332.468 185.195V182.697ZM332.468 187.901L339.995 190.131V192.629L332.468 190.399V187.901Z" fill="#424242"/>
<path d="M347.891 194.55L336.232 206.642L324.573 194.55C324.338 194.306 324.02 194.169 323.686 194.169H316.158V196.771H323.166L335.345 209.402C335.589 209.655 335.911 209.783 336.232 209.783C336.553 209.783 336.874 209.655 337.119 209.402L349.297 196.771H356.305V194.169H348.778C348.444 194.169 348.125 194.306 347.891 194.55Z" fill="#424242"/>
<path d="M327.793 247.233L327.104 249.735L329.959 250.579V253.688C329.959 254.033 330.09 254.364 330.326 254.608L335.345 259.812C335.589 260.066 335.911 260.193 336.232 260.193C336.553 260.193 336.874 260.066 337.119 259.812L342.137 254.608C342.235 254.506 342.304 254.383 342.364 254.255L344.67 254.938L345.359 252.436L342.505 251.592V249.094L344.67 249.735L345.359 247.233L342.505 246.387V243.889L344.67 244.53L345.359 242.028L342.505 241.182V232.869H339.995V240.438L332.468 238.208V232.869H329.959V237.465L327.793 236.823L327.104 239.325L329.959 240.17V242.668L327.793 242.027L327.104 244.529L329.959 245.374V247.872L327.793 247.233ZM336.232 257.052L332.468 253.149V251.324L339.691 253.464L336.232 257.052ZM332.468 240.914L339.995 243.144V245.642L332.468 243.412V240.914ZM332.468 246.119L339.995 248.349V250.847L332.468 248.617V246.119Z" fill="#424242"/>
<path d="M347.891 252.767L336.232 264.859L324.573 252.767C324.338 252.523 324.02 252.386 323.686 252.386H316.158V254.989H323.166L335.345 267.619C335.589 267.872 335.911 268 336.232 268C336.553 268 336.874 267.872 337.119 267.619L349.297 254.989H356.305V252.386H348.778C348.444 252.386 348.125 252.523 347.891 252.767Z" fill="#424242"/>
<path d="M391.025 14.3635L390.336 16.8654L393.191 17.7098V20.8184C393.191 21.1634 393.322 21.4951 393.558 21.7384L398.576 26.943C398.821 27.1965 399.142 27.3242 399.463 27.3242C399.784 27.3242 400.106 27.1965 400.351 26.943L405.369 21.7384C405.467 21.6367 405.536 21.5135 405.596 21.3858L407.902 22.0688L408.591 19.5668L405.736 18.7225V16.2244L407.902 16.8654L408.591 14.3635L405.736 13.5179V11.0198L407.902 11.6608L408.591 9.1589L405.736 8.31327V0H403.227V7.56867L395.7 5.33867V0H393.191V4.59597L391.025 3.95428L390.336 6.45621L393.191 7.30056V9.79867L391.025 9.15762L390.336 11.6595L393.191 12.5052V15.0033L391.025 14.3635ZM399.463 24.1831L395.7 20.2797V18.4544L402.923 20.5948L399.463 24.1831ZM395.7 8.04516L403.227 10.2752V12.7733L395.7 10.5433V8.04516ZM395.7 13.2498L403.227 15.4798V17.9779L395.7 15.7479V13.2498Z" fill="#424242"/>
<path d="M411.122 19.8983L399.463 31.9899L387.804 19.8983C387.57 19.6537 387.251 19.5171 386.917 19.5171H379.39V22.1194H386.398L398.576 34.7497C398.821 35.0032 399.142 35.1309 399.463 35.1309C399.784 35.1309 400.106 35.0032 400.35 34.7497L412.529 22.1194H419.537V19.5171H412.009C411.675 19.5171 411.357 19.6537 411.122 19.8983Z" fill="#424242"/>
<path d="M391.025 72.5808L390.336 75.0827L393.191 75.9271V79.0357C393.191 79.3807 393.322 79.7124 393.558 79.9557L398.576 85.1603C398.821 85.4138 399.142 85.5415 399.463 85.5415C399.784 85.5415 400.106 85.4138 400.351 85.1603L405.369 79.9557C405.467 79.854 405.536 79.7308 405.596 79.6031L407.902 80.2861L408.591 77.7841L405.736 76.9398V74.4417L407.902 75.0827L408.591 72.5808L405.736 71.7352V69.2371L407.902 69.8781L408.591 67.3762L405.736 66.5306V58.2173H403.227V65.786L395.7 63.556V58.2173H393.191V62.8133L391.025 62.1716L390.336 64.6735L393.191 65.5178V68.016L391.025 67.3749L390.336 69.8768L393.191 70.7225V73.2206L391.025 72.5808ZM399.463 82.4004L395.7 78.497V76.6717L402.923 78.8121L399.463 82.4004ZM395.7 66.2624L403.227 68.4925V70.9906L395.7 68.7606V66.2624ZM395.7 71.4671L403.227 73.6971V76.1952L395.7 73.9652V71.4671Z" fill="#424242"/>
<path d="M411.122 78.1156L399.463 90.2071L387.804 78.1156C387.57 77.871 387.251 77.7344 386.917 77.7344H379.39V80.3367H386.398L398.576 92.967C398.821 93.2205 399.142 93.3482 399.463 93.3482C399.784 93.3482 400.106 93.2205 400.35 92.967L412.529 80.3367H419.537V77.7344H412.009C411.675 77.7344 411.357 77.871 411.122 78.1156Z" fill="#424242"/>
<path d="M391.025 130.798L390.336 133.3L393.191 134.144V137.253C393.191 137.598 393.322 137.93 393.558 138.173L398.576 143.378C398.821 143.631 399.142 143.759 399.463 143.759C399.784 143.759 400.106 143.631 400.351 143.378L405.369 138.173C405.467 138.071 405.536 137.948 405.596 137.82L407.902 138.503L408.591 136.001L405.736 135.157V132.659L407.902 133.3L408.591 130.798L405.736 129.952V127.454L407.902 128.095L408.591 125.593L405.736 124.748V116.435H403.227V124.003L395.7 121.773V116.435H393.191V121.031L391.025 120.389L390.336 122.891L393.191 123.735V126.233L391.025 125.592L390.336 128.094L393.191 128.94V131.438L391.025 130.798ZM399.463 140.618L395.7 136.714V134.889L402.923 137.029L399.463 140.618ZM395.7 124.48L403.227 126.71V129.208L395.7 126.978V124.48ZM395.7 129.684L403.227 131.914V134.412L395.7 132.182V129.684Z" fill="#424242"/>
<path d="M411.122 136.333L399.463 148.424L387.804 136.333C387.57 136.088 387.251 135.952 386.917 135.952H379.39V138.554H386.398L398.576 151.184C398.821 151.438 399.142 151.565 399.463 151.565C399.784 151.565 400.106 151.438 400.35 151.184L412.529 138.554H419.537V135.952H412.009C411.675 135.952 411.357 136.088 411.122 136.333Z" fill="#424242"/>
<path d="M391.025 189.015L390.336 191.517L393.191 192.361V195.47C393.191 195.815 393.322 196.146 393.558 196.39L398.576 201.594C398.821 201.848 399.142 201.976 399.463 201.976C399.784 201.976 400.106 201.848 400.351 201.594L405.369 196.39C405.467 196.288 405.536 196.165 405.596 196.037L407.902 196.72L408.591 194.218L405.736 193.374V190.876L407.902 191.517L408.591 189.015L405.736 188.169V185.671L407.902 186.312L408.591 183.81L405.736 182.965V174.651H403.227V182.22L395.7 179.99V174.651H393.191V179.247L391.025 178.606L390.336 181.108L393.191 181.952V184.45L391.025 183.809L390.336 186.311L393.191 187.157V189.655L391.025 189.015ZM399.463 198.835L395.7 194.931V193.106L402.923 195.246L399.463 198.835ZM395.7 182.697L403.227 184.927V187.425L395.7 185.195V182.697ZM395.7 187.901L403.227 190.131V192.629L395.7 190.399V187.901Z" fill="#424242"/>
<path d="M411.122 194.55L399.463 206.642L387.804 194.55C387.57 194.306 387.251 194.169 386.917 194.169H379.39V196.771H386.398L398.576 209.402C398.821 209.655 399.142 209.783 399.463 209.783C399.784 209.783 400.106 209.655 400.35 209.402L412.529 196.771H419.537V194.169H412.009C411.675 194.169 411.357 194.306 411.122 194.55Z" fill="#424242"/>
<path d="M391.025 247.233L390.336 249.735L393.191 250.579V253.688C393.191 254.033 393.322 254.364 393.558 254.608L398.576 259.812C398.821 260.066 399.142 260.193 399.463 260.193C399.784 260.193 400.106 260.066 400.351 259.812L405.369 254.608C405.467 254.506 405.536 254.383 405.596 254.255L407.902 254.938L408.591 252.436L405.736 251.592V249.094L407.902 249.735L408.591 247.233L405.736 246.387V243.889L407.902 244.53L408.591 242.028L405.736 241.182V232.869H403.227V240.438L395.7 238.208V232.869H393.191V237.465L391.025 236.823L390.336 239.325L393.191 240.17V242.668L391.025 242.027L390.336 244.529L393.191 245.374V247.872L391.025 247.233ZM399.463 257.052L395.7 253.149V251.324L402.923 253.464L399.463 257.052ZM395.7 240.914L403.227 243.144V245.642L395.7 243.412V240.914ZM395.7 246.119L403.227 248.349V250.847L395.7 248.617V246.119Z" fill="#424242"/>
<path d="M411.122 252.767L399.463 264.859L387.804 252.767C387.57 252.523 387.251 252.386 386.917 252.386H379.39V254.989H386.398L398.576 267.619C398.821 267.872 399.142 268 399.463 268C399.784 268 400.106 267.872 400.35 267.619L412.529 254.989H419.537V252.386H412.009C411.675 252.386 411.357 252.523 411.122 252.767Z" fill="#424242"/>
<path d="M454.256 14.3635L453.567 16.8654L456.421 17.7098V20.8184C456.421 21.1634 456.553 21.4951 456.789 21.7384L461.807 26.943C462.052 27.1965 462.373 27.3242 462.694 27.3242C463.015 27.3242 463.337 27.1965 463.581 26.943L468.6 21.7384C468.698 21.6367 468.766 21.5135 468.827 21.3858L471.133 22.0688L471.822 19.5668L468.967 18.7225V16.2244L471.133 16.8654L471.822 14.3635L468.967 13.5179V11.0198L471.133 11.6608L471.822 9.1589L468.967 8.31327V0H466.458V7.56867L458.931 5.33867V0H456.421V4.59597L454.256 3.95428L453.567 6.45621L456.421 7.30056V9.79867L454.256 9.15762L453.567 11.6595L456.421 12.5052V15.0033L454.256 14.3635ZM462.694 24.1831L458.931 20.2797V18.4544L466.154 20.5948L462.694 24.1831ZM458.931 8.04516L466.458 10.2752V12.7733L458.931 10.5433V8.04516ZM458.931 13.2498L466.458 15.4798V17.9779L458.931 15.7479V13.2498Z" fill="#424242"/>
<path d="M474.354 19.8983L462.695 31.9899L451.036 19.8983C450.801 19.6537 450.483 19.5171 450.149 19.5171H442.621V22.1194H449.629L461.808 34.7497C462.052 35.0032 462.374 35.1309 462.695 35.1309C463.016 35.1309 463.337 35.0032 463.582 34.7497L475.76 22.1194H482.768V19.5171H475.241C474.907 19.5171 474.588 19.6537 474.354 19.8983Z" fill="#424242"/>
<path d="M454.256 72.5808L453.567 75.0827L456.421 75.9271V79.0357C456.421 79.3807 456.553 79.7124 456.789 79.9557L461.807 85.1603C462.052 85.4138 462.373 85.5415 462.694 85.5415C463.015 85.5415 463.337 85.4138 463.581 85.1603L468.6 79.9557C468.698 79.854 468.766 79.7308 468.827 79.6031L471.133 80.2861L471.822 77.7841L468.967 76.9398V74.4417L471.133 75.0827L471.822 72.5808L468.967 71.7352V69.2371L471.133 69.8781L471.822 67.3762L468.967 66.5306V58.2173H466.458V65.786L458.931 63.556V58.2173H456.421V62.8133L454.256 62.1716L453.567 64.6735L456.421 65.5178V68.016L454.256 67.3749L453.567 69.8768L456.421 70.7225V73.2206L454.256 72.5808ZM462.694 82.4004L458.931 78.497V76.6717L466.154 78.8121L462.694 82.4004ZM458.931 66.2624L466.458 68.4925V70.9906L458.931 68.7606V66.2624ZM458.931 71.4671L466.458 73.6971V76.1952L458.931 73.9652V71.4671Z" fill="#424242"/>
<path d="M474.354 78.1156L462.695 90.2071L451.036 78.1156C450.801 77.871 450.483 77.7344 450.149 77.7344H442.621V80.3367H449.629L461.808 92.967C462.052 93.2205 462.374 93.3482 462.695 93.3482C463.016 93.3482 463.337 93.2205 463.582 92.967L475.76 80.3367H482.768V77.7344H475.241C474.907 77.7344 474.588 77.871 474.354 78.1156Z" fill="#424242"/>
<path d="M454.256 130.798L453.567 133.3L456.421 134.144V137.253C456.421 137.598 456.553 137.93 456.789 138.173L461.807 143.378C462.052 143.631 462.373 143.759 462.694 143.759C463.015 143.759 463.337 143.631 463.581 143.378L468.6 138.173C468.698 138.071 468.766 137.948 468.827 137.82L471.133 138.503L471.822 136.001L468.967 135.157V132.659L471.133 133.3L471.822 130.798L468.967 129.952V127.454L471.133 128.095L471.822 125.593L468.967 124.748V116.435H466.458V124.003L458.931 121.773V116.435H456.421V121.031L454.256 120.389L453.567 122.891L456.421 123.735V126.233L454.256 125.592L453.567 128.094L456.421 128.94V131.438L454.256 130.798ZM462.694 140.618L458.931 136.714V134.889L466.154 137.029L462.694 140.618ZM458.931 124.48L466.458 126.71V129.208L458.931 126.978V124.48ZM458.931 129.684L466.458 131.914V134.412L458.931 132.182V129.684Z" fill="#424242"/>
<path d="M474.354 136.333L462.695 148.424L451.036 136.333C450.801 136.088 450.483 135.952 450.149 135.952H442.621V138.554H449.629L461.808 151.184C462.052 151.438 462.374 151.565 462.695 151.565C463.016 151.565 463.337 151.438 463.582 151.184L475.76 138.554H482.768V135.952H475.241C474.907 135.952 474.588 136.088 474.354 136.333Z" fill="#424242"/>
<path d="M454.256 185L453.567 187.502L456.421 188.347V191.455C456.421 191.8 456.553 192.132 456.789 192.375L461.807 197.58C462.052 197.833 462.373 197.961 462.694 197.961C463.015 197.961 463.337 197.833 463.581 197.58L468.6 192.375C468.698 192.273 468.766 192.15 468.827 192.023L471.133 192.705L471.822 190.204L468.967 189.359V186.861L471.133 187.502L471.822 185L468.967 184.155V181.656L471.133 182.298L471.822 179.796L468.967 178.95V170.637H466.458V178.205L458.931 175.975V170.637H456.421V175.233L454.256 174.591L453.567 177.093L456.421 177.937V180.435L454.256 179.794L453.567 182.296L456.421 183.142V185.64L454.256 185ZM462.694 194.82L458.931 190.916V189.091L466.154 191.232L462.694 194.82ZM458.931 178.682L466.458 180.912V183.41L458.931 181.18V178.682ZM458.931 183.886L466.458 186.116V188.615L458.931 186.385V183.886Z" fill="#EF7C00"/>
<path d="M474.354 194.551L462.695 206.642L451.036 194.551C450.801 194.306 450.483 194.169 450.149 194.169H442.621V196.772H449.629L461.808 209.402C462.052 209.656 462.374 209.783 462.695 209.783C463.016 209.783 463.337 209.656 463.582 209.402L475.76 196.772H482.768V194.169H475.241C474.907 194.169 474.588 194.306 474.354 194.551Z" fill="#424242"/>
<path d="M454.256 247.233L453.567 249.735L456.421 250.579V253.688C456.421 254.033 456.553 254.364 456.789 254.608L461.807 259.812C462.052 260.066 462.373 260.193 462.694 260.193C463.015 260.193 463.337 260.066 463.581 259.812L468.6 254.608C468.698 254.506 468.766 254.383 468.827 254.255L471.133 254.938L471.822 252.436L468.967 251.592V249.094L471.133 249.735L471.822 247.233L468.967 246.387V243.889L471.133 244.53L471.822 242.028L468.967 241.182V232.869H466.458V240.438L458.931 238.208V232.869H456.421V237.465L454.256 236.823L453.567 239.325L456.421 240.17V242.668L454.256 242.027L453.567 244.529L456.421 245.374V247.872L454.256 247.233ZM462.694 257.052L458.931 253.149V251.324L466.154 253.464L462.694 257.052ZM458.931 240.914L466.458 243.144V245.642L458.931 243.412V240.914ZM458.931 246.119L466.458 248.349V250.847L458.931 248.617V246.119Z" fill="#424242"/>
<path d="M474.354 252.767L462.695 264.859L451.036 252.767C450.801 252.523 450.483 252.386 450.149 252.386H442.621V254.989H449.629L461.808 267.619C462.052 267.872 462.374 268 462.695 268C463.016 268 463.337 267.872 463.582 267.619L475.76 254.989H482.768V252.386H475.241C474.907 252.386 474.588 252.523 474.354 252.767Z" fill="#424242"/>
<path d="M517.488 14.3635L516.799 16.8654L519.653 17.7098V20.8184C519.653 21.1634 519.785 21.4951 520.021 21.7384L525.039 26.943C525.284 27.1965 525.605 27.3242 525.926 27.3242C526.247 27.3242 526.569 27.1965 526.813 26.943L531.832 21.7384C531.93 21.6367 531.998 21.5135 532.059 21.3858L534.365 22.0688L535.053 19.5668L532.199 18.7225V16.2244L534.365 16.8654L535.053 14.3635L532.199 13.5179V11.0198L534.365 11.6608L535.053 9.1589L532.199 8.31327V0H529.69V7.56867L522.163 5.33867V0H519.653V4.59597L517.488 3.95428L516.799 6.45621L519.653 7.30056V9.79867L517.488 9.15762L516.799 11.6595L519.653 12.5052V15.0033L517.488 14.3635ZM525.926 24.1831L522.163 20.2797V18.4544L529.386 20.5948L525.926 24.1831ZM522.163 8.04516L529.69 10.2752V12.7733L522.163 10.5433V8.04516ZM522.163 13.2498L529.69 15.4798V17.9779L522.163 15.7479V13.2498Z" fill="#424242"/>
<path d="M537.585 19.8983L525.927 31.9899L514.268 19.8983C514.033 19.6537 513.714 19.5171 513.381 19.5171H505.853V22.1194H512.861L525.04 34.7497C525.284 35.0032 525.606 35.1309 525.927 35.1309C526.248 35.1309 526.569 35.0032 526.814 34.7497L538.992 22.1194H546V19.5171H538.473C538.139 19.5171 537.82 19.6537 537.585 19.8983Z" fill="#424242"/>
<path d="M517.488 72.5808L516.799 75.0827L519.653 75.9271V79.0357C519.653 79.3807 519.785 79.7124 520.021 79.9557L525.039 85.1603C525.284 85.4138 525.605 85.5415 525.926 85.5415C526.247 85.5415 526.569 85.4138 526.813 85.1603L531.832 79.9557C531.93 79.854 531.998 79.7308 532.059 79.6031L534.365 80.2861L535.053 77.7841L532.199 76.9398V74.4417L534.365 75.0827L535.053 72.5808L532.199 71.7352V69.2371L534.365 69.8781L535.053 67.3762L532.199 66.5306V58.2173H529.69V65.786L522.163 63.556V58.2173H519.653V62.8133L517.488 62.1716L516.799 64.6735L519.653 65.5178V68.016L517.488 67.3749L516.799 69.8768L519.653 70.7225V73.2206L517.488 72.5808ZM525.926 82.4004L522.163 78.497V76.6717L529.386 78.8121L525.926 82.4004ZM522.163 66.2624L529.69 68.4925V70.9906L522.163 68.7606V66.2624ZM522.163 71.4671L529.69 73.6971V76.1952L522.163 73.9652V71.4671Z" fill="#424242"/>
<path d="M537.585 78.1156L525.927 90.2071L514.268 78.1156C514.033 77.871 513.714 77.7344 513.381 77.7344H505.853V80.3367H512.861L525.04 92.967C525.284 93.2205 525.606 93.3482 525.927 93.3482C526.248 93.3482 526.569 93.2205 526.814 92.967L538.992 80.3367H546V77.7344H538.473C538.139 77.7344 537.82 77.871 537.585 78.1156Z" fill="#424242"/>
<path d="M517.488 130.798L516.799 133.3L519.653 134.144V137.253C519.653 137.598 519.785 137.93 520.021 138.173L525.039 143.378C525.284 143.631 525.605 143.759 525.926 143.759C526.247 143.759 526.569 143.631 526.813 143.378L531.832 138.173C531.93 138.071 531.998 137.948 532.059 137.82L534.365 138.503L535.053 136.001L532.199 135.157V132.659L534.365 133.3L535.053 130.798L532.199 129.952V127.454L534.365 128.095L535.053 125.593L532.199 124.748V116.435H529.69V124.003L522.163 121.773V116.435H519.653V121.031L517.488 120.389L516.799 122.891L519.653 123.735V126.233L517.488 125.592L516.799 128.094L519.653 128.94V131.438L517.488 130.798ZM525.926 140.618L522.163 136.714V134.889L529.386 137.029L525.926 140.618ZM522.163 124.48L529.69 126.71V129.208L522.163 126.978V124.48ZM522.163 129.684L529.69 131.914V134.412L522.163 132.182V129.684Z" fill="#424242"/>
<path d="M537.585 136.333L525.927 148.424L514.268 136.333C514.033 136.088 513.714 135.952 513.381 135.952H505.853V138.554H512.861L525.04 151.184C525.284 151.438 525.606 151.565 525.927 151.565C526.248 151.565 526.569 151.438 526.814 151.184L538.992 138.554H546V135.952H538.473C538.139 135.952 537.82 136.088 537.585 136.333Z" fill="#424242"/>
<path d="M517.488 189.015L516.8 191.517L519.654 192.361V195.47C519.654 195.815 519.786 196.146 520.021 196.39L525.04 201.594C525.284 201.848 525.606 201.976 525.927 201.976C526.248 201.976 526.569 201.848 526.814 201.594L531.832 196.39C531.93 196.288 531.999 196.165 532.06 196.037L534.365 196.72L535.054 194.218L532.2 193.374V190.876L534.365 191.517L535.054 189.015L532.2 188.169V185.671L534.365 186.312L535.054 183.81L532.2 182.965V174.651H529.691V182.22L522.163 179.99V174.651H519.654V179.247L517.488 178.606L516.8 181.108L519.654 181.952V184.45L517.488 183.809L516.8 186.311L519.654 187.157V189.655L517.488 189.015ZM525.927 198.835L522.163 194.931V193.106L529.387 195.246L525.927 198.835ZM522.163 182.697L529.691 184.927V187.425L522.163 185.195V182.697ZM522.163 187.901L529.691 190.131V192.629L522.163 190.399V187.901Z" fill="#424242"/>
<path d="M537.585 194.55L525.927 206.642L514.268 194.55C514.033 194.306 513.714 194.169 513.381 194.169H505.853V196.771H512.861L525.04 209.402C525.284 209.655 525.606 209.783 525.927 209.783C526.248 209.783 526.569 209.655 526.814 209.402L538.992 196.771H546V194.169H538.473C538.139 194.169 537.82 194.306 537.585 194.55Z" fill="#424242"/>
<path d="M517.488 247.233L516.8 249.735L519.654 250.579V253.688C519.654 254.033 519.786 254.364 520.021 254.608L525.04 259.812C525.284 260.066 525.606 260.193 525.927 260.193C526.248 260.193 526.569 260.066 526.814 259.812L531.832 254.608C531.93 254.506 531.999 254.383 532.06 254.255L534.365 254.938L535.054 252.436L532.2 251.592V249.094L534.365 249.735L535.054 247.233L532.2 246.387V243.889L534.365 244.53L535.054 242.028L532.2 241.182V232.869H529.691V240.438L522.163 238.208V232.869H519.654V237.465L517.488 236.823L516.8 239.325L519.654 240.17V242.668L517.488 242.027L516.8 244.529L519.654 245.374V247.872L517.488 247.233ZM525.927 257.052L522.163 253.149V251.324L529.387 253.464L525.927 257.052ZM522.163 240.914L529.691 243.144V245.642L522.163 243.412V240.914ZM522.163 246.119L529.691 248.349V250.847L522.163 248.617V246.119Z" fill="#424242"/>
<path d="M537.585 252.767L525.927 264.859L514.268 252.767C514.033 252.523 513.714 252.386 513.381 252.386H505.853V254.989H512.861L525.04 267.619C525.284 267.872 525.606 268 525.927 268C526.248 268 526.569 267.872 526.814 267.619L538.992 254.989H546V252.386H538.473C538.139 252.386 537.82 252.523 537.585 252.767Z" fill="#424242"/>
</svg>
