<svg width="255" height="49" viewBox="0 0 255 49" fill="none" xmlns="http://www.w3.org/2000/svg">
<g clip-path="url(#clip0)">
<rect width="255" height="49" fill="#586168"/>
<path d="M27.5068 23.25C27.5068 27.3333 22.2568 30.8333 22.2568 30.8333C22.2568 30.8333 17.0068 27.3333 17.0068 23.25C17.0068 21.8576 17.56 20.5223 18.5445 19.5377C19.5291 18.5531 20.8644 18 22.2568 18C23.6492 18 24.9846 18.5531 25.9691 19.5377C26.9537 20.5223 27.5068 21.8576 27.5068 23.25Z" stroke="white" stroke-width="2" stroke-linecap="round" stroke-linejoin="round"/>
<path d="M22.2568 25C23.2233 25 24.0068 24.2165 24.0068 23.25C24.0068 22.2835 23.2233 21.5 22.2568 21.5C21.2903 21.5 20.5068 22.2835 20.5068 23.25C20.5068 24.2165 21.2903 25 22.2568 25Z" stroke="white" stroke-width="1.5" stroke-linecap="round" stroke-linejoin="round"/>
<path d="M44.432 29H42.56V24.344H37.008V29H35.136V18.328H37.008V22.696H42.56V18.328H44.432V29ZM53.0505 29H51.3705V28.168C50.7732 28.8507 49.9412 29.192 48.8745 29.192C48.1705 29.192 47.5465 28.968 47.0025 28.52C46.4585 28.0613 46.1865 27.432 46.1865 26.632C46.1865 25.8107 46.4532 25.1867 46.9865 24.76C47.5305 24.3333 48.1598 24.12 48.8745 24.12C49.9732 24.12 50.8052 24.4507 51.3705 25.112V23.96C51.3705 23.512 51.2052 23.16 50.8745 22.904C50.5438 22.648 50.1065 22.52 49.5625 22.52C48.6985 22.52 47.9358 22.8453 47.2745 23.496L46.5865 22.328C47.4612 21.496 48.5438 21.08 49.8345 21.08C50.7838 21.08 51.5572 21.304 52.1545 21.752C52.7518 22.2 53.0505 22.9093 53.0505 23.88V29ZM49.5305 28.04C50.3732 28.04 50.9865 27.7733 51.3705 27.24V26.072C50.9865 25.5387 50.3732 25.272 49.5305 25.272C49.0505 25.272 48.6558 25.4 48.3465 25.656C48.0372 25.912 47.8825 26.248 47.8825 26.664C47.8825 27.08 48.0372 27.416 48.3465 27.672C48.6558 27.9173 49.0505 28.04 49.5305 28.04ZM56.8446 29H55.2286V21.272H56.9086V26.472L60.4606 21.272H62.1406V29H60.4606V23.656L56.8446 29ZM61.4846 19.048C60.7913 19.9867 59.858 20.456 58.6846 20.456C57.522 20.456 56.5833 19.9867 55.8686 19.048L56.6366 18.408C57.1486 19.112 57.8313 19.464 58.6846 19.464C59.538 19.464 60.2153 19.112 60.7166 18.408L61.4846 19.048ZM67.4104 29H65.7304V22.744H63.5224V21.272H69.6344V22.744H67.4104V29ZM72.6259 29H71.0099V21.272H72.6899V26.472L76.2419 21.272H77.9219V29H76.2419V23.656L72.6259 29ZM87.701 27.704C88.3943 27.704 88.9383 27.4533 89.333 26.952C89.7383 26.4507 89.941 25.832 89.941 25.096C89.941 24.392 89.7383 23.7947 89.333 23.304C88.9383 22.8133 88.3943 22.568 87.701 22.568C87.0183 22.568 86.4743 22.8133 86.069 23.304C85.6743 23.7947 85.477 24.392 85.477 25.096C85.477 25.832 85.6743 26.4507 86.069 26.952C86.4743 27.4533 87.0183 27.704 87.701 27.704ZM90.597 28.008C89.8823 28.7973 88.917 29.192 87.701 29.192C86.485 29.192 85.5197 28.7813 84.805 27.96C84.101 27.128 83.749 26.0667 83.749 24.776C83.749 22.9307 84.0637 21.5547 84.693 20.648C85.333 19.7413 86.3143 19.208 87.637 19.048C88.437 18.9307 88.9863 18.8187 89.285 18.712C89.5943 18.6053 89.749 18.4773 89.749 18.328H91.397C91.397 19.448 90.2983 20.1307 88.101 20.376C87.237 20.472 86.5703 20.712 86.101 21.096C85.6423 21.4693 85.3543 21.9173 85.237 22.44C85.5463 22.0133 85.9463 21.6827 86.437 21.448C86.9383 21.2027 87.4663 21.08 88.021 21.08C89.0877 21.08 89.9623 21.4747 90.645 22.264C91.3277 23.0533 91.669 24.0027 91.669 25.112C91.669 26.2533 91.3117 27.2187 90.597 28.008ZM92.6474 29.192V27.816C92.978 27.816 93.2394 27.6027 93.4314 27.176C93.634 26.7493 93.7994 26.0347 93.9274 25.032L94.3914 21.272H100.359V29H98.6794V22.744H95.8794L95.6074 25.224C95.458 26.6107 95.1434 27.6187 94.6634 28.248C94.1834 28.8773 93.5114 29.192 92.6474 29.192ZM104.157 29H102.541V21.272H104.221V26.472L107.773 21.272H109.453V29H107.773V23.656L104.157 29ZM112.755 29H110.643L113.923 24.776L110.707 21.272H112.787L115.555 24.296V21.272H117.235V24.296L120.003 21.272H122.083L118.867 24.776L122.147 29H120.035L117.667 25.816L117.235 26.264V29H115.555V26.264L115.123 25.816L112.755 29ZM129.738 29H128.058V28.168C127.461 28.8507 126.629 29.192 125.562 29.192C124.858 29.192 124.234 28.968 123.69 28.52C123.146 28.0613 122.874 27.432 122.874 26.632C122.874 25.8107 123.141 25.1867 123.674 24.76C124.218 24.3333 124.847 24.12 125.562 24.12C126.661 24.12 127.493 24.4507 128.058 25.112V23.96C128.058 23.512 127.893 23.16 127.562 22.904C127.231 22.648 126.794 22.52 126.25 22.52C125.386 22.52 124.623 22.8453 123.962 23.496L123.274 22.328C124.149 21.496 125.231 21.08 126.522 21.08C127.471 21.08 128.245 21.304 128.842 21.752C129.439 22.2 129.738 22.9093 129.738 23.88V29ZM126.218 28.04C127.061 28.04 127.674 27.7733 128.058 27.24V26.072C127.674 25.5387 127.061 25.272 126.218 25.272C125.738 25.272 125.343 25.4 125.034 25.656C124.725 25.912 124.57 26.248 124.57 26.664C124.57 27.08 124.725 27.416 125.034 27.672C125.343 27.9173 125.738 28.04 126.218 28.04ZM133.532 29H131.916V21.272H133.596V26.472L137.148 21.272H138.828V29H137.148V23.656L133.532 29ZM138.172 19.048C137.479 19.9867 136.545 20.456 135.372 20.456C134.209 20.456 133.271 19.9867 132.556 19.048L133.324 18.408C133.836 19.112 134.519 19.464 135.372 19.464C136.225 19.464 136.903 19.112 137.404 18.408L138.172 19.048ZM149.81 21.272H151.49V29H141.01V21.272H142.69V27.528H145.41V21.272H147.09V27.528H149.81V21.272ZM155.282 29H153.666V21.272H155.346V26.472L158.898 21.272H160.578V29H158.898V23.656L155.282 29ZM164.376 29H162.76V21.272H164.44V26.472L167.992 21.272H169.672V29H167.992V23.656L164.376 29ZM169.016 19.048C168.323 19.9867 167.389 20.456 166.216 20.456C165.053 20.456 164.115 19.9867 163.4 19.048L164.168 18.408C164.68 19.112 165.363 19.464 166.216 19.464C167.069 19.464 167.747 19.112 168.248 18.408L169.016 19.048ZM184.619 29H182.939V23.624L180.635 29H179.963L177.643 23.624V29H175.963V21.272H178.155L180.299 26.264L182.411 21.272H184.619V29ZM193.191 29H191.511V28.168C190.914 28.8507 190.082 29.192 189.015 29.192C188.311 29.192 187.687 28.968 187.143 28.52C186.599 28.0613 186.327 27.432 186.327 26.632C186.327 25.8107 186.594 25.1867 187.127 24.76C187.671 24.3333 188.3 24.12 189.015 24.12C190.114 24.12 190.946 24.4507 191.511 25.112V23.96C191.511 23.512 191.346 23.16 191.015 22.904C190.684 22.648 190.247 22.52 189.703 22.52C188.839 22.52 188.076 22.8453 187.415 23.496L186.727 22.328C187.602 21.496 188.684 21.08 189.975 21.08C190.924 21.08 191.698 21.304 192.295 21.752C192.892 22.2 193.191 22.9093 193.191 23.88V29ZM189.671 28.04C190.514 28.04 191.127 27.7733 191.511 27.24V26.072C191.127 25.5387 190.514 25.272 189.671 25.272C189.191 25.272 188.796 25.4 188.487 25.656C188.178 25.912 188.023 26.248 188.023 26.664C188.023 27.08 188.178 27.416 188.487 27.672C188.796 27.9173 189.191 28.04 189.671 28.04ZM201.225 21.272V22.744H197.049V29H195.369V21.272H201.225ZM209.004 29H207.324V28.168C206.726 28.8507 205.894 29.192 204.828 29.192C204.124 29.192 203.5 28.968 202.956 28.52C202.412 28.0613 202.14 27.432 202.14 26.632C202.14 25.8107 202.406 25.1867 202.94 24.76C203.484 24.3333 204.113 24.12 204.828 24.12C205.926 24.12 206.758 24.4507 207.324 25.112V23.96C207.324 23.512 207.158 23.16 206.828 22.904C206.497 22.648 206.06 22.52 205.516 22.52C204.652 22.52 203.889 22.8453 203.228 23.496L202.54 22.328C203.414 21.496 204.497 21.08 205.788 21.08C206.737 21.08 207.51 21.304 208.108 21.752C208.705 22.2 209.004 22.9093 209.004 23.88V29ZM205.484 28.04C206.326 28.04 206.94 27.7733 207.324 27.24V26.072C206.94 25.5387 206.326 25.272 205.484 25.272C205.004 25.272 204.609 25.4 204.3 25.656C203.99 25.912 203.836 26.248 203.836 26.664C203.836 27.08 203.99 27.416 204.3 27.672C204.609 27.9173 205.004 28.04 205.484 28.04ZM213.966 29.192C212.451 29.192 211.267 28.776 210.414 27.944L211.198 26.872C211.902 27.5013 212.824 27.816 213.966 27.816C214.552 27.816 215.011 27.7253 215.342 27.544C215.683 27.352 215.854 27.096 215.854 26.776C215.854 26.104 215.176 25.768 213.822 25.768H212.174V24.424H213.822C214.408 24.424 214.867 24.3387 215.198 24.168C215.539 23.9973 215.71 23.7467 215.71 23.416C215.71 23.1387 215.534 22.9093 215.182 22.728C214.83 22.5467 214.387 22.456 213.854 22.456C212.819 22.456 211.992 22.7653 211.374 23.384L210.542 22.36C211.363 21.5173 212.44 21.096 213.774 21.096C214.915 21.0853 215.811 21.272 216.462 21.656C217.123 22.0293 217.454 22.5413 217.454 23.192C217.454 23.6827 217.246 24.0987 216.83 24.44C216.424 24.7707 215.95 24.9733 215.406 25.048C215.95 25.0907 216.451 25.272 216.91 25.592C217.379 25.912 217.614 26.3493 217.614 26.904C217.614 27.576 217.283 28.1253 216.622 28.552C215.971 28.9787 215.086 29.192 213.966 29.192ZM220.923 29H219.307V21.272H220.987V26.472L224.539 21.272H226.219V29H224.539V23.656L220.923 29ZM230.081 29H228.401V21.272H230.081V24.312H233.633V21.272H235.312V29H233.633V25.784H230.081V29Z" fill="white"/>
<circle cx="127.5" cy="24.5" r="80" stroke="white" stroke-opacity="0.15"/>
<circle cx="127.5" cy="24.5" r="57" stroke="white" stroke-opacity="0.15"/>
<circle cx="127.5" cy="24.5" r="36" stroke="white" stroke-opacity="0.15"/>
</g>
<defs>
<clipPath id="clip0">
<rect width="255" height="49" fill="white"/>
</clipPath>
</defs>
</svg>
