<svg width="1125" height="562" viewBox="0 0 1125 562" fill="none" xmlns="http://www.w3.org/2000/svg">
<path opacity="0.5" d="M13 462L221 400V562H13V462Z" fill="url(#paint0_linear)"/>
<path opacity="0.5" d="M221 400L332 396V562H221V400Z" fill="url(#paint1_linear)"/>
<path opacity="0.5" d="M332 396L443 431V562H332V396Z" fill="url(#paint2_linear)"/>
<path opacity="0.5" d="M443 431L666 390V562H443V431Z" fill="url(#paint3_linear)"/>
<path opacity="0.5" d="M666 390L889 243V562H666V390Z" fill="url(#paint4_linear)"/>
<path opacity="0.5" d="M889 243L1001 90V562H889V243Z" fill="url(#paint5_linear)"/>
<path opacity="0.5" d="M1001 90L1111 26V562H1001V90Z" fill="url(#paint6_linear)"/>
<path d="M13 463.5L110 434.5L221 401L332.5 397.5L443 434L666 392.26L889 243L1000 90L1111 26" stroke="#EF7C00" stroke-width="5"/>
<circle cx="13.5" cy="461.5" r="7.5" fill="#EF7C00"/>
<circle cx="221.5" cy="399.5" r="7.5" fill="#EF7C00"/>
<circle cx="332.5" cy="395.5" r="7.5" fill="#EF7C00"/>
<circle cx="443.5" cy="432.5" r="7.5" fill="#EF7C00"/>
<circle cx="666.5" cy="389.5" r="7.5" fill="#EF7C00"/>
<circle cx="889.5" cy="243.5" r="7.5" fill="#EF7C00"/>
<circle cx="1001.5" cy="87.5" r="7.5" fill="#EF7C00"/>
<circle cx="1111.5" cy="25.5" r="7.5" fill="#EF7C00"/>
<path d="M1104.78 11H1098.99V9.896C1100.66 8.632 1101.79 7.696 1102.39 7.088C1103 6.472 1103.31 5.892 1103.31 5.348C1103.31 4.956 1103.16 4.656 1102.87 4.448C1102.59 4.232 1102.25 4.124 1101.85 4.124C1100.97 4.124 1100.25 4.444 1099.69 5.084L1098.88 4.16C1099.22 3.744 1099.65 3.428 1100.17 3.212C1100.7 2.988 1101.25 2.876 1101.83 2.876C1102.65 2.876 1103.33 3.096 1103.89 3.536C1104.45 3.976 1104.73 4.58 1104.73 5.348C1104.73 6.036 1104.45 6.72 1103.87 7.4C1103.29 8.08 1102.41 8.868 1101.23 9.764H1104.78V11ZM1110.66 10.784C1110.24 11.024 1109.76 11.144 1109.22 11.144C1108.68 11.144 1108.2 11.024 1107.78 10.784C1107.36 10.544 1107.02 10.224 1106.77 9.824C1106.52 9.424 1106.34 8.984 1106.21 8.504C1106.08 8.024 1106.02 7.524 1106.02 7.004C1106.02 6.484 1106.08 5.984 1106.21 5.504C1106.34 5.024 1106.52 4.588 1106.77 4.196C1107.02 3.796 1107.36 3.476 1107.78 3.236C1108.2 2.996 1108.68 2.876 1109.22 2.876C1109.76 2.876 1110.24 2.996 1110.66 3.236C1111.08 3.476 1111.42 3.796 1111.67 4.196C1111.92 4.588 1112.1 5.024 1112.23 5.504C1112.36 5.984 1112.42 6.484 1112.42 7.004C1112.42 7.524 1112.36 8.024 1112.23 8.504C1112.1 8.984 1111.92 9.424 1111.67 9.824C1111.42 10.224 1111.08 10.544 1110.66 10.784ZM1107.88 9.08C1108.16 9.624 1108.61 9.896 1109.22 9.896C1109.83 9.896 1110.28 9.624 1110.56 9.08C1110.85 8.536 1111 7.844 1111 7.004C1111 6.468 1110.94 5.992 1110.83 5.576C1110.72 5.16 1110.53 4.816 1110.25 4.544C1109.98 4.264 1109.64 4.124 1109.22 4.124C1108.8 4.124 1108.46 4.264 1108.18 4.544C1107.9 4.816 1107.71 5.16 1107.6 5.576C1107.5 5.992 1107.44 6.468 1107.44 7.004C1107.44 7.844 1107.59 8.536 1107.88 9.08ZM1119.31 11H1113.52V9.896C1115.19 8.632 1116.33 7.696 1116.93 7.088C1117.53 6.472 1117.84 5.892 1117.84 5.348C1117.84 4.956 1117.69 4.656 1117.41 4.448C1117.13 4.232 1116.79 4.124 1116.39 4.124C1115.51 4.124 1114.79 4.444 1114.23 5.084L1113.41 4.16C1113.75 3.744 1114.19 3.428 1114.71 3.212C1115.23 2.988 1115.79 2.876 1116.36 2.876C1117.18 2.876 1117.87 3.096 1118.43 3.536C1118.99 3.976 1119.27 4.58 1119.27 5.348C1119.27 6.036 1118.98 6.72 1118.4 7.4C1117.83 8.08 1116.95 8.868 1115.76 9.764H1119.31V11ZM1123.76 11H1122.36V4.82L1121.05 6.176L1120.23 5.324L1122.54 2.996H1123.76V11Z" fill="black"/>
<path d="M988.656 84.3907L984.121 87.9999L983.434 87.1361C983.955 85.1059 984.261 83.6661 984.352 82.8168C984.444 81.9562 984.32 81.313 983.982 80.8874C983.738 80.5807 983.438 80.4356 983.083 80.4522C982.73 80.4575 982.396 80.5847 982.083 80.8338C981.395 81.3818 981.031 82.0805 980.991 82.93L979.777 82.7151C979.787 82.1754 979.929 81.6592 980.201 81.1663C980.475 80.6623 980.837 80.2309 981.288 79.8722C981.926 79.3641 982.601 79.1078 983.313 79.1034C984.026 79.099 984.621 79.3972 985.099 79.9982C985.528 80.5365 985.728 81.251 985.701 82.1418C985.674 83.0325 985.476 84.1971 985.107 85.6355L987.886 83.4236L988.656 84.3907ZM993.12 80.5623C992.938 81.0141 992.637 81.4069 992.217 81.7407C991.798 82.0744 991.348 82.2794 990.866 82.3557C990.385 82.4319 989.923 82.3907 989.48 82.2322C989.037 82.0736 988.616 81.8464 988.217 81.5505C987.818 81.2547 987.456 80.9033 987.132 80.4964C986.809 80.0895 986.547 79.6585 986.349 79.2032C986.15 78.7479 986.025 78.2897 985.975 77.8285C985.92 77.3611 985.984 76.9015 986.166 76.4497C986.349 75.9978 986.65 75.6051 987.069 75.2713C987.488 74.9375 987.939 74.7325 988.42 74.6563C988.901 74.5801 989.363 74.6212 989.806 74.7798C990.244 74.9321 990.663 75.1561 991.062 75.452C991.461 75.7479 991.823 76.0993 992.146 76.5062C992.47 76.913 992.731 77.3441 992.93 77.7994C993.129 78.2547 993.256 78.716 993.311 79.1835C993.366 79.6509 993.302 80.1105 993.12 80.5623ZM989.881 80.9626C990.445 81.2089 990.965 81.1428 991.44 80.7642C991.916 80.3856 992.097 79.8938 991.984 79.2888C991.87 78.6838 991.552 78.0526 991.029 77.3954C990.695 76.976 990.355 76.6384 990.008 76.3826C989.668 76.1219 989.304 75.9723 988.915 75.9338C988.528 75.8841 988.172 75.9888 987.846 76.2478C987.521 76.5068 987.335 76.8331 987.291 77.2265C987.247 77.6087 987.311 77.9975 987.483 78.3927C987.66 78.783 987.916 79.1878 988.25 79.6072C988.773 80.2645 989.316 80.7163 989.881 80.9626ZM1000.03 75.3421L995.491 78.9513L994.804 78.0875C995.325 76.0573 995.631 74.6175 995.722 73.7682C995.814 72.9076 995.691 72.2644 995.352 71.8388C995.108 71.532 994.808 71.387 994.453 71.4036C994.1 71.4089 993.767 71.5361 993.454 71.7852C992.765 72.3332 992.401 73.0319 992.361 73.8814L991.147 73.6665C991.157 73.1268 991.299 72.6105 991.571 72.1177C991.845 71.6137 992.207 71.1823 992.658 70.8236C993.296 70.3155 993.971 70.0592 994.684 70.0548C995.396 70.0504 995.991 70.3486 996.469 70.9496C996.898 71.4879 997.098 72.2024 997.071 73.0932C997.044 73.9839 996.846 75.1485 996.477 76.5868L999.257 74.375L1000.03 75.3421ZM1004.49 71.5137C1004.31 71.9655 1004.01 72.3583 1003.59 72.6921C1003.17 73.0258 1002.72 73.2308 1002.24 73.3071C1001.76 73.3833 1001.29 73.3421 1000.85 73.1836C1000.41 73.025 999.986 72.7978 999.587 72.5019C999.188 72.2061 998.826 71.8547 998.503 71.4478C998.179 71.0409 997.917 70.6098 997.719 70.1546C997.52 69.6993 997.396 69.2411 997.346 68.7799C997.291 68.3125 997.354 67.8529 997.536 67.4011C997.719 66.9492 998.02 66.5564 998.439 66.2227C998.858 65.8889 999.309 65.6839 999.79 65.6077C1000.27 65.5314 1000.73 65.5726 1001.18 65.7312C1001.61 65.8835 1002.03 66.1075 1002.43 66.4034C1002.83 66.6993 1003.19 67.0507 1003.52 67.4576C1003.84 67.8644 1004.1 68.2955 1004.3 68.7508C1004.5 69.2061 1004.63 69.6674 1004.68 70.1349C1004.74 70.6023 1004.67 71.0619 1004.49 71.5137ZM1001.25 71.914C1001.81 72.1603 1002.33 72.0942 1002.81 71.7156C1003.29 71.337 1003.47 70.8452 1003.35 70.2402C1003.24 69.6352 1002.92 69.004 1002.4 68.3468C1002.07 67.9274 1001.73 67.5898 1001.38 67.334C1001.04 67.0733 1000.67 66.9237 1000.29 66.8852C999.898 66.8355 999.542 66.9402 999.216 67.1992C998.891 67.4582 998.706 67.7845 998.661 68.1779C998.617 68.5601 998.681 68.9489 998.853 69.3441C999.03 69.7344 999.286 70.1392 999.62 70.5586C1000.14 71.2159 1000.69 71.6677 1001.25 71.914Z" fill="black"/>
<path d="M875.521 241.038L871.385 245.098L870.612 244.31C870.919 242.237 871.074 240.773 871.077 239.919C871.079 239.053 870.889 238.427 870.508 238.038C870.234 237.759 869.921 237.645 869.57 237.699C869.218 237.741 868.9 237.902 868.615 238.182C867.987 238.799 867.697 239.531 867.746 240.38L866.516 240.293C866.47 239.755 866.557 239.227 866.777 238.708C866.997 238.178 867.312 237.712 867.723 237.308C868.306 236.737 868.951 236.412 869.659 236.333C870.366 236.255 870.989 236.49 871.527 237.038C872.009 237.529 872.283 238.219 872.348 239.108C872.414 239.996 872.338 241.175 872.121 242.644L874.655 240.156L875.521 241.038ZM879.563 236.766C879.429 237.235 879.171 237.657 878.788 238.032C878.406 238.408 877.979 238.658 877.508 238.784C877.038 238.91 876.574 238.917 876.116 238.805C875.659 238.693 875.217 238.511 874.789 238.258C874.362 238.005 873.966 237.693 873.601 237.322C873.237 236.951 872.933 236.55 872.688 236.118C872.443 235.685 872.271 235.242 872.174 234.789C872.07 234.33 872.086 233.866 872.22 233.398C872.355 232.93 872.613 232.508 872.996 232.132C873.378 231.757 873.805 231.506 874.276 231.38C874.746 231.254 875.21 231.247 875.667 231.359C876.119 231.465 876.559 231.645 876.986 231.897C877.414 232.15 877.81 232.462 878.174 232.833C878.538 233.204 878.843 233.606 879.088 234.038C879.333 234.47 879.507 234.916 879.61 235.375C879.713 235.834 879.698 236.298 879.563 236.766ZM876.383 237.501C876.97 237.687 877.48 237.568 877.914 237.142C878.348 236.716 878.477 236.208 878.301 235.618C878.126 235.028 877.744 234.433 877.155 233.834C876.78 233.451 876.406 233.151 876.035 232.932C875.669 232.708 875.291 232.597 874.901 232.599C874.511 232.59 874.167 232.731 873.87 233.023C873.573 233.314 873.423 233.658 873.419 234.054C873.416 234.438 873.52 234.818 873.731 235.194C873.949 235.563 874.245 235.94 874.62 236.322C875.209 236.921 875.796 237.314 876.383 237.501ZM883.972 232.741L882.971 233.724L878.641 229.314L878.658 231.198L877.479 231.162L877.492 227.887L878.365 227.029L883.972 232.741ZM886.941 230.011C886.273 230.667 885.521 230.991 884.683 230.983L884.406 229.776C885.051 229.793 885.604 229.575 886.067 229.121C886.552 228.644 886.744 228.097 886.642 227.48C886.54 226.851 886.237 226.28 885.733 225.766L885.565 225.594C885.624 225.951 885.595 226.35 885.477 226.79C885.355 227.225 885.136 227.596 884.822 227.904C884.28 228.437 883.663 228.722 882.973 228.761C882.288 228.794 881.66 228.52 881.088 227.938C880.556 227.395 880.304 226.751 880.334 226.004C880.363 225.247 880.689 224.562 881.312 223.951C881.848 223.425 882.434 223.125 883.068 223.051C883.702 222.967 884.31 223.065 884.89 223.348C885.464 223.625 886.023 224.04 886.567 224.594C887.407 225.45 887.88 226.371 887.984 227.356C888.088 228.342 887.74 229.227 886.941 230.011ZM884.239 226.779C884.484 226.538 884.659 226.248 884.764 225.91C884.869 225.571 884.892 225.229 884.833 224.883C884.451 224.552 884.023 224.356 883.549 224.295C883.08 224.228 882.643 224.394 882.237 224.792C881.889 225.133 881.713 225.508 881.709 225.915C881.706 226.323 881.827 226.652 882.074 226.903C882.399 227.234 882.759 227.379 883.156 227.337C883.547 227.29 883.907 227.104 884.239 226.779Z" fill="black"/>
<path d="M654.694 380.318L649.407 382.692L648.955 381.685C649.962 379.847 650.615 378.528 650.913 377.727C651.215 376.916 651.255 376.263 651.032 375.767C650.871 375.409 650.617 375.194 650.269 375.123C649.925 375.04 649.571 375.081 649.206 375.245C648.403 375.605 647.878 376.192 647.629 377.006L646.506 376.497C646.649 375.977 646.914 375.511 647.3 375.101C647.69 374.681 648.147 374.352 648.673 374.116C649.417 373.782 650.135 373.701 650.826 373.873C651.517 374.045 652.02 374.481 652.335 375.181C652.617 375.809 652.634 376.551 652.387 377.407C652.14 378.264 651.661 379.343 650.948 380.645L654.188 379.19L654.694 380.318ZM659.966 377.713C659.678 378.105 659.289 378.412 658.8 378.631C658.311 378.851 657.824 378.938 657.339 378.893C656.854 378.848 656.417 378.693 656.026 378.43C655.636 378.167 655.285 377.842 654.971 377.457C654.658 377.072 654.394 376.642 654.181 376.167C653.968 375.693 653.822 375.211 653.742 374.72C653.662 374.23 653.655 373.755 653.721 373.296C653.783 372.83 653.958 372.4 654.247 372.007C654.535 371.615 654.924 371.309 655.413 371.089C655.902 370.869 656.389 370.782 656.874 370.827C657.359 370.873 657.797 371.027 658.187 371.29C658.574 371.546 658.924 371.867 659.237 372.252C659.551 372.638 659.814 373.068 660.027 373.542C660.24 374.016 660.386 374.499 660.466 374.989C660.546 375.479 660.555 375.958 660.493 376.424C660.43 376.891 660.255 377.32 659.966 377.713ZM656.729 377.299C657.214 377.677 657.734 377.742 658.289 377.493C658.844 377.244 659.141 376.812 659.181 376.198C659.221 375.583 659.068 374.893 658.724 374.127C658.505 373.638 658.259 373.227 657.986 372.893C657.721 372.556 657.405 372.321 657.038 372.188C656.675 372.044 656.304 372.057 655.924 372.227C655.545 372.398 655.285 372.668 655.144 373.038C655.007 373.398 654.973 373.79 655.041 374.216C655.117 374.638 655.264 375.093 655.484 375.582C655.828 376.349 656.243 376.921 656.729 377.299ZM665.498 375.465L664.217 376.04L661.685 370.403L661.047 372.176L659.954 371.733L661.102 368.665L662.218 368.164L665.498 375.465ZM671.34 372.368C670.965 372.957 670.383 373.429 669.595 373.783C668.807 374.137 668.064 374.26 667.366 374.152C666.666 374.037 666.175 373.666 665.893 373.038C665.693 372.593 665.672 372.138 665.831 371.672C665.998 371.202 666.282 370.781 666.684 370.407C666.166 370.464 665.701 370.415 665.288 370.258C664.883 370.098 664.582 369.799 664.386 369.361C664.241 369.04 664.189 368.717 664.227 368.393C664.273 368.065 664.391 367.771 664.581 367.511C664.778 367.247 665.013 367.009 665.287 366.799C665.565 366.578 665.871 366.392 666.207 366.241C666.543 366.09 666.882 365.986 667.225 365.929C667.564 365.864 667.898 365.845 668.226 365.873C668.554 365.901 668.852 366.009 669.12 366.195C669.396 366.379 669.605 366.631 669.749 366.952C670.12 367.776 669.868 368.582 668.994 369.37C669.54 369.317 670.04 369.386 670.494 369.577C670.956 369.765 671.286 370.081 671.486 370.526C671.768 371.154 671.719 371.767 671.34 372.368ZM667.618 369.382C667.799 369.257 667.967 369.125 668.124 368.984C668.277 368.837 668.406 368.647 668.512 368.415C668.623 368.173 668.63 367.946 668.535 367.734C668.401 367.435 668.163 367.257 667.822 367.199C667.488 367.139 667.12 367.199 666.719 367.379C666.31 367.563 666.013 367.801 665.829 368.094C665.653 368.384 665.631 368.679 665.766 368.978C665.861 369.189 666.036 369.335 666.29 369.413C666.542 369.485 666.773 369.512 666.985 369.496C667.194 369.472 667.405 369.434 667.618 369.382ZM669.083 372.644C669.499 372.458 669.811 372.204 670.017 371.883C670.224 371.562 670.259 371.248 670.121 370.942C669.973 370.614 669.684 370.428 669.252 370.385C668.825 370.331 668.442 370.358 668.105 370.466C667.925 370.573 667.747 370.714 667.572 370.89C667.393 371.058 667.246 371.277 667.131 371.548C667.012 371.812 667.006 372.06 667.111 372.294C667.248 372.601 667.502 372.785 667.872 372.847C668.249 372.905 668.653 372.838 669.083 372.644Z" fill="black"/>
<path d="M437.991 421.555L432.218 421.033L432.318 419.933C434.097 418.825 435.312 417.995 435.964 417.444C436.625 416.885 436.98 416.335 437.029 415.793C437.065 415.402 436.948 415.091 436.68 414.857C436.421 414.617 436.092 414.479 435.693 414.443C434.817 414.364 434.071 414.618 433.456 415.205L432.726 414.211C433.106 413.828 433.565 413.552 434.102 413.383C434.648 413.208 435.208 413.146 435.782 413.198C436.595 413.271 437.26 413.552 437.778 414.041C438.296 414.53 438.521 415.156 438.452 415.921C438.39 416.606 438.041 417.262 437.406 417.887C436.772 418.513 435.824 419.218 434.564 420.004L438.102 420.324L437.991 421.555ZM443.863 421.869C443.419 422.069 442.93 422.146 442.396 422.097C441.863 422.049 441.395 421.886 440.995 421.609C440.594 421.332 440.288 420.983 440.077 420.562C439.866 420.142 439.719 419.687 439.634 419.197C439.55 418.707 439.531 418.204 439.578 417.686C439.625 417.168 439.734 416.676 439.904 416.209C440.075 415.743 440.301 415.325 440.584 414.957C440.867 414.581 441.23 414.293 441.674 414.092C442.118 413.891 442.607 413.815 443.141 413.863C443.674 413.911 444.142 414.074 444.542 414.351C444.943 414.628 445.249 414.977 445.46 415.398C445.672 415.811 445.82 416.262 445.904 416.751C445.988 417.241 446.007 417.745 445.96 418.263C445.913 418.781 445.804 419.273 445.634 419.739C445.463 420.206 445.236 420.627 444.953 421.003C444.67 421.379 444.307 421.668 443.863 421.869ZM441.244 419.921C441.481 420.489 441.903 420.8 442.509 420.854C443.114 420.909 443.585 420.679 443.921 420.163C444.257 419.647 444.462 418.971 444.538 418.134C444.586 417.6 444.573 417.121 444.499 416.697C444.433 416.273 444.273 415.913 444.018 415.617C443.773 415.314 443.443 415.143 443.028 415.106C442.614 415.068 442.255 415.177 441.951 415.43C441.655 415.677 441.433 416.002 441.284 416.406C441.143 416.811 441.048 417.281 441 417.814C440.925 418.651 441.006 419.353 441.244 419.921ZM449.786 422.621L448.388 422.494L448.944 416.339L447.519 417.572L446.783 416.65L449.287 414.539L450.506 414.649L449.786 422.621ZM453.609 422.966L452.079 422.828L455.7 416.36L451.565 415.986L451.676 414.755L457.425 415.274L457.337 416.243L453.609 422.966Z" fill="black"/>
<path d="M327.08 384.563L321.308 384.041L321.407 382.941C323.186 381.833 324.402 381.003 325.054 380.452C325.715 379.893 326.07 379.343 326.119 378.801C326.154 378.41 326.038 378.099 325.77 377.866C325.51 377.625 325.181 377.487 324.783 377.451C323.907 377.372 323.161 377.626 322.545 378.213L321.816 377.219C322.196 376.836 322.655 376.56 323.192 376.392C323.738 376.216 324.298 376.154 324.871 376.206C325.684 376.279 326.349 376.56 326.868 377.049C327.386 377.538 327.61 378.164 327.541 378.929C327.479 379.615 327.131 380.27 326.496 380.895C325.861 381.521 324.914 382.226 323.654 383.012L327.191 383.332L327.08 384.563ZM332.952 384.877C332.509 385.077 332.02 385.154 331.486 385.106C330.952 385.057 330.485 384.895 330.084 384.617C329.683 384.34 329.378 383.991 329.167 383.571C328.956 383.15 328.808 382.695 328.724 382.205C328.639 381.716 328.621 381.212 328.668 380.694C328.714 380.176 328.823 379.684 328.994 379.217C329.164 378.751 329.391 378.333 329.673 377.965C329.956 377.589 330.32 377.301 330.764 377.1C331.207 376.899 331.696 376.823 332.23 376.871C332.764 376.919 333.231 377.082 333.632 377.359C334.033 377.636 334.338 377.985 334.549 378.406C334.761 378.819 334.909 379.27 334.993 379.76C335.078 380.249 335.096 380.753 335.05 381.271C335.003 381.789 334.894 382.281 334.723 382.747C334.553 383.214 334.326 383.635 334.043 384.011C333.76 384.387 333.396 384.676 332.952 384.877ZM330.333 382.929C330.571 383.497 330.993 383.808 331.598 383.863C332.204 383.917 332.674 383.687 333.01 383.171C333.346 382.655 333.552 381.979 333.627 381.142C333.676 380.608 333.663 380.129 333.589 379.705C333.522 379.281 333.362 378.921 333.108 378.625C332.862 378.322 332.532 378.151 332.118 378.114C331.703 378.077 331.344 378.185 331.04 378.438C330.745 378.685 330.523 379.01 330.374 379.414C330.233 379.819 330.138 380.289 330.09 380.822C330.014 381.659 330.095 382.361 330.333 382.929ZM338.875 385.629L337.477 385.502L338.033 379.347L336.609 380.58L335.873 379.658L338.377 377.547L339.596 377.657L338.875 385.629ZM343.486 386.19C342.92 386.139 342.432 385.986 342.021 385.732C341.611 385.47 341.296 385.137 341.076 384.731C340.855 384.326 340.703 383.878 340.619 383.389C340.535 382.891 340.519 382.355 340.571 381.782C340.68 380.579 341.076 379.618 341.759 378.901C342.443 378.184 343.342 377.875 344.457 377.976C345.382 378.06 346.12 378.424 346.672 379.068L345.919 380.072C345.515 379.562 344.99 379.277 344.345 379.219C343.708 379.162 343.175 379.37 342.746 379.846C342.318 380.321 342.07 380.925 342.004 381.658C341.995 381.762 341.992 381.838 341.995 381.886C342.221 381.61 342.539 381.377 342.95 381.19C343.361 381.002 343.789 380.928 344.235 380.968C344.992 381.037 345.605 381.321 346.074 381.821C346.543 382.314 346.741 382.966 346.668 383.779C346.6 384.536 346.271 385.149 345.683 385.617C345.095 386.078 344.362 386.269 343.486 386.19ZM343.527 384.941C344.021 384.985 344.424 384.881 344.736 384.628C345.048 384.367 345.221 384.058 345.253 383.699C345.295 383.237 345.172 382.872 344.882 382.605C344.594 382.33 344.215 382.171 343.745 382.129C343.41 382.099 343.079 382.157 342.753 382.304C342.427 382.444 342.148 382.647 341.914 382.915C341.916 383.43 342.044 383.883 342.298 384.275C342.551 384.668 342.961 384.89 343.527 384.941Z" fill="black"/>
<path d="M213.753 389H207.957V387.896C209.629 386.632 210.765 385.696 211.365 385.088C211.973 384.472 212.277 383.892 212.277 383.348C212.277 382.956 212.133 382.656 211.845 382.448C211.565 382.232 211.225 382.124 210.825 382.124C209.945 382.124 209.225 382.444 208.665 383.084L207.849 382.16C208.193 381.744 208.625 381.428 209.145 381.212C209.673 380.988 210.225 380.876 210.801 380.876C211.617 380.876 212.305 381.096 212.865 381.536C213.425 381.976 213.705 382.58 213.705 383.348C213.705 384.036 213.417 384.72 212.841 385.4C212.265 386.08 211.385 386.868 210.201 387.764H213.753V389ZM219.63 388.784C219.206 389.024 218.726 389.144 218.19 389.144C217.654 389.144 217.174 389.024 216.75 388.784C216.326 388.544 215.99 388.224 215.742 387.824C215.494 387.424 215.306 386.984 215.178 386.504C215.05 386.024 214.986 385.524 214.986 385.004C214.986 384.484 215.05 383.984 215.178 383.504C215.306 383.024 215.494 382.588 215.742 382.196C215.99 381.796 216.326 381.476 216.75 381.236C217.174 380.996 217.654 380.876 218.19 380.876C218.726 380.876 219.206 380.996 219.63 381.236C220.054 381.476 220.39 381.796 220.638 382.196C220.886 382.588 221.074 383.024 221.202 383.504C221.33 383.984 221.394 384.484 221.394 385.004C221.394 385.524 221.33 386.024 221.202 386.504C221.074 386.984 220.886 387.424 220.638 387.824C220.39 388.224 220.054 388.544 219.63 388.784ZM216.846 387.08C217.134 387.624 217.582 387.896 218.19 387.896C218.798 387.896 219.246 387.624 219.534 387.08C219.822 386.536 219.966 385.844 219.966 385.004C219.966 384.468 219.91 383.992 219.798 383.576C219.694 383.16 219.502 382.816 219.222 382.544C218.95 382.264 218.606 382.124 218.19 382.124C217.774 382.124 217.426 382.264 217.146 382.544C216.874 382.816 216.682 383.16 216.57 383.576C216.466 383.992 216.414 384.468 216.414 385.004C216.414 385.844 216.558 386.536 216.846 387.08ZM225.597 389H224.193V382.82L222.885 384.176L222.069 383.324L224.373 380.996H225.597V389ZM230.095 389.144C228.807 389.144 227.815 388.732 227.119 387.908L227.923 386.948C228.483 387.58 229.203 387.896 230.083 387.896C230.579 387.896 230.975 387.764 231.271 387.5C231.575 387.228 231.727 386.892 231.727 386.492C231.727 386.06 231.579 385.716 231.283 385.46C230.995 385.196 230.607 385.064 230.119 385.064C229.439 385.064 228.855 385.296 228.367 385.76L227.371 385.472V380.996H232.615V382.232H228.775V384.548C229.239 384.084 229.843 383.852 230.587 383.852C231.291 383.852 231.891 384.088 232.387 384.56C232.891 385.024 233.143 385.648 233.143 386.432C233.143 387.256 232.859 387.916 232.291 388.412C231.731 388.9 230.999 389.144 230.095 389.144Z" fill="black"/>
<path d="M6.87061 450H1.07461V448.896C2.74661 447.632 3.88261 446.696 4.48261 446.088C5.09061 445.472 5.39461 444.892 5.39461 444.348C5.39461 443.956 5.25061 443.656 4.96261 443.448C4.68261 443.232 4.34261 443.124 3.94261 443.124C3.06261 443.124 2.34261 443.444 1.78261 444.084L0.966609 443.16C1.31061 442.744 1.74261 442.428 2.26261 442.212C2.79061 441.988 3.34261 441.876 3.91861 441.876C4.73461 441.876 5.42261 442.096 5.98261 442.536C6.54261 442.976 6.82261 443.58 6.82261 444.348C6.82261 445.036 6.53461 445.72 5.95861 446.4C5.38261 447.08 4.50261 447.868 3.31861 448.764H6.87061V450ZM12.7473 449.784C12.3233 450.024 11.8433 450.144 11.3073 450.144C10.7713 450.144 10.2913 450.024 9.86733 449.784C9.44333 449.544 9.10733 449.224 8.85933 448.824C8.61133 448.424 8.42333 447.984 8.29533 447.504C8.16733 447.024 8.10333 446.524 8.10333 446.004C8.10333 445.484 8.16733 444.984 8.29533 444.504C8.42333 444.024 8.61133 443.588 8.85933 443.196C9.10733 442.796 9.44333 442.476 9.86733 442.236C10.2913 441.996 10.7713 441.876 11.3073 441.876C11.8433 441.876 12.3233 441.996 12.7473 442.236C13.1713 442.476 13.5073 442.796 13.7553 443.196C14.0033 443.588 14.1913 444.024 14.3193 444.504C14.4473 444.984 14.5113 445.484 14.5113 446.004C14.5113 446.524 14.4473 447.024 14.3193 447.504C14.1913 447.984 14.0033 448.424 13.7553 448.824C13.5073 449.224 13.1713 449.544 12.7473 449.784ZM9.96333 448.08C10.2513 448.624 10.6993 448.896 11.3073 448.896C11.9153 448.896 12.3633 448.624 12.6513 448.08C12.9393 447.536 13.0833 446.844 13.0833 446.004C13.0833 445.468 13.0273 444.992 12.9153 444.576C12.8113 444.16 12.6193 443.816 12.3393 443.544C12.0673 443.264 11.7233 443.124 11.3073 443.124C10.8913 443.124 10.5433 443.264 10.2633 443.544C9.99133 443.816 9.79933 444.16 9.68733 444.576C9.58333 444.992 9.53133 445.468 9.53133 446.004C9.53133 446.844 9.67533 447.536 9.96333 448.08ZM18.7139 450H17.3099V443.82L16.0019 445.176L15.1859 444.324L17.4899 441.996H18.7139V450ZM25.1205 450H23.7165V448.188H19.9005V447.06L23.1885 441.996H25.1205V446.952H26.1885V448.188H25.1205V450ZM23.7165 446.952V443.256L21.2805 446.952H23.7165Z" fill="black"/>
<defs>
<linearGradient id="paint0_linear" x1="117" y1="462" x2="117" y2="562" gradientUnits="userSpaceOnUse">
<stop stop-color="#EF7C00"/>
<stop offset="1" stop-color="#EF7C00" stop-opacity="0"/>
</linearGradient>
<linearGradient id="paint1_linear" x1="276.5" y1="400" x2="276.5" y2="562" gradientUnits="userSpaceOnUse">
<stop stop-color="#EF7C00"/>
<stop offset="1" stop-color="#EF7C00" stop-opacity="0"/>
</linearGradient>
<linearGradient id="paint2_linear" x1="387.5" y1="396" x2="387.5" y2="562" gradientUnits="userSpaceOnUse">
<stop stop-color="#EF7C00"/>
<stop offset="1" stop-color="#EF7C00" stop-opacity="0"/>
</linearGradient>
<linearGradient id="paint3_linear" x1="554.5" y1="431" x2="554.5" y2="562" gradientUnits="userSpaceOnUse">
<stop stop-color="#EF7C00"/>
<stop offset="1" stop-color="#EF7C00" stop-opacity="0"/>
</linearGradient>
<linearGradient id="paint4_linear" x1="777.5" y1="390" x2="777.5" y2="562" gradientUnits="userSpaceOnUse">
<stop stop-color="#EF7C00"/>
<stop offset="1" stop-color="#EF7C00" stop-opacity="0"/>
</linearGradient>
<linearGradient id="paint5_linear" x1="945" y1="243" x2="945" y2="562" gradientUnits="userSpaceOnUse">
<stop stop-color="#EF7C00"/>
<stop offset="1" stop-color="#EF7C00" stop-opacity="0"/>
</linearGradient>
<linearGradient id="paint6_linear" x1="1056" y1="90" x2="1056" y2="562" gradientUnits="userSpaceOnUse">
<stop stop-color="#EF7C00"/>
<stop offset="1" stop-color="#EF7C00" stop-opacity="0"/>
</linearGradient>
</defs>
</svg>
