<svg width="160" height="30" viewBox="0 0 160 30" fill="none" xmlns="http://www.w3.org/2000/svg">
<path fill-rule="evenodd" clip-rule="evenodd" d="M63.8439 16.4608L60.2989 22.5564H68.5816L63.8439 16.4608ZM50.4607 30L69.0268 10.4619L69.461 27.884H77.5679L76.5786 2.10526H69.2906L49.9055 29.565L50.4607 30ZM63.9648 0L44.107 29.5059L44.7006 29.9678L68.3343 3.05585L63.9648 0ZM135.756 2.14823H143.286L141.742 11.4286H150.909L152.454 2.14823H160L157.856 15.0376L155.707 27.927H148.161L149.876 17.6423H140.703L138.988 27.927H131.447L133.591 15.0376L135.756 2.14823ZM82.2012 2.14823H101.603L100.581 8.32438H94.6611L91.4019 27.884H83.8556L87.1203 8.32438H81.1679L82.2012 2.14823ZM42.7934 7.80881H38.5394L37.5556 13.7164L41.8096 13.6842C42.6136 13.6265 43.3737 13.3039 43.9657 12.7693C44.5577 12.2347 44.9466 11.5197 45.0689 10.7411C45.3547 9.12997 44.3269 7.80881 42.7934 7.80881ZM31.9384 2.14823H46.1351C50.642 2.14823 53.6485 5.99893 52.8515 10.7411C52.0546 15.4834 47.762 19.3878 43.2606 19.3878H36.6102L35.1757 27.884H27.6459L31.9384 2.14823ZM4.29254 2.14823H11.8388L10.0306 12.9699L19.9622 2.14823H28.8166L16.5216 14.6026L24.8264 27.884H15.3894L9.39301 16.7884L7.54629 27.884H0L4.29254 2.14823ZM116.646 7.7927C120.345 7.7927 122.796 11.0741 122.142 15.1182C121.488 19.1622 117.899 22.449 114.2 22.449C110.501 22.449 108.044 19.1676 108.704 15.1182C109.363 11.0687 112.942 7.7927 116.646 7.7927ZM117.674 1.47154C125.654 1.47154 131.117 7.53491 129.87 15.0054C128.622 22.4758 121.142 28.5446 113.161 28.5446C105.181 28.5446 99.7231 22.4812 100.971 15.0054C102.218 7.52954 109.699 1.47154 117.674 1.47154Z" fill="#EF7C00"/>
</svg>
