<svg width="747" height="268" viewBox="0 0 747 268" fill="none" xmlns="http://www.w3.org/2000/svg">
<g clip-path="url(#clip0)">
<path d="M548.791 158.782H535.888C533.121 158.782 530.87 160.998 530.87 163.722V176.378C530.87 177.351 531.674 178.143 532.662 178.143C533.65 178.143 534.454 177.351 534.454 176.378V163.722H537.321V194.728H540.906V176.331H543.773V194.728H547.357C547.357 194.728 547.357 176.38 547.357 176.378V163.722H550.224V176.379C550.225 177.352 551.028 178.143 552.016 178.143C553.004 178.143 553.808 177.351 553.808 176.378V163.722C553.808 160.998 551.557 158.782 548.791 158.782Z" fill="#484848"/>
<path d="M546.618 151.254C546.618 153.569 544.71 155.459 542.339 155.459C539.969 155.459 538.061 153.569 538.061 151.254C538.061 148.939 539.969 147.049 542.339 147.049C544.71 147.049 546.618 148.939 546.618 151.254Z" fill="#484848" fill-opacity="0.05" stroke="#484848"/>
</g>
<g clip-path="url(#clip1)">
<path d="M355.892 158.782H342.989C340.223 158.782 337.972 160.998 337.972 163.722V176.378C337.972 177.351 338.776 178.143 339.764 178.143C340.752 178.143 341.556 177.351 341.556 176.378V163.722H344.423V194.728H348.007V176.331H350.874V194.728H354.458C354.458 194.728 354.458 176.38 354.458 176.378V163.722H357.326V176.379C357.326 177.352 358.13 178.143 359.118 178.143C360.106 178.143 360.91 177.351 360.91 176.378V163.722C360.91 160.998 358.659 158.782 355.892 158.782Z" fill="#484848"/>
<path d="M353.72 151.254C353.72 153.569 351.811 155.459 349.441 155.459C347.07 155.459 345.162 153.569 345.162 151.254C345.162 148.939 347.07 147.049 349.441 147.049C351.811 147.049 353.72 148.939 353.72 151.254Z" fill="#484848" fill-opacity="0.05" stroke="#484848"/>
</g>
<g clip-path="url(#clip2)">
<path d="M66.5449 158.782H53.6422C50.8754 158.782 48.6245 160.998 48.6245 163.722V176.378C48.6245 177.351 49.4284 178.143 50.4166 178.143C51.4047 178.143 52.2086 177.351 52.2086 176.378V163.722H55.0759V194.728H58.6599V176.331H61.5272V194.728H65.1113C65.1113 194.728 65.1113 176.38 65.1113 176.378V163.722H67.9785V176.379C67.979 177.352 68.7827 178.143 69.7706 178.143C70.7587 178.143 71.5626 177.351 71.5626 176.378V163.722C71.5626 160.998 69.3117 158.782 66.5449 158.782Z" fill="#484848"/>
<path d="M64.3725 151.254C64.3725 153.569 62.4642 155.459 60.0937 155.459C57.7232 155.459 55.8149 153.569 55.8149 151.254C55.8149 148.939 57.7232 147.049 60.0937 147.049C62.4642 147.049 64.3725 148.939 64.3725 151.254Z" fill="#484848" fill-opacity="0.05" stroke="#484848"/>
</g>
<g clip-path="url(#clip3)">
<path d="M18.3203 158.782H5.41761C2.6508 158.782 0.399902 160.998 0.399902 163.722V176.378C0.399902 177.351 1.20379 178.143 2.19194 178.143C3.1801 178.143 3.98398 177.351 3.98398 176.378V163.722H6.85125V194.728H10.4353V176.331H13.3026V194.728H16.8867C16.8867 194.728 16.8867 176.38 16.8867 176.378V163.722H19.7539V176.379C19.7544 177.352 20.5581 178.143 21.546 178.143C22.5341 178.143 23.338 177.351 23.338 176.378V163.722C23.338 160.998 21.0871 158.782 18.3203 158.782Z" fill="#484848"/>
<path d="M16.1479 151.254C16.1479 153.569 14.2396 155.459 11.8691 155.459C9.49864 155.459 7.59033 153.569 7.59033 151.254C7.59033 148.939 9.49864 147.049 11.8691 147.049C14.2396 147.049 16.1479 148.939 16.1479 151.254Z" fill="#484848" fill-opacity="0.05" stroke="#484848"/>
</g>
<g clip-path="url(#clip4)">
<path d="M741.688 158.782H728.786C726.019 158.782 723.768 160.998 723.768 163.722V176.378C723.768 177.351 724.572 178.143 725.56 178.143C726.548 178.143 727.352 177.351 727.352 176.378V163.722H730.219V194.728H733.803V176.331H736.671V194.728H740.255C740.255 194.728 740.255 176.38 740.255 176.378V163.722H743.122V176.379C743.123 177.352 743.926 178.143 744.914 178.143C745.902 178.143 746.706 177.351 746.706 176.378V163.722C746.706 160.998 744.455 158.782 741.688 158.782Z" fill="#484848"/>
<path d="M739.516 151.254C739.516 153.569 737.608 155.459 735.237 155.459C732.867 155.459 730.958 153.569 730.958 151.254C730.958 148.939 732.867 147.049 735.237 147.049C737.608 147.049 739.516 148.939 739.516 151.254Z" fill="#484848" fill-opacity="0.05" stroke="#484848"/>
</g>
<g clip-path="url(#clip5)">
<path d="M548.791 12.2381H535.888C533.121 12.2381 530.87 14.4542 530.87 17.1783V29.8347C530.87 30.8076 531.674 31.5991 532.662 31.5991C533.65 31.5991 534.454 30.8076 534.454 29.8347V17.1783H537.321V48.1842H540.906V29.7877H543.773V48.1842H547.357C547.357 48.1842 547.357 29.8365 547.357 29.8347V17.1783H550.224V29.8357C550.225 30.8081 551.028 31.5991 552.016 31.5991C553.004 31.5991 553.808 30.8076 553.808 29.8347V17.1783C553.808 14.4542 551.557 12.2381 548.791 12.2381Z" fill="#484848"/>
<path d="M546.618 4.71011C546.618 7.02515 544.71 8.91509 542.339 8.91509C539.969 8.91509 538.061 7.02515 538.061 4.71011C538.061 2.39507 539.969 0.505127 542.339 0.505127C544.71 0.505127 546.618 2.39507 546.618 4.71011Z" fill="#484848" fill-opacity="0.05" stroke="#484848"/>
</g>
<g clip-path="url(#clip6)">
<path d="M355.892 12.2381H342.989C340.223 12.2381 337.972 14.4542 337.972 17.1783V29.8347C337.972 30.8076 338.776 31.5991 339.764 31.5991C340.752 31.5991 341.556 30.8076 341.556 29.8347V17.1783H344.423V48.1842H348.007V29.7877H350.874V48.1842H354.458C354.458 48.1842 354.458 29.8365 354.458 29.8347V17.1783H357.326V29.8357C357.326 30.8081 358.13 31.5991 359.118 31.5991C360.106 31.5991 360.91 30.8076 360.91 29.8347V17.1783C360.91 14.4542 358.659 12.2381 355.892 12.2381Z" fill="#484848"/>
<path d="M353.72 4.71011C353.72 7.02515 351.811 8.91509 349.441 8.91509C347.07 8.91509 345.162 7.02515 345.162 4.71011C345.162 2.39507 347.07 0.505127 349.441 0.505127C351.811 0.505127 353.72 2.39507 353.72 4.71011Z" fill="#484848" fill-opacity="0.05" stroke="#484848"/>
</g>
<g clip-path="url(#clip7)">
<path d="M66.5449 12.2381H53.6422C50.8754 12.2381 48.6245 14.4542 48.6245 17.1783V29.8347C48.6245 30.8076 49.4284 31.5991 50.4166 31.5991C51.4047 31.5991 52.2086 30.8076 52.2086 29.8347V17.1783H55.0759V48.1842H58.6599V29.7877H61.5272V48.1842H65.1113C65.1113 48.1842 65.1113 29.8365 65.1113 29.8347V17.1783H67.9785V29.8357C67.979 30.8081 68.7827 31.5991 69.7706 31.5991C70.7587 31.5991 71.5626 30.8076 71.5626 29.8347V17.1783C71.5626 14.4542 69.3117 12.2381 66.5449 12.2381Z" fill="#484848"/>
<path d="M64.3725 4.71011C64.3725 7.02515 62.4642 8.91509 60.0937 8.91509C57.7232 8.91509 55.8149 7.02515 55.8149 4.71011C55.8149 2.39507 57.7232 0.505127 60.0937 0.505127C62.4642 0.505127 64.3725 2.39507 64.3725 4.71011Z" fill="#484848" fill-opacity="0.05" stroke="#484848"/>
</g>
<g clip-path="url(#clip8)">
<path d="M18.3203 12.2381H5.41761C2.6508 12.2381 0.399902 14.4542 0.399902 17.1783V29.8347C0.399902 30.8076 1.20379 31.5991 2.19194 31.5991C3.1801 31.5991 3.98398 30.8076 3.98398 29.8347V17.1783H6.85125V48.1842H10.4353V29.7877H13.3026V48.1842H16.8867C16.8867 48.1842 16.8867 29.8365 16.8867 29.8347V17.1783H19.7539V29.8357C19.7544 30.8081 20.5581 31.5991 21.546 31.5991C22.5341 31.5991 23.338 30.8076 23.338 29.8347V17.1783C23.338 14.4542 21.0871 12.2381 18.3203 12.2381Z" fill="#484848"/>
<path d="M16.1479 4.71011C16.1479 7.02515 14.2396 8.91509 11.8691 8.91509C9.49864 8.91509 7.59033 7.02515 7.59033 4.71011C7.59033 2.39507 9.49864 0.505127 11.8691 0.505127C14.2396 0.505127 16.1479 2.39507 16.1479 4.71011Z" fill="#484848" fill-opacity="0.05" stroke="#484848"/>
</g>
<g clip-path="url(#clip9)">
<path d="M741.688 12.2381H728.786C726.019 12.2381 723.768 14.4542 723.768 17.1783V29.8347C723.768 30.8076 724.572 31.5991 725.56 31.5991C726.548 31.5991 727.352 30.8076 727.352 29.8347V17.1783H730.219V48.1842H733.803V29.7877H736.671V48.1842H740.255C740.255 48.1842 740.255 29.8365 740.255 29.8347V17.1783H743.122V29.8357C743.123 30.8081 743.926 31.5991 744.914 31.5991C745.902 31.5991 746.706 30.8076 746.706 29.8347V17.1783C746.706 14.4542 744.455 12.2381 741.688 12.2381Z" fill="#484848"/>
<path d="M739.516 4.71011C739.516 7.02515 737.608 8.91509 735.237 8.91509C732.867 8.91509 730.958 7.02515 730.958 4.71011C730.958 2.39507 732.867 0.505127 735.237 0.505127C737.608 0.505127 739.516 2.39507 739.516 4.71011Z" fill="#484848" fill-opacity="0.05" stroke="#484848"/>
</g>
<g clip-path="url(#clip10)">
<path d="M548.791 232.054H535.888C533.121 232.054 530.87 234.27 530.87 236.994V249.65C530.87 250.623 531.674 251.415 532.662 251.415C533.65 251.415 534.454 250.623 534.454 249.65V236.994H537.321V268H540.906V249.603H543.773V268H547.357C547.357 268 547.357 249.652 547.357 249.65V236.994H550.224V249.651C550.225 250.624 551.028 251.415 552.016 251.415C553.004 251.415 553.808 250.623 553.808 249.65V236.994C553.808 234.27 551.557 232.054 548.791 232.054Z" fill="#484848"/>
<path d="M546.618 224.526C546.618 226.841 544.71 228.731 542.339 228.731C539.969 228.731 538.061 226.841 538.061 224.526C538.061 222.211 539.969 220.321 542.339 220.321C544.71 220.321 546.618 222.211 546.618 224.526Z" fill="#484848" fill-opacity="0.05" stroke="#484848"/>
</g>
<g clip-path="url(#clip11)">
<path d="M355.892 232.054H342.989C340.223 232.054 337.972 234.27 337.972 236.994V249.65C337.972 250.623 338.776 251.415 339.764 251.415C340.752 251.415 341.556 250.623 341.556 249.65V236.994H344.423V268H348.007V249.603H350.874V268H354.458C354.458 268 354.458 249.652 354.458 249.65V236.994H357.326V249.651C357.326 250.624 358.13 251.415 359.118 251.415C360.106 251.415 360.91 250.623 360.91 249.65V236.994C360.91 234.27 358.659 232.054 355.892 232.054Z" fill="#484848"/>
<path d="M353.72 224.526C353.72 226.841 351.811 228.731 349.441 228.731C347.07 228.731 345.162 226.841 345.162 224.526C345.162 222.211 347.07 220.321 349.441 220.321C351.811 220.321 353.72 222.211 353.72 224.526Z" fill="#484848" fill-opacity="0.05" stroke="#484848"/>
</g>
<g clip-path="url(#clip12)">
<path d="M66.5449 232.054H53.6422C50.8754 232.054 48.6245 234.27 48.6245 236.994V249.65C48.6245 250.623 49.4284 251.415 50.4166 251.415C51.4047 251.415 52.2086 250.623 52.2086 249.65V236.994H55.0759V268H58.6599V249.603H61.5272V268H65.1113C65.1113 268 65.1113 249.652 65.1113 249.65V236.994H67.9785V249.651C67.979 250.624 68.7827 251.415 69.7706 251.415C70.7587 251.415 71.5626 250.623 71.5626 249.65V236.994C71.5626 234.27 69.3117 232.054 66.5449 232.054Z" fill="#484848"/>
<path d="M64.3725 224.526C64.3725 226.841 62.4642 228.731 60.0937 228.731C57.7232 228.731 55.8149 226.841 55.8149 224.526C55.8149 222.211 57.7232 220.321 60.0937 220.321C62.4642 220.321 64.3725 222.211 64.3725 224.526Z" fill="#484848" fill-opacity="0.05" stroke="#484848"/>
</g>
<g clip-path="url(#clip13)">
<path d="M18.3203 232.054H5.41761C2.6508 232.054 0.399902 234.27 0.399902 236.994V249.65C0.399902 250.623 1.20379 251.415 2.19194 251.415C3.1801 251.415 3.98398 250.623 3.98398 249.65V236.994H6.85125V268H10.4353V249.603H13.3026V268H16.8867C16.8867 268 16.8867 249.652 16.8867 249.65V236.994H19.7539V249.651C19.7544 250.624 20.5581 251.415 21.546 251.415C22.5341 251.415 23.338 250.623 23.338 249.65V236.994C23.338 234.27 21.0871 232.054 18.3203 232.054Z" fill="#484848"/>
<path d="M16.1479 224.526C16.1479 226.841 14.2396 228.731 11.8691 228.731C9.49864 228.731 7.59033 226.841 7.59033 224.526C7.59033 222.211 9.49864 220.321 11.8691 220.321C14.2396 220.321 16.1479 222.211 16.1479 224.526Z" fill="#484848" fill-opacity="0.05" stroke="#484848"/>
</g>
<g clip-path="url(#clip14)">
<path d="M741.688 232.054H728.786C726.019 232.054 723.768 234.27 723.768 236.994V249.65C723.768 250.623 724.572 251.415 725.56 251.415C726.548 251.415 727.352 250.623 727.352 249.65V236.994H730.219V268H733.803V249.603H736.671V268H740.255C740.255 268 740.255 249.652 740.255 249.65V236.994H743.122V249.651C743.123 250.624 743.926 251.415 744.914 251.415C745.902 251.415 746.706 250.623 746.706 249.65V236.994C746.706 234.27 744.455 232.054 741.688 232.054Z" fill="#484848"/>
<path d="M739.516 224.526C739.516 226.841 737.608 228.731 735.237 228.731C732.867 228.731 730.958 226.841 730.958 224.526C730.958 222.211 732.867 220.321 735.237 220.321C737.608 220.321 739.516 222.211 739.516 224.526Z" fill="#484848" fill-opacity="0.05" stroke="#484848"/>
</g>
<g clip-path="url(#clip15)">
<path d="M548.791 85.5095H535.888C533.121 85.5095 530.87 87.7256 530.87 90.4497V103.106C530.87 104.079 531.674 104.87 532.662 104.87C533.65 104.87 534.454 104.079 534.454 103.106V90.4497H537.321V121.456H540.906V103.059H543.773V121.456H547.357C547.357 121.456 547.357 103.108 547.357 103.106V90.4497H550.224V103.107C550.225 104.079 551.028 104.87 552.016 104.87C553.004 104.87 553.808 104.079 553.808 103.106V90.4497C553.808 87.7256 551.557 85.5095 548.791 85.5095Z" fill="#484848"/>
<path d="M546.618 77.9815C546.618 80.2965 544.71 82.1865 542.339 82.1865C539.969 82.1865 538.061 80.2965 538.061 77.9815C538.061 75.6664 539.969 73.7765 542.339 73.7765C544.71 73.7765 546.618 75.6664 546.618 77.9815Z" fill="#484848" fill-opacity="0.05" stroke="#484848"/>
</g>
<g clip-path="url(#clip16)">
<path d="M355.892 85.5095H342.989C340.223 85.5095 337.972 87.7256 337.972 90.4497V103.106C337.972 104.079 338.776 104.87 339.764 104.87C340.752 104.87 341.556 104.079 341.556 103.106V90.4497H344.423V121.456H348.007V103.059H350.874V121.456H354.458C354.458 121.456 354.458 103.108 354.458 103.106V90.4497H357.326V103.107C357.326 104.079 358.13 104.87 359.118 104.87C360.106 104.87 360.91 104.079 360.91 103.106V90.4497C360.91 87.7256 358.659 85.5095 355.892 85.5095Z" fill="#484848"/>
<path d="M353.72 77.9815C353.72 80.2965 351.811 82.1865 349.441 82.1865C347.07 82.1865 345.162 80.2965 345.162 77.9815C345.162 75.6664 347.07 73.7765 349.441 73.7765C351.811 73.7765 353.72 75.6664 353.72 77.9815Z" fill="#484848" fill-opacity="0.05" stroke="#484848"/>
</g>
<g clip-path="url(#clip17)">
<path d="M66.5449 85.5095H53.6422C50.8754 85.5095 48.6245 87.7256 48.6245 90.4497V103.106C48.6245 104.079 49.4284 104.87 50.4166 104.87C51.4047 104.87 52.2086 104.079 52.2086 103.106V90.4497H55.0759V121.456H58.6599V103.059H61.5272V121.456H65.1113C65.1113 121.456 65.1113 103.108 65.1113 103.106V90.4497H67.9785V103.107C67.979 104.079 68.7827 104.87 69.7706 104.87C70.7587 104.87 71.5626 104.079 71.5626 103.106V90.4497C71.5626 87.7256 69.3117 85.5095 66.5449 85.5095Z" fill="#484848"/>
<path d="M64.3725 77.9815C64.3725 80.2965 62.4642 82.1865 60.0937 82.1865C57.7232 82.1865 55.8149 80.2965 55.8149 77.9815C55.8149 75.6664 57.7232 73.7765 60.0937 73.7765C62.4642 73.7765 64.3725 75.6664 64.3725 77.9815Z" fill="#484848" fill-opacity="0.05" stroke="#484848"/>
</g>
<g clip-path="url(#clip18)">
<path d="M18.3203 85.5095H5.41761C2.6508 85.5095 0.399902 87.7256 0.399902 90.4497V103.106C0.399902 104.079 1.20379 104.87 2.19194 104.87C3.1801 104.87 3.98398 104.079 3.98398 103.106V90.4497H6.85125V121.456H10.4353V103.059H13.3026V121.456H16.8867C16.8867 121.456 16.8867 103.108 16.8867 103.106V90.4497H19.7539V103.107C19.7544 104.079 20.5581 104.87 21.546 104.87C22.5341 104.87 23.338 104.079 23.338 103.106V90.4497C23.338 87.7256 21.0871 85.5095 18.3203 85.5095Z" fill="#484848"/>
<path d="M16.1479 77.9815C16.1479 80.2965 14.2396 82.1865 11.8691 82.1865C9.49864 82.1865 7.59033 80.2965 7.59033 77.9815C7.59033 75.6664 9.49864 73.7765 11.8691 73.7765C14.2396 73.7765 16.1479 75.6664 16.1479 77.9815Z" fill="#484848" fill-opacity="0.05" stroke="#484848"/>
</g>
<g clip-path="url(#clip19)">
<path d="M741.688 85.5095H728.786C726.019 85.5095 723.768 87.7256 723.768 90.4497V103.106C723.768 104.079 724.572 104.87 725.56 104.87C726.548 104.87 727.352 104.079 727.352 103.106V90.4497H730.219V121.456H733.803V103.059H736.671V121.456H740.255C740.255 121.456 740.255 103.108 740.255 103.106V90.4497H743.122V103.107C743.123 104.079 743.926 104.87 744.914 104.87C745.902 104.87 746.706 104.079 746.706 103.106V90.4497C746.706 87.7256 744.455 85.5095 741.688 85.5095Z" fill="#484848"/>
<path d="M739.516 77.9815C739.516 80.2965 737.608 82.1865 735.237 82.1865C732.867 82.1865 730.958 80.2965 730.958 77.9815C730.958 75.6664 732.867 73.7765 735.237 73.7765C737.608 73.7765 739.516 75.6664 739.516 77.9815Z" fill="#484848" fill-opacity="0.05" stroke="#484848"/>
</g>
<g clip-path="url(#clip20)">
<path d="M597.015 158.782H584.112C581.346 158.782 579.095 160.998 579.095 163.722V176.378C579.095 177.351 579.899 178.143 580.887 178.143C581.875 178.143 582.679 177.351 582.679 176.378V163.722H585.546V194.728H589.13V176.331H591.997V194.728H595.581C595.581 194.728 595.581 176.38 595.581 176.378V163.722H598.449V176.379C598.449 177.352 599.253 178.143 600.241 178.143C601.229 178.143 602.033 177.351 602.033 176.378V163.722C602.033 160.998 599.782 158.782 597.015 158.782Z" fill="#484848"/>
<path d="M594.843 151.254C594.843 153.569 592.934 155.459 590.564 155.459C588.193 155.459 586.285 153.569 586.285 151.254C586.285 148.939 588.193 147.049 590.564 147.049C592.934 147.049 594.843 148.939 594.843 151.254Z" fill="#484848" fill-opacity="0.05" stroke="#484848"/>
</g>
<g clip-path="url(#clip21)">
<path d="M404.117 158.782H391.214C388.447 158.782 386.196 160.998 386.196 163.722V176.378C386.196 177.351 387 178.143 387.988 178.143C388.976 178.143 389.78 177.351 389.78 176.378V163.722H392.648V194.728H396.232V176.331H399.099V194.728H402.683C402.683 194.728 402.683 176.38 402.683 176.378V163.722H405.55V176.379C405.551 177.352 406.354 178.143 407.342 178.143C408.331 178.143 409.134 177.351 409.134 176.378V163.722C409.134 160.998 406.884 158.782 404.117 158.782Z" fill="#484848"/>
<path d="M401.944 151.254C401.944 153.569 400.036 155.459 397.665 155.459C395.295 155.459 393.387 153.569 393.387 151.254C393.387 148.939 395.295 147.049 397.665 147.049C400.036 147.049 401.944 148.939 401.944 151.254Z" fill="#484848" fill-opacity="0.05" stroke="#484848"/>
</g>
<g clip-path="url(#clip22)">
<path d="M211.218 158.782H198.316C195.549 158.782 193.298 160.998 193.298 163.722V176.378C193.298 177.351 194.102 178.143 195.09 178.143C196.078 178.143 196.882 177.351 196.882 176.378V163.722H199.749V194.728H203.333V176.331H206.201V194.728H209.785C209.785 194.728 209.785 176.38 209.785 176.378V163.722H212.652V176.379C212.652 177.352 213.456 178.143 214.444 178.143C215.432 178.143 216.236 177.351 216.236 176.378V163.722C216.236 160.998 213.985 158.782 211.218 158.782Z" fill="#484848"/>
<path d="M209.046 151.254C209.046 153.569 207.138 155.459 204.767 155.459C202.397 155.459 200.488 153.569 200.488 151.254C200.488 148.939 202.397 147.049 204.767 147.049C207.138 147.049 209.046 148.939 209.046 151.254Z" fill="#484848" fill-opacity="0.05" stroke="#484848"/>
</g>
<g clip-path="url(#clip23)">
<path d="M114.769 158.782H101.866C99.0995 158.782 96.8486 160.998 96.8486 163.722V176.378C96.8486 177.351 97.6525 178.143 98.6407 178.143C99.6288 178.143 100.433 177.351 100.433 176.378V163.722H103.3V194.728H106.884V176.331H109.751V194.728H113.335C113.335 194.728 113.335 176.38 113.335 176.378V163.722H116.203V176.379C116.203 177.352 117.007 178.143 117.995 178.143C118.983 178.143 119.787 177.351 119.787 176.378V163.722C119.787 160.998 117.536 158.782 114.769 158.782Z" fill="#484848"/>
<path d="M112.597 151.254C112.597 153.569 110.688 155.459 108.318 155.459C105.947 155.459 104.039 153.569 104.039 151.254C104.039 148.939 105.947 147.049 108.318 147.049C110.688 147.049 112.597 148.939 112.597 151.254Z" fill="#484848" fill-opacity="0.05" stroke="#484848"/>
</g>
<g clip-path="url(#clip24)">
<path d="M597.015 12.2381H584.112C581.346 12.2381 579.095 14.4542 579.095 17.1783V29.8347C579.095 30.8076 579.899 31.5991 580.887 31.5991C581.875 31.5991 582.679 30.8076 582.679 29.8347V17.1783H585.546V48.1842H589.13V29.7877H591.997V48.1842H595.581C595.581 48.1842 595.581 29.8365 595.581 29.8347V17.1783H598.449V29.8357C598.449 30.8081 599.253 31.5991 600.241 31.5991C601.229 31.5991 602.033 30.8076 602.033 29.8347V17.1783C602.033 14.4542 599.782 12.2381 597.015 12.2381Z" fill="#484848"/>
<path d="M594.843 4.71011C594.843 7.02515 592.934 8.91509 590.564 8.91509C588.193 8.91509 586.285 7.02515 586.285 4.71011C586.285 2.39507 588.193 0.505127 590.564 0.505127C592.934 0.505127 594.843 2.39507 594.843 4.71011Z" fill="#484848" fill-opacity="0.05" stroke="#484848"/>
</g>
<g clip-path="url(#clip25)">
<path d="M404.117 12.2381H391.214C388.447 12.2381 386.196 14.4542 386.196 17.1783V29.8347C386.196 30.8076 387 31.5991 387.988 31.5991C388.976 31.5991 389.78 30.8076 389.78 29.8347V17.1783H392.648V48.1842H396.232V29.7877H399.099V48.1842H402.683C402.683 48.1842 402.683 29.8365 402.683 29.8347V17.1783H405.55V29.8357C405.551 30.8081 406.354 31.5991 407.342 31.5991C408.331 31.5991 409.134 30.8076 409.134 29.8347V17.1783C409.134 14.4542 406.884 12.2381 404.117 12.2381Z" fill="#484848"/>
<path d="M401.944 4.71011C401.944 7.02515 400.036 8.91509 397.665 8.91509C395.295 8.91509 393.387 7.02515 393.387 4.71011C393.387 2.39507 395.295 0.505127 397.665 0.505127C400.036 0.505127 401.944 2.39507 401.944 4.71011Z" fill="#484848" fill-opacity="0.05" stroke="#484848"/>
</g>
<g clip-path="url(#clip26)">
<path d="M211.218 12.2381H198.316C195.549 12.2381 193.298 14.4542 193.298 17.1783V29.8347C193.298 30.8076 194.102 31.5991 195.09 31.5991C196.078 31.5991 196.882 30.8076 196.882 29.8347V17.1783H199.749V48.1842H203.333V29.7877H206.201V48.1842H209.785C209.785 48.1842 209.785 29.8365 209.785 29.8347V17.1783H212.652V29.8357C212.652 30.8081 213.456 31.5991 214.444 31.5991C215.432 31.5991 216.236 30.8076 216.236 29.8347V17.1783C216.236 14.4542 213.985 12.2381 211.218 12.2381Z" fill="#484848"/>
<path d="M209.046 4.71011C209.046 7.02515 207.138 8.91509 204.767 8.91509C202.397 8.91509 200.488 7.02515 200.488 4.71011C200.488 2.39507 202.397 0.505127 204.767 0.505127C207.138 0.505127 209.046 2.39507 209.046 4.71011Z" fill="#484848" fill-opacity="0.05" stroke="#484848"/>
</g>
<g clip-path="url(#clip27)">
<path d="M114.769 12.2381H101.866C99.0995 12.2381 96.8486 14.4542 96.8486 17.1783V29.8347C96.8486 30.8076 97.6525 31.5991 98.6407 31.5991C99.6288 31.5991 100.433 30.8076 100.433 29.8347V17.1783H103.3V48.1842H106.884V29.7877H109.751V48.1842H113.335C113.335 48.1842 113.335 29.8365 113.335 29.8347V17.1783H116.203V29.8357C116.203 30.8081 117.007 31.5991 117.995 31.5991C118.983 31.5991 119.787 30.8076 119.787 29.8347V17.1783C119.787 14.4542 117.536 12.2381 114.769 12.2381Z" fill="#484848"/>
<path d="M112.597 4.71011C112.597 7.02515 110.688 8.91509 108.318 8.91509C105.947 8.91509 104.039 7.02515 104.039 4.71011C104.039 2.39507 105.947 0.505127 108.318 0.505127C110.688 0.505127 112.597 2.39507 112.597 4.71011Z" fill="#484848" fill-opacity="0.05" stroke="#484848"/>
</g>
<g clip-path="url(#clip28)">
<path d="M597.015 232.054H584.112C581.346 232.054 579.095 234.27 579.095 236.994V249.65C579.095 250.623 579.899 251.415 580.887 251.415C581.875 251.415 582.679 250.623 582.679 249.65V236.994H585.546V268H589.13V249.603H591.997V268H595.581C595.581 268 595.581 249.652 595.581 249.65V236.994H598.449V249.651C598.449 250.624 599.253 251.415 600.241 251.415C601.229 251.415 602.033 250.623 602.033 249.65V236.994C602.033 234.27 599.782 232.054 597.015 232.054Z" fill="#484848"/>
<path d="M594.843 224.526C594.843 226.841 592.934 228.731 590.564 228.731C588.193 228.731 586.285 226.841 586.285 224.526C586.285 222.211 588.193 220.321 590.564 220.321C592.934 220.321 594.843 222.211 594.843 224.526Z" fill="#484848" fill-opacity="0.05" stroke="#484848"/>
</g>
<g clip-path="url(#clip29)">
<path d="M404.117 232.054H391.214C388.447 232.054 386.196 234.27 386.196 236.994V249.65C386.196 250.623 387 251.415 387.988 251.415C388.976 251.415 389.78 250.623 389.78 249.65V236.994H392.648V268H396.232V249.603H399.099V268H402.683C402.683 268 402.683 249.652 402.683 249.65V236.994H405.55V249.651C405.551 250.624 406.354 251.415 407.342 251.415C408.331 251.415 409.134 250.623 409.134 249.65V236.994C409.134 234.27 406.884 232.054 404.117 232.054Z" fill="#484848"/>
<path d="M401.944 224.526C401.944 226.841 400.036 228.731 397.665 228.731C395.295 228.731 393.387 226.841 393.387 224.526C393.387 222.211 395.295 220.321 397.665 220.321C400.036 220.321 401.944 222.211 401.944 224.526Z" fill="#484848" fill-opacity="0.05" stroke="#484848"/>
</g>
<g clip-path="url(#clip30)">
<path d="M211.218 232.054H198.316C195.549 232.054 193.298 234.27 193.298 236.994V249.65C193.298 250.623 194.102 251.415 195.09 251.415C196.078 251.415 196.882 250.623 196.882 249.65V236.994H199.749V268H203.333V249.603H206.201V268H209.785C209.785 268 209.785 249.652 209.785 249.65V236.994H212.652V249.651C212.652 250.624 213.456 251.415 214.444 251.415C215.432 251.415 216.236 250.623 216.236 249.65V236.994C216.236 234.27 213.985 232.054 211.218 232.054Z" fill="#484848"/>
<path d="M209.046 224.526C209.046 226.841 207.138 228.731 204.767 228.731C202.397 228.731 200.488 226.841 200.488 224.526C200.488 222.211 202.397 220.321 204.767 220.321C207.138 220.321 209.046 222.211 209.046 224.526Z" fill="#484848" fill-opacity="0.05" stroke="#484848"/>
</g>
<g clip-path="url(#clip31)">
<path d="M114.769 232.054H101.866C99.0995 232.054 96.8486 234.27 96.8486 236.994V249.65C96.8486 250.623 97.6525 251.415 98.6407 251.415C99.6288 251.415 100.433 250.623 100.433 249.65V236.994H103.3V268H106.884V249.603H109.751V268H113.335C113.335 268 113.335 249.652 113.335 249.65V236.994H116.203V249.651C116.203 250.624 117.007 251.415 117.995 251.415C118.983 251.415 119.787 250.623 119.787 249.65V236.994C119.787 234.27 117.536 232.054 114.769 232.054Z" fill="#484848"/>
<path d="M112.597 224.526C112.597 226.841 110.688 228.731 108.318 228.731C105.947 228.731 104.039 226.841 104.039 224.526C104.039 222.211 105.947 220.321 108.318 220.321C110.688 220.321 112.597 222.211 112.597 224.526Z" fill="#484848" fill-opacity="0.05" stroke="#484848"/>
</g>
<g clip-path="url(#clip32)">
<path d="M597.015 85.5095H584.112C581.346 85.5095 579.095 87.7256 579.095 90.4497V103.106C579.095 104.079 579.899 104.87 580.887 104.87C581.875 104.87 582.679 104.079 582.679 103.106V90.4497H585.546V121.456H589.13V103.059H591.997V121.456H595.581C595.581 121.456 595.581 103.108 595.581 103.106V90.4497H598.449V103.107C598.449 104.079 599.253 104.87 600.241 104.87C601.229 104.87 602.033 104.079 602.033 103.106V90.4497C602.033 87.7256 599.782 85.5095 597.015 85.5095Z" fill="#484848"/>
<path d="M594.843 77.9815C594.843 80.2965 592.934 82.1865 590.564 82.1865C588.193 82.1865 586.285 80.2965 586.285 77.9815C586.285 75.6664 588.193 73.7765 590.564 73.7765C592.934 73.7765 594.843 75.6664 594.843 77.9815Z" fill="#484848" fill-opacity="0.05" stroke="#484848"/>
</g>
<g clip-path="url(#clip33)">
<path d="M404.117 85.5095H391.214C388.447 85.5095 386.196 87.7256 386.196 90.4497V103.106C386.196 104.079 387 104.87 387.988 104.87C388.976 104.87 389.78 104.079 389.78 103.106V90.4497H392.648V121.456H396.232V103.059H399.099V121.456H402.683C402.683 121.456 402.683 103.108 402.683 103.106V90.4497H405.55V103.107C405.551 104.079 406.354 104.87 407.342 104.87C408.331 104.87 409.134 104.079 409.134 103.106V90.4497C409.134 87.7256 406.884 85.5095 404.117 85.5095Z" fill="#484848"/>
<path d="M401.944 77.9815C401.944 80.2965 400.036 82.1865 397.665 82.1865C395.295 82.1865 393.387 80.2965 393.387 77.9815C393.387 75.6664 395.295 73.7765 397.665 73.7765C400.036 73.7765 401.944 75.6664 401.944 77.9815Z" fill="#484848" fill-opacity="0.05" stroke="#484848"/>
</g>
<g clip-path="url(#clip34)">
<path d="M211.218 85.5095H198.316C195.549 85.5095 193.298 87.7256 193.298 90.4497V103.106C193.298 104.079 194.102 104.87 195.09 104.87C196.078 104.87 196.882 104.079 196.882 103.106V90.4497H199.749V121.456H203.333V103.059H206.201V121.456H209.785C209.785 121.456 209.785 103.108 209.785 103.106V90.4497H212.652V103.107C212.652 104.079 213.456 104.87 214.444 104.87C215.432 104.87 216.236 104.079 216.236 103.106V90.4497C216.236 87.7256 213.985 85.5095 211.218 85.5095Z" fill="#484848"/>
<path d="M209.046 77.9815C209.046 80.2965 207.138 82.1865 204.767 82.1865C202.397 82.1865 200.488 80.2965 200.488 77.9815C200.488 75.6664 202.397 73.7765 204.767 73.7765C207.138 73.7765 209.046 75.6664 209.046 77.9815Z" fill="#484848" fill-opacity="0.05" stroke="#484848"/>
</g>
<g clip-path="url(#clip35)">
<path d="M114.769 85.5095H101.866C99.0995 85.5095 96.8486 87.7256 96.8486 90.4497V103.106C96.8486 104.079 97.6525 104.87 98.6407 104.87C99.6288 104.87 100.433 104.079 100.433 103.106V90.4497H103.3V121.456H106.884V103.059H109.751V121.456H113.335C113.335 121.456 113.335 103.108 113.335 103.106V90.4497H116.203V103.107C116.203 104.079 117.007 104.87 117.995 104.87C118.983 104.87 119.787 104.079 119.787 103.106V90.4497C119.787 87.7256 117.536 85.5095 114.769 85.5095Z" fill="#484848"/>
<path d="M112.597 77.9815C112.597 80.2965 110.688 82.1865 108.318 82.1865C105.947 82.1865 104.039 80.2965 104.039 77.9815C104.039 75.6664 105.947 73.7765 108.318 73.7765C110.688 73.7765 112.597 75.6664 112.597 77.9815Z" fill="#484848" fill-opacity="0.05" stroke="#484848"/>
</g>
<g clip-path="url(#clip36)">
<path d="M693.464 158.782H680.561C677.794 158.782 675.543 160.998 675.543 163.722V176.378C675.543 177.351 676.347 178.143 677.335 178.143C678.324 178.143 679.128 177.351 679.128 176.378V163.722H681.995V194.728H685.579V176.331H688.446V194.728H692.03C692.03 194.728 692.03 176.38 692.03 176.378V163.722H694.897V176.379C694.898 177.352 695.702 178.143 696.69 178.143C697.678 178.143 698.482 177.351 698.482 176.378V163.722C698.482 160.998 696.231 158.782 693.464 158.782Z" fill="#484848"/>
<path d="M691.291 151.254C691.291 153.569 689.383 155.459 687.013 155.459C684.642 155.459 682.734 153.569 682.734 151.254C682.734 148.939 684.642 147.049 687.013 147.049C689.383 147.049 691.291 148.939 691.291 151.254Z" fill="#484848" fill-opacity="0.05" stroke="#484848"/>
</g>
<g clip-path="url(#clip37)">
<path d="M500.566 158.782H487.663C484.896 158.782 482.646 160.998 482.646 163.722V176.378C482.646 177.351 483.449 178.143 484.438 178.143C485.426 178.143 486.23 177.351 486.23 176.378V163.722H489.097V194.728H492.681V176.331H495.548V194.728H499.132C499.132 194.728 499.132 176.38 499.132 176.378V163.722H502V176.379C502 177.352 502.804 178.143 503.792 178.143C504.78 178.143 505.584 177.351 505.584 176.378V163.722C505.584 160.998 503.333 158.782 500.566 158.782Z" fill="#484848"/>
<path d="M498.393 151.254C498.393 153.569 496.485 155.459 494.115 155.459C491.744 155.459 489.836 153.569 489.836 151.254C489.836 148.939 491.744 147.049 494.115 147.049C496.485 147.049 498.393 148.939 498.393 151.254Z" fill="#484848" fill-opacity="0.05" stroke="#484848"/>
</g>
<g clip-path="url(#clip38)">
<path d="M307.667 158.782H294.765C291.998 158.782 289.747 160.998 289.747 163.722V176.378C289.747 177.351 290.551 178.143 291.539 178.143C292.527 178.143 293.331 177.351 293.331 176.378V163.722H296.198V194.728H299.782V176.331H302.65V194.728H306.234C306.234 194.728 306.234 176.38 306.234 176.378V163.722H309.101V176.379C309.102 177.352 309.905 178.143 310.893 178.143C311.881 178.143 312.685 177.351 312.685 176.378V163.722C312.685 160.998 310.434 158.782 307.667 158.782Z" fill="#484848"/>
<path d="M305.495 151.254C305.495 153.569 303.587 155.459 301.216 155.459C298.846 155.459 296.938 153.569 296.938 151.254C296.938 148.939 298.846 147.049 301.216 147.049C303.587 147.049 305.495 148.939 305.495 151.254Z" fill="#484848" fill-opacity="0.05" stroke="#484848"/>
</g>
<g clip-path="url(#clip39)">
<path d="M693.464 12.2381H680.561C677.794 12.2381 675.543 14.4542 675.543 17.1783V29.8347C675.543 30.8076 676.347 31.5991 677.335 31.5991C678.324 31.5991 679.128 30.8076 679.128 29.8347V17.1783H681.995V48.1842H685.579V29.7877H688.446V48.1842H692.03C692.03 48.1842 692.03 29.8365 692.03 29.8347V17.1783H694.897V29.8357C694.898 30.8081 695.702 31.5991 696.69 31.5991C697.678 31.5991 698.482 30.8076 698.482 29.8347V17.1783C698.482 14.4542 696.231 12.2381 693.464 12.2381Z" fill="#484848"/>
<path d="M691.291 4.71011C691.291 7.02515 689.383 8.91509 687.013 8.91509C684.642 8.91509 682.734 7.02515 682.734 4.71011C682.734 2.39507 684.642 0.505127 687.013 0.505127C689.383 0.505127 691.291 2.39507 691.291 4.71011Z" fill="#484848" fill-opacity="0.05" stroke="#484848"/>
</g>
<g clip-path="url(#clip40)">
<path d="M500.566 12.2381H487.663C484.896 12.2381 482.646 14.4542 482.646 17.1783V29.8347C482.646 30.8076 483.449 31.5991 484.438 31.5991C485.426 31.5991 486.23 30.8076 486.23 29.8347V17.1783H489.097V48.1842H492.681V29.7877H495.548V48.1842H499.132C499.132 48.1842 499.132 29.8365 499.132 29.8347V17.1783H502V29.8357C502 30.8081 502.804 31.5991 503.792 31.5991C504.78 31.5991 505.584 30.8076 505.584 29.8347V17.1783C505.584 14.4542 503.333 12.2381 500.566 12.2381Z" fill="#484848"/>
<path d="M498.393 4.71011C498.393 7.02515 496.485 8.91509 494.115 8.91509C491.744 8.91509 489.836 7.02515 489.836 4.71011C489.836 2.39507 491.744 0.505127 494.115 0.505127C496.485 0.505127 498.393 2.39507 498.393 4.71011Z" fill="#484848" fill-opacity="0.05" stroke="#484848"/>
</g>
<g clip-path="url(#clip41)">
<path d="M307.667 12.2381H294.765C291.998 12.2381 289.747 14.4542 289.747 17.1783V29.8347C289.747 30.8076 290.551 31.5991 291.539 31.5991C292.527 31.5991 293.331 30.8076 293.331 29.8347V17.1783H296.198V48.1842H299.782V29.7877H302.65V48.1842H306.234C306.234 48.1842 306.234 29.8365 306.234 29.8347V17.1783H309.101V29.8357C309.102 30.8081 309.905 31.5991 310.893 31.5991C311.881 31.5991 312.685 30.8076 312.685 29.8347V17.1783C312.685 14.4542 310.434 12.2381 307.667 12.2381Z" fill="#484848"/>
<path d="M305.495 4.71011C305.495 7.02515 303.587 8.91509 301.216 8.91509C298.846 8.91509 296.938 7.02515 296.938 4.71011C296.938 2.39507 298.846 0.505127 301.216 0.505127C303.587 0.505127 305.495 2.39507 305.495 4.71011Z" fill="#484848" fill-opacity="0.05" stroke="#484848"/>
</g>
<g clip-path="url(#clip42)">
<path d="M693.464 232.054H680.561C677.794 232.054 675.543 234.27 675.543 236.994V249.65C675.543 250.623 676.347 251.415 677.335 251.415C678.324 251.415 679.128 250.623 679.128 249.65V236.994H681.995V268H685.579V249.603H688.446V268H692.03C692.03 268 692.03 249.652 692.03 249.65V236.994H694.897V249.651C694.898 250.624 695.702 251.415 696.69 251.415C697.678 251.415 698.482 250.623 698.482 249.65V236.994C698.482 234.27 696.231 232.054 693.464 232.054Z" fill="#484848"/>
<path d="M691.291 224.526C691.291 226.841 689.383 228.731 687.013 228.731C684.642 228.731 682.734 226.841 682.734 224.526C682.734 222.211 684.642 220.321 687.013 220.321C689.383 220.321 691.291 222.211 691.291 224.526Z" fill="#484848" fill-opacity="0.05" stroke="#484848"/>
</g>
<g clip-path="url(#clip43)">
<path d="M500.566 232.054H487.663C484.896 232.054 482.646 234.27 482.646 236.994V249.65C482.646 250.623 483.449 251.415 484.438 251.415C485.426 251.415 486.23 250.623 486.23 249.65V236.994H489.097V268H492.681V249.603H495.548V268H499.132C499.132 268 499.132 249.652 499.132 249.65V236.994H502V249.651C502 250.624 502.804 251.415 503.792 251.415C504.78 251.415 505.584 250.623 505.584 249.65V236.994C505.584 234.27 503.333 232.054 500.566 232.054Z" fill="#484848"/>
<path d="M498.393 224.526C498.393 226.841 496.485 228.731 494.115 228.731C491.744 228.731 489.836 226.841 489.836 224.526C489.836 222.211 491.744 220.321 494.115 220.321C496.485 220.321 498.393 222.211 498.393 224.526Z" fill="#484848" fill-opacity="0.05" stroke="#484848"/>
</g>
<g clip-path="url(#clip44)">
<path d="M307.667 232.054H294.765C291.998 232.054 289.747 234.27 289.747 236.994V249.65C289.747 250.623 290.551 251.415 291.539 251.415C292.527 251.415 293.331 250.623 293.331 249.65V236.994H296.198V268H299.782V249.603H302.65V268H306.234C306.234 268 306.234 249.652 306.234 249.65V236.994H309.101V249.651C309.102 250.624 309.905 251.415 310.893 251.415C311.881 251.415 312.685 250.623 312.685 249.65V236.994C312.685 234.27 310.434 232.054 307.667 232.054Z" fill="#484848"/>
<path d="M305.495 224.526C305.495 226.841 303.587 228.731 301.216 228.731C298.846 228.731 296.938 226.841 296.938 224.526C296.938 222.211 298.846 220.321 301.216 220.321C303.587 220.321 305.495 222.211 305.495 224.526Z" fill="#484848" fill-opacity="0.05" stroke="#484848"/>
</g>
<g clip-path="url(#clip45)">
<path d="M693.464 85.5095H680.561C677.794 85.5095 675.543 87.7256 675.543 90.4497V103.106C675.543 104.079 676.347 104.87 677.335 104.87C678.324 104.87 679.128 104.079 679.128 103.106V90.4497H681.995V121.456H685.579V103.059H688.446V121.456H692.03C692.03 121.456 692.03 103.108 692.03 103.106V90.4497H694.897V103.107C694.898 104.079 695.702 104.87 696.69 104.87C697.678 104.87 698.482 104.079 698.482 103.106V90.4497C698.482 87.7256 696.231 85.5095 693.464 85.5095Z" fill="#484848"/>
<path d="M691.291 77.9815C691.291 80.2965 689.383 82.1865 687.013 82.1865C684.642 82.1865 682.734 80.2965 682.734 77.9815C682.734 75.6664 684.642 73.7765 687.013 73.7765C689.383 73.7765 691.291 75.6664 691.291 77.9815Z" fill="#484848" fill-opacity="0.05" stroke="#484848"/>
</g>
<g clip-path="url(#clip46)">
<path d="M500.566 85.5095H487.663C484.896 85.5095 482.646 87.7256 482.646 90.4497V103.106C482.646 104.079 483.449 104.87 484.438 104.87C485.426 104.87 486.23 104.079 486.23 103.106V90.4497H489.097V121.456H492.681V103.059H495.548V121.456H499.132C499.132 121.456 499.132 103.108 499.132 103.106V90.4497H502V103.107C502 104.079 502.804 104.87 503.792 104.87C504.78 104.87 505.584 104.079 505.584 103.106V90.4497C505.584 87.7256 503.333 85.5095 500.566 85.5095Z" fill="#484848"/>
<path d="M498.393 77.9815C498.393 80.2965 496.485 82.1865 494.115 82.1865C491.744 82.1865 489.836 80.2965 489.836 77.9815C489.836 75.6664 491.744 73.7765 494.115 73.7765C496.485 73.7765 498.393 75.6664 498.393 77.9815Z" fill="#484848" fill-opacity="0.05" stroke="#484848"/>
</g>
<g clip-path="url(#clip47)">
<path d="M307.667 85.5095H294.765C291.998 85.5095 289.747 87.7256 289.747 90.4497V103.106C289.747 104.079 290.551 104.87 291.539 104.87C292.527 104.87 293.331 104.079 293.331 103.106V90.4497H296.198V121.456H299.782V103.059H302.65V121.456H306.234C306.234 121.456 306.234 103.108 306.234 103.106V90.4497H309.101V103.107C309.102 104.079 309.905 104.87 310.893 104.87C311.881 104.87 312.685 104.079 312.685 103.106V90.4497C312.685 87.7256 310.434 85.5095 307.667 85.5095Z" fill="#484848"/>
<path d="M305.495 77.9815C305.495 80.2965 303.587 82.1865 301.216 82.1865C298.846 82.1865 296.938 80.2965 296.938 77.9815C296.938 75.6664 298.846 73.7765 301.216 73.7765C303.587 73.7765 305.495 75.6664 305.495 77.9815Z" fill="#484848" fill-opacity="0.05" stroke="#484848"/>
</g>
<g clip-path="url(#clip48)">
<path d="M645.24 158.782H632.337C629.57 158.782 627.319 160.998 627.319 163.722V176.378C627.319 177.351 628.123 178.143 629.111 178.143C630.1 178.143 630.903 177.351 630.903 176.378V163.722H633.771V194.728H637.355V176.331H640.222V194.728H643.806C643.806 194.728 643.806 176.38 643.806 176.378V163.722H646.673V176.379C646.674 177.352 647.478 178.143 648.465 178.143C649.454 178.143 650.257 177.351 650.257 176.378V163.722C650.257 160.998 648.007 158.782 645.24 158.782Z" fill="#484848"/>
<path d="M643.067 151.254C643.067 153.569 641.159 155.459 638.789 155.459C636.418 155.459 634.51 153.569 634.51 151.254C634.51 148.939 636.418 147.049 638.789 147.049C641.159 147.049 643.067 148.939 643.067 151.254Z" fill="#484848" fill-opacity="0.05" stroke="#484848"/>
</g>
<g clip-path="url(#clip49)">
<path d="M452.341 158.782H439.439C436.672 158.782 434.421 160.998 434.421 163.722V176.378C434.421 177.351 435.225 178.143 436.213 178.143C437.201 178.143 438.005 177.351 438.005 176.378V163.722H440.872V194.728H444.456V176.331H447.324V194.728H450.908C450.908 194.728 450.908 176.38 450.908 176.378V163.722H453.775V176.379C453.775 177.352 454.579 178.143 455.567 178.143C456.555 178.143 457.359 177.351 457.359 176.378V163.722C457.359 160.998 455.108 158.782 452.341 158.782Z" fill="#484848"/>
<path d="M450.169 151.254C450.169 153.569 448.261 155.459 445.89 155.459C443.52 155.459 441.611 153.569 441.611 151.254C441.611 148.939 443.52 147.049 445.89 147.049C448.261 147.049 450.169 148.939 450.169 151.254Z" fill="#484848" fill-opacity="0.05" stroke="#484848"/>
</g>
<g clip-path="url(#clip50)">
<path d="M259.443 158.782H246.54C243.773 158.782 241.522 160.998 241.522 163.722V176.378C241.522 177.351 242.326 178.143 243.315 178.143C244.303 178.143 245.107 177.351 245.107 176.378V163.722H247.974V194.728H251.558V176.331H254.425V194.728H258.009C258.009 194.728 258.009 176.38 258.009 176.378V163.722H260.876V176.379C260.877 177.352 261.681 178.143 262.669 178.143C263.657 178.143 264.461 177.351 264.461 176.378V163.722C264.461 160.998 262.21 158.782 259.443 158.782Z" fill="#484848"/>
<path d="M257.27 151.254C257.27 153.569 255.362 155.459 252.992 155.459C250.621 155.459 248.713 153.569 248.713 151.254C248.713 148.939 250.621 147.049 252.992 147.049C255.362 147.049 257.27 148.939 257.27 151.254Z" fill="#484848" fill-opacity="0.05" stroke="#484848"/>
</g>
<g clip-path="url(#clip51)">
<path d="M162.994 158.782H150.091C147.324 158.782 145.073 160.998 145.073 163.722V176.378C145.073 177.351 145.877 178.143 146.865 178.143C147.853 178.143 148.657 177.351 148.657 176.378V163.722H151.525V194.728H155.109V176.331H157.976V194.728H161.56C161.56 194.728 161.56 176.38 161.56 176.378V163.722H164.427V176.379C164.428 177.352 165.231 178.143 166.219 178.143C167.207 178.143 168.011 177.351 168.011 176.378V163.722C168.011 160.998 165.76 158.782 162.994 158.782Z" fill="#484848"/>
<path d="M160.821 151.254C160.821 153.569 158.913 155.459 156.542 155.459C154.172 155.459 152.264 153.569 152.264 151.254C152.264 148.939 154.172 147.049 156.542 147.049C158.913 147.049 160.821 148.939 160.821 151.254Z" fill="#484848" fill-opacity="0.05" stroke="#484848"/>
</g>
<g clip-path="url(#clip52)">
<path d="M645.24 12.2381H632.337C629.57 12.2381 627.319 14.4542 627.319 17.1783V29.8347C627.319 30.8076 628.123 31.5991 629.111 31.5991C630.1 31.5991 630.903 30.8076 630.903 29.8347V17.1783H633.771V48.1842H637.355V29.7877H640.222V48.1842H643.806C643.806 48.1842 643.806 29.8365 643.806 29.8347V17.1783H646.673V29.8357C646.674 30.8081 647.478 31.5991 648.465 31.5991C649.454 31.5991 650.257 30.8076 650.257 29.8347V17.1783C650.257 14.4542 648.007 12.2381 645.24 12.2381Z" fill="#484848"/>
<path d="M643.067 4.71011C643.067 7.02515 641.159 8.91509 638.789 8.91509C636.418 8.91509 634.51 7.02515 634.51 4.71011C634.51 2.39507 636.418 0.505127 638.789 0.505127C641.159 0.505127 643.067 2.39507 643.067 4.71011Z" fill="#484848" fill-opacity="0.05" stroke="#484848"/>
</g>
<g clip-path="url(#clip53)">
<path d="M452.341 12.2381H439.439C436.672 12.2381 434.421 14.4542 434.421 17.1783V29.8347C434.421 30.8076 435.225 31.5991 436.213 31.5991C437.201 31.5991 438.005 30.8076 438.005 29.8347V17.1783H440.872V48.1842H444.456V29.7877H447.324V48.1842H450.908C450.908 48.1842 450.908 29.8365 450.908 29.8347V17.1783H453.775V29.8357C453.775 30.8081 454.579 31.5991 455.567 31.5991C456.555 31.5991 457.359 30.8076 457.359 29.8347V17.1783C457.359 14.4542 455.108 12.2381 452.341 12.2381Z" fill="#484848"/>
<path d="M450.169 4.71011C450.169 7.02515 448.261 8.91509 445.89 8.91509C443.52 8.91509 441.611 7.02515 441.611 4.71011C441.611 2.39507 443.52 0.505127 445.89 0.505127C448.261 0.505127 450.169 2.39507 450.169 4.71011Z" fill="#484848" fill-opacity="0.05" stroke="#484848"/>
</g>
<g clip-path="url(#clip54)">
<path d="M259.443 12.2381H246.54C243.773 12.2381 241.522 14.4542 241.522 17.1783V29.8347C241.522 30.8076 242.326 31.5991 243.315 31.5991C244.303 31.5991 245.107 30.8076 245.107 29.8347V17.1783H247.974V48.1842H251.558V29.7877H254.425V48.1842H258.009C258.009 48.1842 258.009 29.8365 258.009 29.8347V17.1783H260.876V29.8357C260.877 30.8081 261.681 31.5991 262.669 31.5991C263.657 31.5991 264.461 30.8076 264.461 29.8347V17.1783C264.461 14.4542 262.21 12.2381 259.443 12.2381Z" fill="#484848"/>
<path d="M257.27 4.71011C257.27 7.02515 255.362 8.91509 252.992 8.91509C250.621 8.91509 248.713 7.02515 248.713 4.71011C248.713 2.39507 250.621 0.505127 252.992 0.505127C255.362 0.505127 257.27 2.39507 257.27 4.71011Z" fill="#484848" fill-opacity="0.05" stroke="#484848"/>
</g>
<g clip-path="url(#clip55)">
<path d="M162.994 12.2381H150.091C147.324 12.2381 145.073 14.4542 145.073 17.1783V29.8347C145.073 30.8076 145.877 31.5991 146.865 31.5991C147.853 31.5991 148.657 30.8076 148.657 29.8347V17.1783H151.525V48.1842H155.109V29.7877H157.976V48.1842H161.56C161.56 48.1842 161.56 29.8365 161.56 29.8347V17.1783H164.427V29.8357C164.428 30.8081 165.231 31.5991 166.219 31.5991C167.207 31.5991 168.011 30.8076 168.011 29.8347V17.1783C168.011 14.4542 165.76 12.2381 162.994 12.2381Z" fill="#484848"/>
<path d="M160.821 4.71011C160.821 7.02515 158.913 8.91509 156.542 8.91509C154.172 8.91509 152.264 7.02515 152.264 4.71011C152.264 2.39507 154.172 0.505127 156.542 0.505127C158.913 0.505127 160.821 2.39507 160.821 4.71011Z" fill="#484848" fill-opacity="0.05" stroke="#484848"/>
</g>
<g clip-path="url(#clip56)">
<path d="M645.24 232.054H632.337C629.57 232.054 627.319 234.27 627.319 236.994V249.65C627.319 250.623 628.123 251.415 629.111 251.415C630.1 251.415 630.903 250.623 630.903 249.65V236.994H633.771V268H637.355V249.603H640.222V268H643.806C643.806 268 643.806 249.652 643.806 249.65V236.994H646.673V249.651C646.674 250.624 647.478 251.415 648.465 251.415C649.454 251.415 650.257 250.623 650.257 249.65V236.994C650.257 234.27 648.007 232.054 645.24 232.054Z" fill="#484848"/>
<path d="M643.067 224.526C643.067 226.841 641.159 228.731 638.789 228.731C636.418 228.731 634.51 226.841 634.51 224.526C634.51 222.211 636.418 220.321 638.789 220.321C641.159 220.321 643.067 222.211 643.067 224.526Z" fill="#484848" fill-opacity="0.05" stroke="#484848"/>
</g>
<g clip-path="url(#clip57)">
<path d="M452.341 232.054H439.439C436.672 232.054 434.421 234.27 434.421 236.994V249.65C434.421 250.623 435.225 251.415 436.213 251.415C437.201 251.415 438.005 250.623 438.005 249.65V236.994H440.872V268H444.456V249.603H447.324V268H450.908C450.908 268 450.908 249.652 450.908 249.65V236.994H453.775V249.651C453.775 250.624 454.579 251.415 455.567 251.415C456.555 251.415 457.359 250.623 457.359 249.65V236.994C457.359 234.27 455.108 232.054 452.341 232.054Z" fill="#484848"/>
<path d="M450.169 224.526C450.169 226.841 448.261 228.731 445.89 228.731C443.52 228.731 441.611 226.841 441.611 224.526C441.611 222.211 443.52 220.321 445.89 220.321C448.261 220.321 450.169 222.211 450.169 224.526Z" fill="#484848" fill-opacity="0.05" stroke="#484848"/>
</g>
<g clip-path="url(#clip58)">
<path d="M259.443 232.054H246.54C243.773 232.054 241.522 234.27 241.522 236.994V249.65C241.522 250.623 242.326 251.415 243.315 251.415C244.303 251.415 245.107 250.623 245.107 249.65V236.994H247.974V268H251.558V249.603H254.425V268H258.009C258.009 268 258.009 249.652 258.009 249.65V236.994H260.876V249.651C260.877 250.624 261.681 251.415 262.669 251.415C263.657 251.415 264.461 250.623 264.461 249.65V236.994C264.461 234.27 262.21 232.054 259.443 232.054Z" fill="#484848"/>
<path d="M257.27 224.526C257.27 226.841 255.362 228.731 252.992 228.731C250.621 228.731 248.713 226.841 248.713 224.526C248.713 222.211 250.621 220.321 252.992 220.321C255.362 220.321 257.27 222.211 257.27 224.526Z" fill="#484848" fill-opacity="0.05" stroke="#484848"/>
</g>
<g clip-path="url(#clip59)">
<path d="M162.994 232.054H150.091C147.324 232.054 145.073 234.27 145.073 236.994V249.65C145.073 250.623 145.877 251.415 146.865 251.415C147.853 251.415 148.657 250.623 148.657 249.65V236.994H151.525V268H155.109V249.603H157.976V268H161.56C161.56 268 161.56 249.652 161.56 249.65V236.994H164.427V249.651C164.428 250.624 165.231 251.415 166.219 251.415C167.207 251.415 168.011 250.623 168.011 249.65V236.994C168.011 234.27 165.76 232.054 162.994 232.054Z" fill="#484848"/>
<path d="M160.821 224.526C160.821 226.841 158.913 228.731 156.542 228.731C154.172 228.731 152.264 226.841 152.264 224.526C152.264 222.211 154.172 220.321 156.542 220.321C158.913 220.321 160.821 222.211 160.821 224.526Z" fill="#484848" fill-opacity="0.05" stroke="#484848"/>
</g>
<g clip-path="url(#clip60)">
<path d="M645.24 85.5095H632.337C629.57 85.5095 627.319 87.7256 627.319 90.4497V103.106C627.319 104.079 628.123 104.87 629.111 104.87C630.1 104.87 630.903 104.079 630.903 103.106V90.4497H633.771V121.456H637.355V103.059H640.222V121.456H643.806C643.806 121.456 643.806 103.108 643.806 103.106V90.4497H646.673V103.107C646.674 104.079 647.478 104.87 648.465 104.87C649.454 104.87 650.257 104.079 650.257 103.106V90.4497C650.257 87.7256 648.007 85.5095 645.24 85.5095Z" fill="#484848"/>
<path d="M643.067 77.9815C643.067 80.2965 641.159 82.1865 638.789 82.1865C636.418 82.1865 634.51 80.2965 634.51 77.9815C634.51 75.6664 636.418 73.7765 638.789 73.7765C641.159 73.7765 643.067 75.6664 643.067 77.9815Z" fill="#484848" fill-opacity="0.05" stroke="#484848"/>
</g>
<g clip-path="url(#clip61)">
<path d="M452.341 85.5095H439.439C436.672 85.5095 434.421 87.7256 434.421 90.4497V103.106C434.421 104.079 435.225 104.87 436.213 104.87C437.201 104.87 438.005 104.079 438.005 103.106V90.4497H440.872V121.456H444.456V103.059H447.324V121.456H450.908C450.908 121.456 450.908 103.108 450.908 103.106V90.4497H453.775V103.107C453.775 104.079 454.579 104.87 455.567 104.87C456.555 104.87 457.359 104.079 457.359 103.106V90.4497C457.359 87.7256 455.108 85.5095 452.341 85.5095Z" fill="#484848"/>
<path d="M450.169 77.9815C450.169 80.2965 448.261 82.1865 445.89 82.1865C443.52 82.1865 441.611 80.2965 441.611 77.9815C441.611 75.6664 443.52 73.7765 445.89 73.7765C448.261 73.7765 450.169 75.6664 450.169 77.9815Z" fill="#484848" fill-opacity="0.05" stroke="#484848"/>
</g>
<g clip-path="url(#clip62)">
<path d="M259.443 85.5095H246.54C243.773 85.5095 241.522 87.7256 241.522 90.4497V103.106C241.522 104.079 242.326 104.87 243.315 104.87C244.303 104.87 245.107 104.079 245.107 103.106V90.4497H247.974V121.456H251.558V103.059H254.425V121.456H258.009C258.009 121.456 258.009 103.108 258.009 103.106V90.4497H260.876V103.107C260.877 104.079 261.681 104.87 262.669 104.87C263.657 104.87 264.461 104.079 264.461 103.106V90.4497C264.461 87.7256 262.21 85.5095 259.443 85.5095Z" fill="#484848"/>
<path d="M257.27 77.9815C257.27 80.2965 255.362 82.1865 252.992 82.1865C250.621 82.1865 248.713 80.2965 248.713 77.9815C248.713 75.6664 250.621 73.7765 252.992 73.7765C255.362 73.7765 257.27 75.6664 257.27 77.9815Z" fill="#484848" fill-opacity="0.05" stroke="#484848"/>
</g>
<g clip-path="url(#clip63)">
<path d="M162.994 85.5095H150.091C147.324 85.5095 145.073 87.7256 145.073 90.4497V103.106C145.073 104.079 145.877 104.87 146.865 104.87C147.853 104.87 148.657 104.079 148.657 103.106V90.4497H151.525V121.456H155.109V103.059H157.976V121.456H161.56C161.56 121.456 161.56 103.108 161.56 103.106V90.4497H164.427V103.107C164.428 104.079 165.231 104.87 166.219 104.87C167.207 104.87 168.011 104.079 168.011 103.106V90.4497C168.011 87.7256 165.76 85.5095 162.994 85.5095Z" fill="#484848"/>
<path d="M160.821 77.9815C160.821 80.2965 158.913 82.1865 156.542 82.1865C154.172 82.1865 152.264 80.2965 152.264 77.9815C152.264 75.6664 154.172 73.7765 156.542 73.7765C158.913 73.7765 160.821 75.6664 160.821 77.9815Z" fill="#484848" fill-opacity="0.05" stroke="#484848"/>
</g>
<defs>
<clipPath id="clip0">
<rect width="23.108" height="48.179" fill="white" transform="translate(530.774 146.549)"/>
</clipPath>
<clipPath id="clip1">
<rect width="23.108" height="48.179" fill="white" transform="translate(337.876 146.549)"/>
</clipPath>
<clipPath id="clip2">
<rect width="23.108" height="48.179" fill="white" transform="translate(48.5288 146.549)"/>
</clipPath>
<clipPath id="clip3">
<rect width="23.108" height="48.179" fill="white" transform="translate(0.304199 146.549)"/>
</clipPath>
<clipPath id="clip4">
<rect width="23.108" height="48.179" fill="white" transform="translate(723.672 146.549)"/>
</clipPath>
<clipPath id="clip5">
<rect width="23.108" height="48.179" fill="white" transform="translate(530.774 0.00512695)"/>
</clipPath>
<clipPath id="clip6">
<rect width="23.108" height="48.179" fill="white" transform="translate(337.876 0.00512695)"/>
</clipPath>
<clipPath id="clip7">
<rect width="23.108" height="48.179" fill="white" transform="translate(48.5288 0.00512695)"/>
</clipPath>
<clipPath id="clip8">
<rect width="23.108" height="48.179" fill="white" transform="translate(0.304199 0.00512695)"/>
</clipPath>
<clipPath id="clip9">
<rect width="23.108" height="48.179" fill="white" transform="translate(723.672 0.00512695)"/>
</clipPath>
<clipPath id="clip10">
<rect width="23.108" height="48.179" fill="white" transform="translate(530.774 219.821)"/>
</clipPath>
<clipPath id="clip11">
<rect width="23.108" height="48.179" fill="white" transform="translate(337.876 219.821)"/>
</clipPath>
<clipPath id="clip12">
<rect width="23.108" height="48.179" fill="white" transform="translate(48.5288 219.821)"/>
</clipPath>
<clipPath id="clip13">
<rect width="23.108" height="48.179" fill="white" transform="translate(0.304199 219.821)"/>
</clipPath>
<clipPath id="clip14">
<rect width="23.108" height="48.179" fill="white" transform="translate(723.672 219.821)"/>
</clipPath>
<clipPath id="clip15">
<rect width="23.108" height="48.179" fill="white" transform="translate(530.774 73.2765)"/>
</clipPath>
<clipPath id="clip16">
<rect width="23.108" height="48.179" fill="white" transform="translate(337.876 73.2765)"/>
</clipPath>
<clipPath id="clip17">
<rect width="23.108" height="48.179" fill="white" transform="translate(48.5288 73.2765)"/>
</clipPath>
<clipPath id="clip18">
<rect width="23.108" height="48.179" fill="white" transform="translate(0.304199 73.2765)"/>
</clipPath>
<clipPath id="clip19">
<rect width="23.108" height="48.179" fill="white" transform="translate(723.672 73.2765)"/>
</clipPath>
<clipPath id="clip20">
<rect width="23.108" height="48.179" fill="white" transform="translate(578.999 146.549)"/>
</clipPath>
<clipPath id="clip21">
<rect width="23.108" height="48.179" fill="white" transform="translate(386.101 146.549)"/>
</clipPath>
<clipPath id="clip22">
<rect width="23.108" height="48.179" fill="white" transform="translate(193.202 146.549)"/>
</clipPath>
<clipPath id="clip23">
<rect width="23.108" height="48.179" fill="white" transform="translate(96.7529 146.549)"/>
</clipPath>
<clipPath id="clip24">
<rect width="23.108" height="48.179" fill="white" transform="translate(578.999 0.00512695)"/>
</clipPath>
<clipPath id="clip25">
<rect width="23.108" height="48.179" fill="white" transform="translate(386.101 0.00512695)"/>
</clipPath>
<clipPath id="clip26">
<rect width="23.108" height="48.179" fill="white" transform="translate(193.202 0.00512695)"/>
</clipPath>
<clipPath id="clip27">
<rect width="23.108" height="48.179" fill="white" transform="translate(96.7529 0.00512695)"/>
</clipPath>
<clipPath id="clip28">
<rect width="23.108" height="48.179" fill="white" transform="translate(578.999 219.821)"/>
</clipPath>
<clipPath id="clip29">
<rect width="23.108" height="48.179" fill="white" transform="translate(386.101 219.821)"/>
</clipPath>
<clipPath id="clip30">
<rect width="23.108" height="48.179" fill="white" transform="translate(193.202 219.821)"/>
</clipPath>
<clipPath id="clip31">
<rect width="23.108" height="48.179" fill="white" transform="translate(96.7529 219.821)"/>
</clipPath>
<clipPath id="clip32">
<rect width="23.108" height="48.179" fill="white" transform="translate(578.999 73.2765)"/>
</clipPath>
<clipPath id="clip33">
<rect width="23.108" height="48.179" fill="white" transform="translate(386.101 73.2765)"/>
</clipPath>
<clipPath id="clip34">
<rect width="23.108" height="48.179" fill="white" transform="translate(193.202 73.2765)"/>
</clipPath>
<clipPath id="clip35">
<rect width="23.108" height="48.179" fill="white" transform="translate(96.7529 73.2765)"/>
</clipPath>
<clipPath id="clip36">
<rect width="23.108" height="48.179" fill="white" transform="translate(675.448 146.549)"/>
</clipPath>
<clipPath id="clip37">
<rect width="23.108" height="48.179" fill="white" transform="translate(482.55 146.549)"/>
</clipPath>
<clipPath id="clip38">
<rect width="23.108" height="48.179" fill="white" transform="translate(289.651 146.549)"/>
</clipPath>
<clipPath id="clip39">
<rect width="23.108" height="48.179" fill="white" transform="translate(675.448 0.00512695)"/>
</clipPath>
<clipPath id="clip40">
<rect width="23.108" height="48.179" fill="white" transform="translate(482.55 0.00512695)"/>
</clipPath>
<clipPath id="clip41">
<rect width="23.108" height="48.179" fill="white" transform="translate(289.651 0.00512695)"/>
</clipPath>
<clipPath id="clip42">
<rect width="23.108" height="48.179" fill="white" transform="translate(675.448 219.821)"/>
</clipPath>
<clipPath id="clip43">
<rect width="23.108" height="48.179" fill="white" transform="translate(482.55 219.821)"/>
</clipPath>
<clipPath id="clip44">
<rect width="23.108" height="48.179" fill="white" transform="translate(289.651 219.821)"/>
</clipPath>
<clipPath id="clip45">
<rect width="23.108" height="48.179" fill="white" transform="translate(675.448 73.2765)"/>
</clipPath>
<clipPath id="clip46">
<rect width="23.108" height="48.179" fill="white" transform="translate(482.55 73.2765)"/>
</clipPath>
<clipPath id="clip47">
<rect width="23.108" height="48.179" fill="white" transform="translate(289.651 73.2765)"/>
</clipPath>
<clipPath id="clip48">
<rect width="23.108" height="48.179" fill="white" transform="translate(627.224 146.549)"/>
</clipPath>
<clipPath id="clip49">
<rect width="23.108" height="48.179" fill="white" transform="translate(434.325 146.549)"/>
</clipPath>
<clipPath id="clip50">
<rect width="23.108" height="48.179" fill="white" transform="translate(241.427 146.549)"/>
</clipPath>
<clipPath id="clip51">
<rect width="23.108" height="48.179" fill="white" transform="translate(144.978 146.549)"/>
</clipPath>
<clipPath id="clip52">
<rect width="23.108" height="48.179" fill="white" transform="translate(627.224 0.00512695)"/>
</clipPath>
<clipPath id="clip53">
<rect width="23.108" height="48.179" fill="white" transform="translate(434.325 0.00512695)"/>
</clipPath>
<clipPath id="clip54">
<rect width="23.108" height="48.179" fill="white" transform="translate(241.427 0.00512695)"/>
</clipPath>
<clipPath id="clip55">
<rect width="23.108" height="48.179" fill="white" transform="translate(144.978 0.00512695)"/>
</clipPath>
<clipPath id="clip56">
<rect width="23.108" height="48.179" fill="white" transform="translate(627.224 219.821)"/>
</clipPath>
<clipPath id="clip57">
<rect width="23.108" height="48.179" fill="white" transform="translate(434.325 219.821)"/>
</clipPath>
<clipPath id="clip58">
<rect width="23.108" height="48.179" fill="white" transform="translate(241.427 219.821)"/>
</clipPath>
<clipPath id="clip59">
<rect width="23.108" height="48.179" fill="white" transform="translate(144.978 219.821)"/>
</clipPath>
<clipPath id="clip60">
<rect width="23.108" height="48.179" fill="white" transform="translate(627.224 73.2765)"/>
</clipPath>
<clipPath id="clip61">
<rect width="23.108" height="48.179" fill="white" transform="translate(434.325 73.2765)"/>
</clipPath>
<clipPath id="clip62">
<rect width="23.108" height="48.179" fill="white" transform="translate(241.427 73.2765)"/>
</clipPath>
<clipPath id="clip63">
<rect width="23.108" height="48.179" fill="white" transform="translate(144.978 73.2765)"/>
</clipPath>
</defs>
</svg>
