<svg width="19" height="35" viewBox="0 0 19 35" fill="none" xmlns="http://www.w3.org/2000/svg">
<path d="M1.33016 14.3635L0.641602 16.8654L3.49568 17.7098V20.8184C3.49568 21.1634 3.62739 21.4951 3.86324 21.7384L8.88162 26.943C9.12605 27.1965 9.44766 27.3242 9.76866 27.3242C10.0897 27.3242 10.4113 27.1965 10.6557 26.943L15.6741 21.7384C15.7721 21.6367 15.8407 21.5135 15.9014 21.3858L18.2072 22.0688L18.8957 19.5668L16.0416 18.7225V16.2244L18.2072 16.8654L18.8957 14.3635L16.0416 13.5179V11.0198L18.2072 11.6608L18.8957 9.1589L16.0416 8.31327V0H13.5324V7.56867L6.00487 5.33867V0H3.49568V4.59597L1.33016 3.95428L0.641602 6.45621L3.49568 7.30056V9.79867L1.33016 9.15762L0.641602 11.6595L3.49568 12.5052V15.0033L1.33016 14.3635ZM9.76866 24.1831L6.00487 20.2797V18.4544L13.2286 20.5948L9.76866 24.1831ZM6.00487 8.04516L13.5324 10.2752V12.7733L6.00487 10.5433V8.04516ZM6.00487 13.2498L13.5324 15.4798V17.9779L6.00487 15.7479V13.2498Z" fill="#EF7C00"/>
</svg>
