<svg width="375" height="401" viewBox="0 0 375 401" fill="none" xmlns="http://www.w3.org/2000/svg">
<mask id="path-1-inside-1" fill="white">
<path fill-rule="evenodd" clip-rule="evenodd" d="M-34 32H-24.9802V81H189.491V32H198.511V81H411.98V32H421L421 81V96V178V193V372V387L421 401H411.98V387H198.511V401H189.491V387H-24.9802V401H-34V387V372V193V178V96V81V32ZM-24.9802 372H189.491V290H-24.9802V372ZM198.511 372H411.98V290H198.511V372ZM411.98 193V275H198.511V193H411.98ZM189.491 193V275H-24.9802V193H189.491ZM-24.9802 178H189.491V96H-24.9802V178ZM198.511 178H411.98V96H198.511V178Z"/>
</mask>
<path fill-rule="evenodd" clip-rule="evenodd" d="M-34 32H-24.9802V81H189.491V32H198.511V81H411.98V32H421L421 81V96V178V193V372V387L421 401H411.98V387H198.511V401H189.491V387H-24.9802V401H-34V387V372V193V178V96V81V32ZM-24.9802 372H189.491V290H-24.9802V372ZM198.511 372H411.98V290H198.511V372ZM411.98 193V275H198.511V193H411.98ZM189.491 193V275H-24.9802V193H189.491ZM-24.9802 178H189.491V96H-24.9802V178ZM198.511 178H411.98V96H198.511V178Z" fill="black" fill-opacity="0.05"/>
<path d="M-24.9802 32H-23.9802V31H-24.9802V32ZM-34 32V31H-35V32H-34ZM-24.9802 81H-25.9802V82H-24.9802V81ZM189.491 81V82H190.491V81H189.491ZM189.491 32V31H188.491V32H189.491ZM198.511 32H199.511V31H198.511V32ZM198.511 81H197.511V82H198.511V81ZM411.98 81V82H412.98V81H411.98ZM411.98 32V31H410.98V32H411.98ZM421 32L422 32V31H421V32ZM421 81H422H421ZM421 387H422H421ZM421 401V402H422V401H421ZM411.98 401H410.98V402H411.98V401ZM411.98 387H412.98V386H411.98V387ZM198.511 387V386H197.511V387H198.511ZM198.511 401V402H199.511V401H198.511ZM189.491 401H188.491V402H189.491V401ZM189.491 387H190.491V386H189.491V387ZM-24.9802 387V386H-25.9802V387H-24.9802ZM-24.9802 401V402H-23.9802V401H-24.9802ZM-34 401H-35V402H-34V401ZM-24.9802 372H-25.9802V373H-24.9802V372ZM189.491 372V373H190.491V372H189.491ZM189.491 290H190.491V289H189.491V290ZM-24.9802 290V289H-25.9802V290H-24.9802ZM198.511 372H197.511V373H198.511V372ZM411.98 372V373H412.98V372H411.98ZM411.98 290H412.98V289H411.98V290ZM198.511 290V289H197.511V290H198.511ZM411.98 275V276H412.98V275H411.98ZM411.98 193H412.98V192H411.98V193ZM198.511 275H197.511V276H198.511V275ZM198.511 193V192H197.511V193H198.511ZM189.491 275V276H190.491V275H189.491ZM189.491 193H190.491V192H189.491V193ZM-24.9802 275H-25.9802V276H-24.9802V275ZM-24.9802 193V192H-25.9802V193H-24.9802ZM189.491 178V179H190.491V178H189.491ZM-24.9802 178H-25.9802V179H-24.9802V178ZM189.491 96H190.491V95H189.491V96ZM-24.9802 96V95H-25.9802V96H-24.9802ZM411.98 178V179H412.98V178H411.98ZM198.511 178H197.511V179H198.511V178ZM411.98 96H412.98V95H411.98V96ZM198.511 96V95H197.511V96H198.511ZM-24.9802 31H-34V33H-24.9802V31ZM-23.9802 81V32H-25.9802V81H-23.9802ZM189.491 80H-24.9802V82H189.491V80ZM188.491 32V81H190.491V32H188.491ZM198.511 31H189.491V33H198.511V31ZM199.511 81V32H197.511V81H199.511ZM411.98 80H198.511V82H411.98V80ZM410.98 32V81H412.98V32H410.98ZM421 31H411.98V33H421V31ZM422 81L422 32L420 32L420 81H422ZM422 96V81H420V96H422ZM422 178V96H420V178H422ZM422 193V178H420V193H422ZM422 372V193H420V372H422ZM422 387V372H420V387H422ZM422 401L422 387H420L420 401H422ZM411.98 402H421V400H411.98V402ZM410.98 387V401H412.98V387H410.98ZM411.98 386H198.511V388H411.98V386ZM199.511 401V387H197.511V401H199.511ZM189.491 402H198.511V400H189.491V402ZM188.491 387V401H190.491V387H188.491ZM189.491 386H-24.9802V388H189.491V386ZM-23.9802 401V387H-25.9802V401H-23.9802ZM-34 402H-24.9802V400H-34V402ZM-35 387V401H-33V387H-35ZM-33 387V372H-35V387H-33ZM-35 193V372H-33V193H-35ZM-35 178V193H-33V178H-35ZM-35 96V178H-33V96H-35ZM-35 81V96H-33V81H-35ZM-35 32V81H-33V32H-35ZM-24.9802 373H189.491V371H-24.9802V373ZM188.491 290V372H190.491V290H188.491ZM-24.9802 291H189.491V289H-24.9802V291ZM-23.9802 372V290H-25.9802V372H-23.9802ZM198.511 373H411.98V371H198.511V373ZM410.98 290V372H412.98V290H410.98ZM198.511 291H411.98V289H198.511V291ZM199.511 372V290H197.511V372H199.511ZM412.98 275V193H410.98V275H412.98ZM198.511 276H411.98V274H198.511V276ZM197.511 193V275H199.511V193H197.511ZM411.98 192H198.511V194H411.98V192ZM190.491 275V193H188.491V275H190.491ZM-24.9802 276H189.491V274H-24.9802V276ZM-25.9802 193V275H-23.9802V193H-25.9802ZM189.491 192H-24.9802V194H189.491V192ZM189.491 177H-24.9802V179H189.491V177ZM188.491 96V178H190.491V96H188.491ZM-24.9802 97H189.491V95H-24.9802V97ZM-23.9802 178V96H-25.9802V178H-23.9802ZM411.98 177H198.511V179H411.98V177ZM410.98 96V178H412.98V96H410.98ZM198.511 97H411.98V95H198.511V97ZM199.511 178V96H197.511V178H199.511Z" fill="#191919" mask="url(#path-1-inside-1)"/>
<g clip-path="url(#clip0)">
<rect x="-15.96" y="33" width="48.1057" height="48" fill="white" fill-opacity="0.05"/>
<path d="M-9.44629 43.5V39.5L-3.93418 39L25.1297 68.5L25.6308 74.5H21.1209L-9.44629 43.5Z" fill="#EF7C00"/>
<path d="M32.614 31.686H-16.4312C-16.6555 31.686 -16.8706 31.7749 -17.0292 31.9332C-17.1878 32.0914 -17.2769 32.306 -17.2769 32.5298V81.4673C-17.2769 81.6911 -17.1878 81.9057 -17.0292 82.0639C-16.8706 82.2221 -16.6555 82.311 -16.4312 82.311H32.614C32.8383 82.311 33.0534 82.2221 33.212 82.0639C33.3706 81.9057 33.4596 81.6911 33.4596 81.4673V32.5298C33.4596 32.306 33.3706 32.0914 33.212 31.9332C33.0534 31.7749 32.8383 31.686 32.614 31.686ZM-8.82077 45.7978L-2.90151 51.704V73.8735H-8.82077V45.7978ZM-1.21029 53.3915L3.86336 58.454V73.8735H-1.21029V53.3915ZM5.55457 60.1415L10.6282 65.204V73.8735H5.55457V60.1415ZM12.3194 66.8915L19.3092 73.8735H12.3194V66.8915ZM21.7006 73.8735L-8.82077 43.4142V40.1235H-4.94281L25.0036 70.0041V73.8735H21.7006ZM25.0036 67.618L19.0843 61.7117V40.1235H25.0036V67.618ZM17.3931 60.0242L12.3194 54.9617V40.1235H17.3931V60.0242ZM10.6282 53.2742L5.55457 48.2117V40.1235H10.6282V53.2742ZM3.86336 46.5242L-2.55143 40.1235H3.86336V46.5242ZM25.4991 38.436H-9.3163L-14.3899 33.3735H30.5727L25.4991 38.436ZM-10.512 39.6291V74.368L-15.5856 79.4305V34.5666L-10.512 39.6291ZM-9.3163 75.561H25.4991L30.5727 80.6235H-14.3899L-9.3163 75.561ZM26.6948 74.368V39.6291L31.7684 34.5666V79.4305L26.6948 74.368Z" fill="#404040"/>
</g>
<g clip-path="url(#clip1)">
<rect x="126.353" y="33" width="48.1057" height="48" fill="white" fill-opacity="0.05"/>
<path d="M132.867 43.5V39.5L138.379 39L167.443 68.5L167.944 74.5H163.434L132.867 43.5Z" fill="#EF7C00"/>
<path d="M174.927 31.686H125.882C125.657 31.686 125.442 31.7749 125.284 31.9332C125.125 32.0914 125.036 32.306 125.036 32.5298V81.4673C125.036 81.6911 125.125 81.9057 125.284 82.0639C125.442 82.2221 125.657 82.311 125.882 82.311H174.927C175.151 82.311 175.366 82.2221 175.525 82.0639C175.684 81.9057 175.773 81.6911 175.773 81.4673V32.5298C175.773 32.306 175.684 32.0914 175.525 31.9332C175.366 31.7749 175.151 31.686 174.927 31.686ZM133.492 45.7978L139.411 51.704V73.8735H133.492V45.7978ZM141.103 53.3915L146.176 58.454V73.8735H141.103V53.3915ZM147.868 60.1415L152.941 65.204V73.8735H147.868V60.1415ZM154.632 66.8915L161.622 73.8735H154.632V66.8915ZM164.014 73.8735L133.492 43.4142V40.1235H137.37L167.317 70.0041V73.8735H164.014ZM167.317 67.618L161.397 61.7117V40.1235H167.317V67.618ZM159.706 60.0242L154.632 54.9617V40.1235H159.706V60.0242ZM152.941 53.2742L147.868 48.2117V40.1235H152.941V53.2742ZM146.176 46.5242L139.762 40.1235H146.176V46.5242ZM167.812 38.436H132.997L127.923 33.3735H172.886L167.812 38.436ZM131.801 39.6291V74.368L126.727 79.4305V34.5666L131.801 39.6291ZM132.997 75.561H167.812L172.886 80.6235H127.923L132.997 75.561ZM169.008 74.368V39.6291L174.081 34.5666V79.4305L169.008 74.368Z" fill="#404040"/>
</g>
<g clip-path="url(#clip2)">
<rect x="12.1021" y="226" width="48.1057" height="48" fill="white" fill-opacity="0.05"/>
<path d="M18.6157 236.5V232.5L24.1278 232L53.1917 261.5L53.6928 267.5H49.1829L18.6157 236.5Z" fill="#EF7C00"/>
<path d="M60.6761 224.686H11.6308C11.4065 224.686 11.1914 224.775 11.0328 224.933C10.8742 225.091 10.7852 225.306 10.7852 225.53V274.467C10.7852 274.691 10.8742 274.906 11.0328 275.064C11.1914 275.222 11.4065 275.311 11.6308 275.311H60.6761C60.9003 275.311 61.1154 275.222 61.274 275.064C61.4326 274.906 61.5217 274.691 61.5217 274.467V225.53C61.5217 225.306 61.4326 225.091 61.274 224.933C61.1154 224.775 60.9003 224.686 60.6761 224.686ZM19.2412 238.798L25.1605 244.704V266.874H19.2412V238.798ZM26.8517 246.392L31.9254 251.454V266.874H26.8517V246.392ZM33.6166 253.142L38.6902 258.204V266.874H33.6166V253.142ZM40.3815 259.891L47.3713 266.874H40.3815V259.891ZM49.7626 266.874L19.2412 236.414V233.124H23.1192L53.0656 263.004V266.874H49.7626ZM53.0656 260.618L47.1463 254.712V233.124H53.0656V260.618ZM45.4551 253.024L40.3815 247.962V233.124H45.4551V253.024ZM38.6902 246.274L33.6166 241.212V233.124H38.6902V246.274ZM31.9254 239.524L25.5106 233.124H31.9254V239.524ZM53.5611 231.436H18.7457L13.6721 226.374H58.6348L53.5611 231.436ZM17.55 232.629V267.368L12.4764 272.43V227.567L17.55 232.629ZM18.7457 268.561H53.5611L58.6348 273.624H13.6721L18.7457 268.561ZM54.7568 267.368V232.629L59.8304 227.567V272.43L54.7568 267.368Z" fill="#404040"/>
</g>
<g clip-path="url(#clip3)">
<rect x="219.558" y="226" width="48.1057" height="48" fill="white" fill-opacity="0.05"/>
<path d="M226.072 236.5V232.5L231.584 232L260.648 261.5L261.149 267.5H256.639L226.072 236.5Z" fill="#EF7C00"/>
<path d="M268.132 224.686H219.087C218.863 224.686 218.647 224.775 218.489 224.933C218.33 225.091 218.241 225.306 218.241 225.53V274.467C218.241 274.691 218.33 274.906 218.489 275.064C218.647 275.222 218.863 275.311 219.087 275.311H268.132C268.356 275.311 268.571 275.222 268.73 275.064C268.889 274.906 268.978 274.691 268.978 274.467V225.53C268.978 225.306 268.889 225.091 268.73 224.933C268.571 224.775 268.356 224.686 268.132 224.686ZM226.697 238.798L232.617 244.704V266.874H226.697V238.798ZM234.308 246.392L239.381 251.454V266.874H234.308V246.392ZM241.073 253.142L246.146 258.204V266.874H241.073V253.142ZM247.838 259.891L254.827 266.874H247.838V259.891ZM257.219 266.874L226.697 236.414V233.124H230.575L260.522 263.004V266.874H257.219ZM260.522 260.618L254.602 254.712V233.124H260.522V260.618ZM252.911 253.024L247.838 247.962V233.124H252.911V253.024ZM246.146 246.274L241.073 241.212V233.124H246.146V246.274ZM239.381 239.524L232.967 233.124H239.381V239.524ZM261.017 231.436H226.202L221.128 226.374H266.091L261.017 231.436ZM225.006 232.629V267.368L219.932 272.43V227.567L225.006 232.629ZM226.202 268.561H261.017L266.091 273.624H221.128L226.202 268.561ZM262.213 267.368V232.629L267.286 227.567V272.43L262.213 267.368Z" fill="#404040"/>
</g>
<g clip-path="url(#clip4)">
<rect x="357.862" y="323" width="48.1057" height="48" fill="white" fill-opacity="0.05"/>
<path d="M364.375 333.5V329.5L369.888 329L398.951 358.5L399.453 364.5H394.943L364.375 333.5Z" fill="#EF7C00"/>
<path d="M406.436 321.686H357.391C357.166 321.686 356.951 321.775 356.793 321.933C356.634 322.092 356.545 322.306 356.545 322.53V371.468C356.545 371.691 356.634 371.906 356.793 372.064C356.951 372.222 357.166 372.311 357.391 372.311H406.436C406.66 372.311 406.875 372.222 407.034 372.064C407.192 371.906 407.281 371.691 407.281 371.468V322.53C407.281 322.306 407.192 322.092 407.034 321.933C406.875 321.775 406.66 321.686 406.436 321.686ZM365.001 335.798L370.92 341.704V363.874H365.001V335.798ZM372.611 343.392L377.685 348.454V363.874H372.611V343.392ZM379.376 350.142L384.45 355.204V363.874H379.376V350.142ZM386.141 356.892L393.131 363.874H386.141V356.892ZM395.522 363.874L365.001 333.414V330.124H368.879L398.825 360.004V363.874H395.522ZM398.825 357.618L392.906 351.712V330.124H398.825V357.618ZM391.215 350.024L386.141 344.962V330.124H391.215V350.024ZM384.45 343.274L379.376 338.212V330.124H384.45V343.274ZM377.685 336.524L371.27 330.124H377.685V336.524ZM399.321 328.436H364.505L359.432 323.374H404.395L399.321 328.436ZM363.31 329.629V364.368L358.236 369.431V324.567L363.31 329.629ZM364.505 365.561H399.321L404.395 370.624H359.432L364.505 365.561ZM400.517 364.368V329.629L405.59 324.567V369.431L400.517 364.368Z" fill="#404040"/>
</g>
<g clip-path="url(#clip5)">
<rect x="295.726" y="323" width="48.1057" height="48" fill="white" fill-opacity="0.05"/>
<path d="M302.239 333.5V329.5L307.751 329L336.815 358.5L337.316 364.5H332.806L302.239 333.5Z" fill="#EF7C00"/>
<path d="M344.3 321.686H295.254C295.03 321.686 294.815 321.775 294.656 321.933C294.498 322.092 294.409 322.306 294.409 322.53V371.468C294.409 371.691 294.498 371.906 294.656 372.064C294.815 372.222 295.03 372.311 295.254 372.311H344.3C344.524 372.311 344.739 372.222 344.898 372.064C345.056 371.906 345.145 371.691 345.145 371.468V322.53C345.145 322.306 345.056 322.092 344.898 321.933C344.739 321.775 344.524 321.686 344.3 321.686ZM302.865 335.798L308.784 341.704V363.874H302.865V335.798ZM310.475 343.392L315.549 348.454V363.874H310.475V343.392ZM317.24 350.142L322.314 355.204V363.874H317.24V350.142ZM324.005 356.892L330.995 363.874H324.005V356.892ZM333.386 363.874L302.865 333.414V330.124H306.743L336.689 360.004V363.874H333.386ZM336.689 357.618L330.77 351.712V330.124H336.689V357.618ZM329.079 350.024L324.005 344.962V330.124H329.079V350.024ZM322.314 343.274L317.24 338.212V330.124H322.314V343.274ZM315.549 336.524L309.134 330.124H315.549V336.524ZM337.185 328.436H302.369L297.296 323.374H342.258L337.185 328.436ZM301.174 329.629V364.368L296.1 369.431V324.567L301.174 329.629ZM302.369 365.561H337.185L342.258 370.624H297.296L302.369 365.561ZM338.38 364.368V329.629L343.454 324.567V369.431L338.38 364.368Z" fill="#404040"/>
</g>
<g clip-path="url(#clip6)">
<rect x="221.562" y="323" width="48.1057" height="48" fill="white" fill-opacity="0.05"/>
<path d="M228.076 333.5V329.5L233.588 329L262.652 358.5L263.153 364.5H258.643L228.076 333.5Z" fill="#EF7C00"/>
<path d="M270.137 321.686H221.091C220.867 321.686 220.652 321.775 220.493 321.933C220.335 322.092 220.246 322.306 220.246 322.53V371.468C220.246 371.691 220.335 371.906 220.493 372.064C220.652 372.222 220.867 372.311 221.091 372.311H270.137C270.361 372.311 270.576 372.222 270.734 372.064C270.893 371.906 270.982 371.691 270.982 371.468V322.53C270.982 322.306 270.893 322.092 270.734 321.933C270.576 321.775 270.361 321.686 270.137 321.686ZM228.702 335.798L234.621 341.704V363.874H228.702V335.798ZM236.312 343.392L241.386 348.454V363.874H236.312V343.392ZM243.077 350.142L248.151 355.204V363.874H243.077V350.142ZM249.842 356.892L256.832 363.874H249.842V356.892ZM259.223 363.874L228.702 333.414V330.124H232.58L262.526 360.004V363.874H259.223ZM262.526 357.618L256.607 351.712V330.124H262.526V357.618ZM254.916 350.024L249.842 344.962V330.124H254.916V350.024ZM248.151 343.274L243.077 338.212V330.124H248.151V343.274ZM241.386 336.524L234.971 330.124H241.386V336.524ZM263.022 328.436H228.206L223.133 323.374H268.095L263.022 328.436ZM227.01 329.629V364.368L221.937 369.431V324.567L227.01 329.629ZM228.206 365.561H263.022L268.095 370.624H223.133L228.206 365.561ZM264.217 364.368V329.629L269.291 324.567V369.431L264.217 364.368Z" fill="#404040"/>
</g>
<g clip-path="url(#clip7)">
<rect x="133.369" y="323" width="48.1057" height="48" fill="white" fill-opacity="0.05"/>
<path d="M139.882 333.5V329.5L145.394 329L174.458 358.5L174.959 364.5H170.45L139.882 333.5Z" fill="#EF7C00"/>
<path d="M181.943 321.686H132.897C132.673 321.686 132.458 321.775 132.299 321.933C132.141 322.092 132.052 322.306 132.052 322.53V371.468C132.052 371.691 132.141 371.906 132.299 372.064C132.458 372.222 132.673 372.311 132.897 372.311H181.943C182.167 372.311 182.382 372.222 182.541 372.064C182.699 371.906 182.788 371.691 182.788 371.468V322.53C182.788 322.306 182.699 322.092 182.541 321.933C182.382 321.775 182.167 321.686 181.943 321.686ZM140.508 335.798L146.427 341.704V363.874H140.508V335.798ZM148.118 343.392L153.192 348.454V363.874H148.118V343.392ZM154.883 350.142L159.957 355.204V363.874H154.883V350.142ZM161.648 356.892L168.638 363.874H161.648V356.892ZM171.029 363.874L140.508 333.414V330.124H144.386L174.332 360.004V363.874H171.029ZM174.332 357.618L168.413 351.712V330.124H174.332V357.618ZM166.722 350.024L161.648 344.962V330.124H166.722V350.024ZM159.957 343.274L154.883 338.212V330.124H159.957V343.274ZM153.192 336.524L146.777 330.124H153.192V336.524ZM174.828 328.436H140.012L134.939 323.374H179.901L174.828 328.436ZM138.817 329.629V364.368L133.743 369.431V324.567L138.817 329.629ZM140.012 365.561H174.828L179.901 370.624H134.939L140.012 365.561ZM176.023 364.368V329.629L181.097 324.567V369.431L176.023 364.368Z" fill="#404040"/>
</g>
<g clip-path="url(#clip8)">
<rect x="210.538" y="33" width="48.1057" height="48" fill="white" fill-opacity="0.05"/>
<path d="M217.052 43.5V39.5L222.564 39L251.628 68.5L252.129 74.5H247.619L217.052 43.5Z" fill="#EF7C00"/>
<path d="M259.112 31.686H210.067C209.843 31.686 209.627 31.7749 209.469 31.9332C209.31 32.0914 209.221 32.306 209.221 32.5298V81.4673C209.221 81.6911 209.31 81.9057 209.469 82.0639C209.627 82.2221 209.843 82.311 210.067 82.311H259.112C259.336 82.311 259.551 82.2221 259.71 82.0639C259.869 81.9057 259.958 81.6911 259.958 81.4673V32.5298C259.958 32.306 259.869 32.0914 259.71 31.9332C259.551 31.7749 259.336 31.686 259.112 31.686ZM217.677 45.7978L223.597 51.704V73.8735H217.677V45.7978ZM225.288 53.3915L230.361 58.454V73.8735H225.288V53.3915ZM232.053 60.1415L237.126 65.204V73.8735H232.053V60.1415ZM238.817 66.8915L245.807 73.8735H238.817V66.8915ZM248.199 73.8735L217.677 43.4142V40.1235H221.555L251.502 70.0041V73.8735H248.199ZM251.502 67.618L245.582 61.7117V40.1235H251.502V67.618ZM243.891 60.0242L238.817 54.9617V40.1235H243.891V60.0242ZM237.126 53.2742L232.053 48.2117V40.1235H237.126V53.2742ZM230.361 46.5242L223.947 40.1235H230.361V46.5242ZM251.997 38.436H217.182L212.108 33.3735H257.071L251.997 38.436ZM215.986 39.6291V74.368L210.912 79.4305V34.5666L215.986 39.6291ZM217.182 75.561H251.997L257.071 80.6235H212.108L217.182 75.561ZM253.193 74.368V39.6291L258.266 34.5666V79.4305L253.193 74.368Z" fill="#404040"/>
</g>
<g clip-path="url(#clip9)">
<rect x="278.688" y="129" width="48.1057" height="48" fill="white" fill-opacity="0.05"/>
<path d="M285.202 139.5V135.5L290.714 135L319.778 164.5L320.279 170.5H315.769L285.202 139.5Z" fill="#EF7C00"/>
<path d="M327.262 127.686H278.217C277.993 127.686 277.778 127.775 277.619 127.933C277.461 128.091 277.372 128.306 277.372 128.53V177.467C277.372 177.691 277.461 177.906 277.619 178.064C277.778 178.222 277.993 178.311 278.217 178.311H327.262C327.487 178.311 327.702 178.222 327.86 178.064C328.019 177.906 328.108 177.691 328.108 177.467V128.53C328.108 128.306 328.019 128.091 327.86 127.933C327.702 127.775 327.487 127.686 327.262 127.686ZM285.828 141.798L291.747 147.704V169.874H285.828V141.798ZM293.438 149.392L298.512 154.454V169.874H293.438V149.392ZM300.203 156.142L305.277 161.204V169.874H300.203V156.142ZM306.968 162.891L313.958 169.874H306.968V162.891ZM316.349 169.874L285.828 139.414V136.124H289.706L319.652 166.004V169.874H316.349ZM319.652 163.618L313.733 157.712V136.124H319.652V163.618ZM312.042 156.024L306.968 150.962V136.124H312.042V156.024ZM305.277 149.274L300.203 144.212V136.124H305.277V149.274ZM298.512 142.524L292.097 136.124H298.512V142.524ZM320.148 134.436H285.332L280.258 129.374H325.221L320.148 134.436ZM284.136 135.629V170.368L279.063 175.43V130.567L284.136 135.629ZM285.332 171.561H320.148L325.221 176.624H280.258L285.332 171.561ZM321.343 170.368V135.629L326.417 130.567V175.43L321.343 170.368Z" fill="#404040"/>
</g>
<g clip-path="url(#clip10)">
<rect x="354.855" y="33" width="48.1057" height="48" fill="white" fill-opacity="0.05"/>
<path d="M361.369 43.5V39.5L366.881 39L395.945 68.5L396.446 74.5H391.936L361.369 43.5Z" fill="#EF7C00"/>
<path d="M403.429 31.686H354.384C354.16 31.686 353.945 31.7749 353.786 31.9332C353.628 32.0914 353.539 32.306 353.539 32.5298V81.4673C353.539 81.6911 353.628 81.9057 353.786 82.0639C353.945 82.2221 354.16 82.311 354.384 82.311H403.429C403.654 82.311 403.869 82.2221 404.027 82.0639C404.186 81.9057 404.275 81.6911 404.275 81.4673V32.5298C404.275 32.306 404.186 32.0914 404.027 31.9332C403.869 31.7749 403.654 31.686 403.429 31.686ZM361.995 45.7978L367.914 51.704V73.8735H361.995V45.7978ZM369.605 53.3915L374.679 58.454V73.8735H369.605V53.3915ZM376.37 60.1415L381.444 65.204V73.8735H376.37V60.1415ZM383.135 66.8915L390.125 73.8735H383.135V66.8915ZM392.516 73.8735L361.995 43.4142V40.1235H365.873L395.819 70.0041V73.8735H392.516ZM395.819 67.618L389.9 61.7117V40.1235H395.819V67.618ZM388.209 60.0242L383.135 54.9617V40.1235H388.209V60.0242ZM381.444 53.2742L376.37 48.2117V40.1235H381.444V53.2742ZM374.679 46.5242L368.264 40.1235H374.679V46.5242ZM396.315 38.436H361.499L356.425 33.3735H401.388L396.315 38.436ZM360.303 39.6291V74.368L355.23 79.4305V34.5666L360.303 39.6291ZM361.499 75.561H396.315L401.388 80.6235H356.425L361.499 75.561ZM397.51 74.368V39.6291L402.584 34.5666V79.4305L397.51 74.368Z" fill="#404040"/>
</g>
<g clip-path="url(#clip11)">
<path d="M50.1856 36H96.2869L96.6306 36.1715C97.6482 36.6792 98.2913 37.7187 98.2913 38.8559V43.88C98.2913 44.5663 97.9032 45.1936 97.2891 45.5C96.675 45.8064 96.2869 46.4337 96.2869 47.12V78C96.2869 79.6569 94.9437 81 93.2869 81H53.1856C51.5287 81 50.1856 79.6569 50.1856 78V47.12C50.1856 46.4337 49.7975 45.8064 49.1834 45.5C48.5692 45.1936 48.1812 44.5663 48.1812 43.88V38.8559C48.1812 37.7187 48.8242 36.6792 49.8419 36.1715L50.1856 36Z" fill="white" fill-opacity="0.05"/>
<path d="M66.2202 44.5V36H80.7522V44.5L78.2466 46L78.7477 62H68.2246V46L66.2202 44.5Z" fill="#EF7C00"/>
<path d="M62.7126 72.5V77H54.1938V72.5H62.7126Z" fill="#EF7C00"/>
<path d="M95.2207 34.3767H51.249C50.128 34.3778 49.0533 34.8227 48.2606 35.6136C47.4679 36.4045 47.0221 37.4769 47.021 38.5955V45.3455C47.021 45.5692 47.1101 45.7838 47.2687 45.9421C47.4273 46.1003 47.6423 46.1892 47.8666 46.1892H49.5578V77.408C49.5589 78.5265 50.0048 79.5989 50.7974 80.3898C51.5901 81.1808 52.6649 81.6256 53.7859 81.6267H92.6839C93.8049 81.6256 94.8796 81.1808 95.6723 80.3898C96.465 79.5989 96.9108 78.5265 96.9119 77.408V46.1892H98.6031C98.8274 46.1892 99.0425 46.1003 99.2011 45.9421C99.3596 45.7838 99.4487 45.5692 99.4487 45.3455V38.5955C99.4476 37.4769 99.0018 36.4045 98.2091 35.6136C97.4165 34.8227 96.3417 34.3778 95.2207 34.3767ZM66.47 36.0642H79.9997V44.5017H66.47V36.0642ZM77.4629 46.1892V61.3767H69.0068V46.1892H77.4629ZM48.7122 44.5017V38.5955C48.7131 37.9244 48.9807 37.2811 49.4562 36.8066C49.9318 36.3321 50.5765 36.0651 51.249 36.0642H64.7788V44.5017H48.7122ZM95.2207 77.408C95.2198 78.079 94.9522 78.7223 94.4767 79.1968C94.0011 79.6713 93.3564 79.9383 92.6839 79.9392H53.7859C53.1133 79.9383 52.4686 79.6713 51.993 79.1968C51.5175 78.7223 51.2499 78.079 51.249 77.408V46.1892H67.3156V62.2205C67.3156 62.4442 67.4047 62.6588 67.5633 62.8171C67.7219 62.9753 67.9369 63.0642 68.1612 63.0642H78.3085C78.5328 63.0642 78.7479 62.9753 78.9065 62.8171C79.065 62.6588 79.1541 62.4442 79.1541 62.2205V46.1892H95.2207V77.408ZM97.7575 44.5017H81.6909V36.0642H95.2207C95.8932 36.0651 96.538 36.3321 97.0135 36.8066C97.4891 37.2811 97.7566 37.9244 97.7575 38.5955V44.5017Z" fill="#404040"/>
<path d="M63.0877 71.5H53.786C53.5618 71.5 53.3467 71.5889 53.1881 71.7471C53.0295 71.9054 52.9404 72.12 52.9404 72.3437V77.4062C52.9404 77.63 53.0295 77.8446 53.1881 78.0029C53.3467 78.1611 53.5618 78.25 53.786 78.25H63.0877C63.312 78.25 63.5271 78.1611 63.6857 78.0029C63.8443 77.8446 63.9333 77.63 63.9333 77.4062V72.3437C63.9333 72.12 63.8443 71.9054 63.6857 71.7471C63.5271 71.5889 63.312 71.5 63.0877 71.5ZM62.2421 76.5625H54.6316V73.1875H62.2421V76.5625Z" fill="#404040"/>
<path d="M65.6249 73.1875H71.5442C71.7684 73.1875 71.9835 73.0986 72.1421 72.9404C72.3007 72.7821 72.3898 72.5675 72.3898 72.3438C72.3898 72.12 72.3007 71.9054 72.1421 71.7471C71.9835 71.5889 71.7684 71.5 71.5442 71.5H65.6249C65.4006 71.5 65.1856 71.5889 65.027 71.7471C64.8684 71.9054 64.7793 72.12 64.7793 72.3438C64.7793 72.5675 64.8684 72.7821 65.027 72.9404C65.1856 73.0986 65.4006 73.1875 65.6249 73.1875Z" fill="#404040"/>
<path d="M67.3161 76.5625H65.6249C65.4006 76.5625 65.1856 76.6514 65.027 76.8096C64.8684 76.9679 64.7793 77.1825 64.7793 77.4063C64.7793 77.63 64.8684 77.8446 65.027 78.0029C65.1856 78.1611 65.4006 78.25 65.6249 78.25H67.3161C67.5404 78.25 67.7555 78.1611 67.9141 78.0029C68.0726 77.8446 68.1617 77.63 68.1617 77.4063C68.1617 77.1825 68.0726 76.9679 67.9141 76.8096C67.7555 76.6514 67.5404 76.5625 67.3161 76.5625Z" fill="#404040"/>
<path d="M71.6499 74.0312H65.6249C65.4006 74.0312 65.1856 74.1201 65.027 74.2784C64.8684 74.4366 64.7793 74.6512 64.7793 74.875C64.7793 75.0988 64.8684 75.3134 65.027 75.4716C65.1856 75.6299 65.4006 75.7188 65.6249 75.7188H71.6499C71.8741 75.7188 72.0892 75.6299 72.2478 75.4716C72.4064 75.3134 72.4955 75.0988 72.4955 74.875C72.4955 74.6512 72.4064 74.4366 72.2478 74.2784C72.0892 74.1201 71.8741 74.0312 71.6499 74.0312Z" fill="#404040"/>
</g>
<g clip-path="url(#clip12)">
<path d="M-0.926747 133H45.1746L45.5183 133.171C46.5359 133.679 47.179 134.719 47.179 135.856V140.88C47.179 141.566 46.7909 142.194 46.1768 142.5C45.5627 142.806 45.1746 143.434 45.1746 144.12V175C45.1746 176.657 43.8314 178 42.1746 178H2.07325C0.4164 178 -0.926747 176.657 -0.926747 175V144.12C-0.926747 143.434 -1.31482 142.806 -1.92895 142.5C-2.54308 142.194 -2.93115 141.566 -2.93115 140.88V135.856C-2.93115 134.719 -2.28808 133.679 -1.27043 133.171L-0.926747 133Z" fill="white" fill-opacity="0.05"/>
<path d="M15.1079 141.5V133H29.6398V141.5L27.1343 143L27.6354 159H17.1123V143L15.1079 141.5Z" fill="#EF7C00"/>
<path d="M11.6003 169.5V174H3.08154V169.5H11.6003Z" fill="#EF7C00"/>
<path d="M44.1084 131.377H0.136734C-0.984269 131.378 -2.05904 131.823 -2.85171 132.614C-3.64438 133.405 -4.09019 134.477 -4.09131 135.595V142.345C-4.09131 142.569 -4.00222 142.784 -3.84364 142.942C-3.68505 143.1 -3.46997 143.189 -3.2457 143.189H-1.55448V174.408C-1.55336 175.527 -1.10755 176.599 -0.314881 177.39C0.477788 178.181 1.55256 178.626 2.67356 178.627H41.5716C42.6926 178.626 43.7673 178.181 44.56 177.39C45.3527 176.599 45.7985 175.527 45.7996 174.408V143.189H47.4908C47.7151 143.189 47.9302 143.1 48.0888 142.942C48.2473 142.784 48.3364 142.569 48.3364 142.345V135.595C48.3353 134.477 47.8895 133.405 47.0968 132.614C46.3042 131.823 45.2294 131.378 44.1084 131.377ZM15.3577 133.064H28.8874V141.502H15.3577V133.064ZM26.3506 143.189V158.377H17.8945V143.189H26.3506ZM-2.40009 141.502V135.595C-2.3992 134.924 -2.13164 134.281 -1.65608 133.807C-1.18053 133.332 -0.535799 133.065 0.136734 133.064H13.6665V141.502H-2.40009ZM44.1084 174.408C44.1075 175.079 43.8399 175.722 43.3644 176.197C42.8888 176.671 42.2441 176.938 41.5716 176.939H2.67356C2.00103 176.938 1.3563 176.671 0.880742 176.197C0.405189 175.722 0.13763 175.079 0.136734 174.408V143.189H16.2033V159.22C16.2033 159.444 16.2924 159.659 16.451 159.817C16.6096 159.975 16.8246 160.064 17.0489 160.064H27.1962C27.4205 160.064 27.6356 159.975 27.7941 159.817C27.9527 159.659 28.0418 159.444 28.0418 159.22V143.189H44.1084V174.408ZM46.6452 141.502H30.5786V133.064H44.1084C44.7809 133.065 45.4256 133.332 45.9012 133.807C46.3768 134.281 46.6443 134.924 46.6452 135.595V141.502Z" fill="#404040"/>
<path d="M11.9754 168.5H2.67373C2.44946 168.5 2.23438 168.589 2.0758 168.747C1.91722 168.905 1.82812 169.12 1.82812 169.344V174.406C1.82812 174.63 1.91722 174.845 2.0758 175.003C2.23438 175.161 2.44946 175.25 2.67373 175.25H11.9754C12.1997 175.25 12.4148 175.161 12.5734 175.003C12.7319 174.845 12.821 174.63 12.821 174.406V169.344C12.821 169.12 12.7319 168.905 12.5734 168.747C12.4148 168.589 12.1997 168.5 11.9754 168.5ZM11.1298 173.562H3.51934V170.187H11.1298V173.562Z" fill="#404040"/>
<path d="M14.5126 170.188H20.4319C20.6561 170.188 20.8712 170.099 21.0298 169.94C21.1884 169.782 21.2775 169.568 21.2775 169.344C21.2775 169.12 21.1884 168.905 21.0298 168.747C20.8712 168.589 20.6561 168.5 20.4319 168.5H14.5126C14.2883 168.5 14.0732 168.589 13.9147 168.747C13.7561 168.905 13.667 169.12 13.667 169.344C13.667 169.568 13.7561 169.782 13.9147 169.94C14.0732 170.099 14.2883 170.188 14.5126 170.188Z" fill="#404040"/>
<path d="M16.2038 173.562H14.5126C14.2883 173.562 14.0732 173.651 13.9147 173.81C13.7561 173.968 13.667 174.182 13.667 174.406C13.667 174.63 13.7561 174.845 13.9147 175.003C14.0732 175.161 14.2883 175.25 14.5126 175.25H16.2038C16.4281 175.25 16.6432 175.161 16.8018 175.003C16.9603 174.845 17.0494 174.63 17.0494 174.406C17.0494 174.182 16.9603 173.968 16.8018 173.81C16.6432 173.651 16.4281 173.562 16.2038 173.562Z" fill="#404040"/>
<path d="M20.5376 171.031H14.5126C14.2883 171.031 14.0732 171.12 13.9147 171.278C13.7561 171.437 13.667 171.651 13.667 171.875C13.667 172.099 13.7561 172.313 13.9147 172.472C14.0732 172.63 14.2883 172.719 14.5126 172.719H20.5376C20.7618 172.719 20.9769 172.63 21.1355 172.472C21.2941 172.313 21.3832 172.099 21.3832 171.875C21.3832 171.651 21.2941 171.437 21.1355 171.278C20.9769 171.12 20.7618 171.031 20.5376 171.031Z" fill="#404040"/>
</g>
<g clip-path="url(#clip13)">
<path d="M105.307 133H151.408L151.752 133.171C152.77 133.679 153.413 134.719 153.413 135.856V140.88C153.413 141.566 153.025 142.194 152.411 142.5C151.797 142.806 151.408 143.434 151.408 144.12V175C151.408 176.657 150.065 178 148.408 178H108.307C106.65 178 105.307 176.657 105.307 175V144.12C105.307 143.434 104.919 142.806 104.305 142.5C103.691 142.194 103.303 141.566 103.303 140.88V135.856C103.303 134.719 103.946 133.679 104.963 133.171L105.307 133Z" fill="white" fill-opacity="0.05"/>
<path d="M121.342 141.5V133H135.874V141.5L133.368 143L133.869 159H123.346V143L121.342 141.5Z" fill="#EF7C00"/>
<path d="M117.834 169.5V174H109.315V169.5H117.834Z" fill="#EF7C00"/>
<path d="M150.342 131.377H106.371C105.25 131.378 104.175 131.823 103.382 132.614C102.59 133.405 102.144 134.477 102.143 135.595V142.345C102.143 142.569 102.232 142.784 102.39 142.942C102.549 143.1 102.764 143.189 102.988 143.189H104.679V174.408C104.681 175.527 105.126 176.599 105.919 177.39C106.712 178.181 107.786 178.626 108.907 178.627H147.805C148.926 178.626 150.001 178.181 150.794 177.39C151.587 176.599 152.032 175.527 152.033 174.408V143.189H153.725C153.949 143.189 154.164 143.1 154.323 142.942C154.481 142.784 154.57 142.569 154.57 142.345V135.595C154.569 134.477 154.123 133.405 153.331 132.614C152.538 131.823 151.463 131.378 150.342 131.377ZM121.592 133.064H135.121V141.502H121.592V133.064ZM132.584 143.189V158.377H124.128V143.189H132.584ZM103.834 141.502V135.595C103.835 134.924 104.102 134.281 104.578 133.807C105.053 133.332 105.698 133.065 106.371 133.064H119.9V141.502H103.834ZM150.342 174.408C150.341 175.079 150.074 175.722 149.598 176.197C149.123 176.671 148.478 176.938 147.805 176.939H108.907C108.235 176.938 107.59 176.671 107.115 176.197C106.639 175.722 106.372 175.079 106.371 174.408V143.189H122.437V159.22C122.437 159.444 122.526 159.659 122.685 159.817C122.843 159.975 123.059 160.064 123.283 160.064H133.43C133.654 160.064 133.869 159.975 134.028 159.817C134.187 159.659 134.276 159.444 134.276 159.22V143.189H150.342V174.408ZM152.879 141.502H136.813V133.064H150.342C151.015 133.065 151.66 133.332 152.135 133.807C152.611 134.281 152.878 134.924 152.879 135.595V141.502Z" fill="#404040"/>
<path d="M118.209 168.5H108.908C108.683 168.5 108.468 168.589 108.31 168.747C108.151 168.905 108.062 169.12 108.062 169.344V174.406C108.062 174.63 108.151 174.845 108.31 175.003C108.468 175.161 108.683 175.25 108.908 175.25H118.209C118.434 175.25 118.649 175.161 118.807 175.003C118.966 174.845 119.055 174.63 119.055 174.406V169.344C119.055 169.12 118.966 168.905 118.807 168.747C118.649 168.589 118.434 168.5 118.209 168.5ZM117.364 173.562H109.753V170.187H117.364V173.562Z" fill="#404040"/>
<path d="M120.746 170.188H126.666C126.89 170.188 127.105 170.099 127.264 169.94C127.422 169.782 127.511 169.568 127.511 169.344C127.511 169.12 127.422 168.905 127.264 168.747C127.105 168.589 126.89 168.5 126.666 168.5H120.746C120.522 168.5 120.307 168.589 120.149 168.747C119.99 168.905 119.901 169.12 119.901 169.344C119.901 169.568 119.99 169.782 120.149 169.94C120.307 170.099 120.522 170.188 120.746 170.188Z" fill="#404040"/>
<path d="M122.438 173.562H120.746C120.522 173.562 120.307 173.651 120.149 173.81C119.99 173.968 119.901 174.182 119.901 174.406C119.901 174.63 119.99 174.845 120.149 175.003C120.307 175.161 120.522 175.25 120.746 175.25H122.438C122.662 175.25 122.877 175.161 123.036 175.003C123.194 174.845 123.283 174.63 123.283 174.406C123.283 174.182 123.194 173.968 123.036 173.81C122.877 173.651 122.662 173.562 122.438 173.562Z" fill="#404040"/>
<path d="M126.771 171.031H120.746C120.522 171.031 120.307 171.12 120.149 171.278C119.99 171.437 119.901 171.651 119.901 171.875C119.901 172.099 119.99 172.313 120.149 172.472C120.307 172.63 120.522 172.719 120.746 172.719H126.771C126.996 172.719 127.211 172.63 127.369 172.472C127.528 172.313 127.617 172.099 127.617 171.875C127.617 171.651 127.528 171.437 127.369 171.278C127.211 171.12 126.996 171.031 126.771 171.031Z" fill="#404040"/>
</g>
<g clip-path="url(#clip14)">
<path d="M213.544 133H259.646L259.989 133.171C261.007 133.679 261.65 134.719 261.65 135.856V140.88C261.65 141.566 261.262 142.194 260.648 142.5C260.034 142.806 259.646 143.434 259.646 144.12V175C259.646 176.657 258.303 178 256.646 178H216.544C214.888 178 213.544 176.657 213.544 175V144.12C213.544 143.434 213.156 142.806 212.542 142.5C211.928 142.194 211.54 141.566 211.54 140.88V135.856C211.54 134.719 212.183 133.679 213.201 133.171L213.544 133Z" fill="white" fill-opacity="0.05"/>
<path d="M229.579 141.5V133H244.111V141.5L241.606 143L242.107 159H231.584V143L229.579 141.5Z" fill="#EF7C00"/>
<path d="M226.071 169.5V174H217.553V169.5H226.071Z" fill="#EF7C00"/>
<path d="M258.58 131.377H214.608C213.487 131.378 212.412 131.823 211.619 132.614C210.827 133.405 210.381 134.477 210.38 135.595V142.345C210.38 142.569 210.469 142.784 210.628 142.942C210.786 143.1 211.001 143.189 211.225 143.189H212.917V174.408C212.918 175.527 213.364 176.599 214.156 177.39C214.949 178.181 216.024 178.626 217.145 178.627H256.043C257.164 178.626 258.239 178.181 259.031 177.39C259.824 176.599 260.27 175.527 260.271 174.408V143.189H261.962C262.186 143.189 262.401 143.1 262.56 142.942C262.719 142.784 262.808 142.569 262.808 142.345V135.595C262.806 134.477 262.361 133.405 261.568 132.614C260.775 131.823 259.701 131.378 258.58 131.377ZM229.829 133.064H243.359V141.502H229.829V133.064ZM240.822 143.189V158.377H232.366V143.189H240.822ZM212.071 141.502V135.595C212.072 134.924 212.34 134.281 212.815 133.807C213.291 133.332 213.935 133.065 214.608 133.064H228.138V141.502H212.071ZM258.58 174.408C258.579 175.079 258.311 175.722 257.836 176.197C257.36 176.671 256.715 176.938 256.043 176.939H217.145C216.472 176.938 215.827 176.671 215.352 176.197C214.876 175.722 214.609 175.079 214.608 174.408V143.189H230.674V159.22C230.674 159.444 230.764 159.659 230.922 159.817C231.081 159.975 231.296 160.064 231.52 160.064H241.667C241.892 160.064 242.107 159.975 242.265 159.817C242.424 159.659 242.513 159.444 242.513 159.22V143.189H258.58V174.408ZM261.116 141.502H245.05V133.064H258.58C259.252 133.065 259.897 133.332 260.372 133.807C260.848 134.281 261.116 134.924 261.116 135.595V141.502Z" fill="#404040"/>
<path d="M226.447 168.5H217.145C216.921 168.5 216.706 168.589 216.547 168.747C216.388 168.905 216.299 169.12 216.299 169.344V174.406C216.299 174.63 216.388 174.845 216.547 175.003C216.706 175.161 216.921 175.25 217.145 175.25H226.447C226.671 175.25 226.886 175.161 227.045 175.003C227.203 174.845 227.292 174.63 227.292 174.406V169.344C227.292 169.12 227.203 168.905 227.045 168.747C226.886 168.589 226.671 168.5 226.447 168.5ZM225.601 173.562H217.991V170.187H225.601V173.562Z" fill="#404040"/>
<path d="M228.984 170.188H234.903C235.127 170.188 235.342 170.099 235.501 169.94C235.66 169.782 235.749 169.568 235.749 169.344C235.749 169.12 235.66 168.905 235.501 168.747C235.342 168.589 235.127 168.5 234.903 168.5H228.984C228.76 168.5 228.544 168.589 228.386 168.747C228.227 168.905 228.138 169.12 228.138 169.344C228.138 169.568 228.227 169.782 228.386 169.94C228.544 170.099 228.76 170.188 228.984 170.188Z" fill="#404040"/>
<path d="M230.675 173.562H228.984C228.76 173.562 228.544 173.651 228.386 173.81C228.227 173.968 228.138 174.182 228.138 174.406C228.138 174.63 228.227 174.845 228.386 175.003C228.544 175.161 228.76 175.25 228.984 175.25H230.675C230.899 175.25 231.114 175.161 231.273 175.003C231.432 174.845 231.521 174.63 231.521 174.406C231.521 174.182 231.432 173.968 231.273 173.81C231.114 173.651 230.899 173.562 230.675 173.562Z" fill="#404040"/>
<path d="M235.009 171.031H228.984C228.76 171.031 228.544 171.12 228.386 171.278C228.227 171.437 228.138 171.651 228.138 171.875C228.138 172.099 228.227 172.313 228.386 172.472C228.544 172.63 228.76 172.719 228.984 172.719H235.009C235.233 172.719 235.448 172.63 235.607 172.472C235.765 172.313 235.854 172.099 235.854 171.875C235.854 171.651 235.765 171.437 235.607 171.278C235.448 171.12 235.233 171.031 235.009 171.031Z" fill="#404040"/>
</g>
<g clip-path="url(#clip15)">
<path d="M347.84 230H393.941L394.285 230.172C395.303 230.679 395.946 231.719 395.946 232.856V237.88C395.946 238.567 395.558 239.194 394.943 239.5C394.329 239.807 393.941 240.434 393.941 241.12V272C393.941 273.657 392.598 275 390.941 275H350.84C349.183 275 347.84 273.657 347.84 272V241.12C347.84 240.434 347.452 239.807 346.838 239.5C346.224 239.194 345.835 238.567 345.835 237.88V232.856C345.835 231.719 346.479 230.679 347.496 230.172L347.84 230Z" fill="white" fill-opacity="0.05"/>
<path d="M363.875 238.5V230H378.406V238.5L375.901 240L376.402 256H365.879V240L363.875 238.5Z" fill="#EF7C00"/>
<path d="M360.367 266.5V271H351.848V266.5H360.367Z" fill="#EF7C00"/>
<path d="M392.875 228.377H348.903C347.782 228.378 346.708 228.823 345.915 229.614C345.122 230.405 344.676 231.477 344.675 232.596V239.346C344.675 239.569 344.764 239.784 344.923 239.942C345.082 240.101 345.297 240.189 345.521 240.189H347.212V271.408C347.213 272.527 347.659 273.599 348.452 274.39C349.244 275.181 350.319 275.626 351.44 275.627H390.338C391.459 275.626 392.534 275.181 393.327 274.39C394.119 273.599 394.565 272.527 394.566 271.408V240.189H396.257C396.482 240.189 396.697 240.101 396.855 239.942C397.014 239.784 397.103 239.569 397.103 239.346V232.596C397.102 231.477 396.656 230.405 395.863 229.614C395.071 228.823 393.996 228.378 392.875 228.377ZM364.124 230.064H377.654V238.502H364.124V230.064ZM375.117 240.189V255.377H366.661V240.189H375.117ZM346.367 238.502V232.596C346.367 231.925 346.635 231.281 347.111 230.807C347.586 230.332 348.231 230.065 348.903 230.064H362.433V238.502H346.367ZM392.875 271.408C392.874 272.079 392.607 272.723 392.131 273.197C391.655 273.672 391.011 273.939 390.338 273.939H351.44C350.768 273.939 350.123 273.672 349.647 273.197C349.172 272.723 348.904 272.079 348.903 271.408V240.189H364.97V256.221C364.97 256.444 365.059 256.659 365.218 256.817C365.376 256.976 365.591 257.064 365.816 257.064H375.963C376.187 257.064 376.402 256.976 376.561 256.817C376.719 256.659 376.808 256.444 376.808 256.221V240.189H392.875V271.408ZM395.412 238.502H379.345V230.064H392.875C393.548 230.065 394.192 230.332 394.668 230.807C395.143 231.281 395.411 231.925 395.412 232.596V238.502Z" fill="#404040"/>
<path d="M360.742 265.5H351.44C351.216 265.5 351.001 265.589 350.842 265.747C350.684 265.906 350.595 266.12 350.595 266.344V271.406C350.595 271.63 350.684 271.845 350.842 272.003C351.001 272.161 351.216 272.25 351.44 272.25H360.742C360.966 272.25 361.181 272.161 361.34 272.003C361.499 271.845 361.588 271.63 361.588 271.406V266.344C361.588 266.12 361.499 265.906 361.34 265.747C361.181 265.589 360.966 265.5 360.742 265.5ZM359.896 270.563H352.286V267.188H359.896V270.563Z" fill="#404040"/>
<path d="M363.279 267.188H369.198C369.423 267.188 369.638 267.099 369.796 266.941C369.955 266.782 370.044 266.568 370.044 266.344C370.044 266.12 369.955 265.906 369.796 265.747C369.638 265.589 369.423 265.5 369.198 265.5H363.279C363.055 265.5 362.84 265.589 362.681 265.747C362.523 265.906 362.434 266.12 362.434 266.344C362.434 266.568 362.523 266.782 362.681 266.941C362.84 267.099 363.055 267.188 363.279 267.188Z" fill="#404040"/>
<path d="M364.97 270.563H363.279C363.055 270.563 362.84 270.652 362.681 270.81C362.523 270.968 362.434 271.183 362.434 271.406C362.434 271.63 362.523 271.845 362.681 272.003C362.84 272.161 363.055 272.25 363.279 272.25H364.97C365.195 272.25 365.41 272.161 365.568 272.003C365.727 271.845 365.816 271.63 365.816 271.406C365.816 271.183 365.727 270.968 365.568 270.81C365.41 270.652 365.195 270.563 364.97 270.563Z" fill="#404040"/>
<path d="M369.304 268.031H363.279C363.055 268.031 362.84 268.12 362.681 268.279C362.523 268.437 362.434 268.651 362.434 268.875C362.434 269.099 362.523 269.314 362.681 269.472C362.84 269.63 363.055 269.719 363.279 269.719H369.304C369.528 269.719 369.744 269.63 369.902 269.472C370.061 269.314 370.15 269.099 370.15 268.875C370.15 268.651 370.061 268.437 369.902 268.279C369.744 268.12 369.528 268.031 369.304 268.031Z" fill="#404040"/>
</g>
<g clip-path="url(#clip16)">
<path d="M120.34 230H166.441L166.785 230.172C167.803 230.679 168.446 231.719 168.446 232.856V237.88C168.446 238.567 168.058 239.194 167.443 239.5C166.829 239.807 166.441 240.434 166.441 241.12V272C166.441 273.657 165.098 275 163.441 275H123.34C121.683 275 120.34 273.657 120.34 272V241.12C120.34 240.434 119.952 239.807 119.338 239.5C118.724 239.194 118.335 238.567 118.335 237.88V232.856C118.335 231.719 118.979 230.679 119.996 230.172L120.34 230Z" fill="white" fill-opacity="0.05"/>
<path d="M136.375 238.5V230H150.906V238.5L148.401 240L148.902 256H138.379V240L136.375 238.5Z" fill="#EF7C00"/>
<path d="M132.867 266.5V271H124.348V266.5H132.867Z" fill="#EF7C00"/>
<path d="M165.375 228.377H121.403C120.282 228.378 119.208 228.823 118.415 229.614C117.622 230.405 117.176 231.477 117.175 232.596V239.346C117.175 239.569 117.264 239.784 117.423 239.942C117.582 240.101 117.797 240.189 118.021 240.189H119.712V271.408C119.713 272.527 120.159 273.599 120.952 274.39C121.744 275.181 122.819 275.626 123.94 275.627H162.838C163.959 275.626 165.034 275.181 165.827 274.39C166.619 273.599 167.065 272.527 167.066 271.408V240.189H168.757C168.982 240.189 169.197 240.101 169.355 239.942C169.514 239.784 169.603 239.569 169.603 239.346V232.596C169.602 231.477 169.156 230.405 168.363 229.614C167.571 228.823 166.496 228.378 165.375 228.377ZM136.624 230.064H150.154V238.502H136.624V230.064ZM147.617 240.189V255.377H139.161V240.189H147.617ZM118.867 238.502V232.596C118.867 231.925 119.135 231.281 119.611 230.807C120.086 230.332 120.731 230.065 121.403 230.064H134.933V238.502H118.867ZM165.375 271.408C165.374 272.079 165.107 272.723 164.631 273.197C164.155 273.672 163.511 273.939 162.838 273.939H123.94C123.268 273.939 122.623 273.672 122.147 273.197C121.672 272.723 121.404 272.079 121.403 271.408V240.189H137.47V256.221C137.47 256.444 137.559 256.659 137.718 256.817C137.876 256.976 138.091 257.064 138.316 257.064H148.463C148.687 257.064 148.902 256.976 149.061 256.817C149.219 256.659 149.308 256.444 149.308 256.221V240.189H165.375V271.408ZM167.912 238.502H151.845V230.064H165.375C166.048 230.065 166.692 230.332 167.168 230.807C167.643 231.281 167.911 231.925 167.912 232.596V238.502Z" fill="#404040"/>
<path d="M133.242 265.5H123.94C123.716 265.5 123.501 265.589 123.342 265.747C123.184 265.906 123.095 266.12 123.095 266.344V271.406C123.095 271.63 123.184 271.845 123.342 272.003C123.501 272.161 123.716 272.25 123.94 272.25H133.242C133.466 272.25 133.681 272.161 133.84 272.003C133.999 271.845 134.088 271.63 134.088 271.406V266.344C134.088 266.12 133.999 265.906 133.84 265.747C133.681 265.589 133.466 265.5 133.242 265.5ZM132.396 270.563H124.786V267.188H132.396V270.563Z" fill="#404040"/>
<path d="M135.779 267.188H141.698C141.923 267.188 142.138 267.099 142.296 266.941C142.455 266.782 142.544 266.568 142.544 266.344C142.544 266.12 142.455 265.906 142.296 265.747C142.138 265.589 141.923 265.5 141.698 265.5H135.779C135.555 265.5 135.34 265.589 135.181 265.747C135.023 265.906 134.934 266.12 134.934 266.344C134.934 266.568 135.023 266.782 135.181 266.941C135.34 267.099 135.555 267.188 135.779 267.188Z" fill="#404040"/>
<path d="M137.47 270.563H135.779C135.555 270.563 135.34 270.652 135.181 270.81C135.023 270.968 134.934 271.183 134.934 271.406C134.934 271.63 135.023 271.845 135.181 272.003C135.34 272.161 135.555 272.25 135.779 272.25H137.47C137.695 272.25 137.91 272.161 138.068 272.003C138.227 271.845 138.316 271.63 138.316 271.406C138.316 271.183 138.227 270.968 138.068 270.81C137.91 270.652 137.695 270.563 137.47 270.563Z" fill="#404040"/>
<path d="M141.804 268.031H135.779C135.555 268.031 135.34 268.12 135.181 268.279C135.023 268.437 134.934 268.651 134.934 268.875C134.934 269.099 135.023 269.314 135.181 269.472C135.34 269.63 135.555 269.719 135.779 269.719H141.804C142.028 269.719 142.244 269.63 142.402 269.472C142.561 269.314 142.65 269.099 142.65 268.875C142.65 268.651 142.561 268.437 142.402 268.279C142.244 268.12 142.028 268.031 141.804 268.031Z" fill="#404040"/>
</g>
<g clip-path="url(#clip17)">
<path d="M-16.9614 327H29.1399L29.4836 327.171C30.5012 327.679 31.1443 328.718 31.1443 329.856V334.88C31.1443 335.566 30.7562 336.193 30.1421 336.5C29.528 336.806 29.1399 337.433 29.1399 338.12V369C29.1399 370.657 27.7968 372 26.1399 372H-13.9614C-15.6183 372 -16.9614 370.657 -16.9614 369V338.12C-16.9614 337.433 -17.3495 336.806 -17.9636 336.5C-18.5777 336.193 -18.9658 335.566 -18.9658 334.88V329.856C-18.9658 328.718 -18.3227 327.679 -17.3051 327.171L-16.9614 327Z" fill="white" fill-opacity="0.05"/>
<path d="M-0.926758 335.5V327H13.6052V335.5L11.0997 337L11.6008 353H1.07765V337L-0.926758 335.5Z" fill="#EF7C00"/>
<path d="M28.0737 325.376H-15.8979C-17.0189 325.378 -18.0937 325.822 -18.8864 326.613C-19.679 327.404 -20.1249 328.477 -20.126 329.595V336.345C-20.126 336.569 -20.0369 336.784 -19.8783 336.942C-19.7197 337.1 -19.5046 337.189 -19.2804 337.189H-17.5892V368.408C-17.588 369.526 -17.1422 370.599 -16.3495 371.39C-15.5569 372.181 -14.4821 372.625 -13.3611 372.626H25.5369C26.6579 372.625 27.7327 372.181 28.5253 371.39C29.318 370.599 29.7638 369.526 29.7649 368.408V337.189H31.4561C31.6804 337.189 31.8955 337.1 32.0541 336.942C32.2127 336.784 32.3018 336.569 32.3018 336.345V329.595C32.3006 328.477 31.8548 327.404 31.0622 326.613C30.2695 325.822 29.1947 325.378 28.0737 325.376ZM-0.676979 327.064H12.8528V335.501H-0.676979V327.064ZM10.3159 337.189V352.376H1.85985V337.189H10.3159ZM-18.4348 335.501V329.595C-18.4339 328.924 -18.1663 328.281 -17.6908 327.806C-17.2152 327.332 -16.5705 327.065 -15.8979 327.064H-2.3682V335.501H-18.4348ZM28.0737 368.408C28.0728 369.079 27.8053 369.722 27.3297 370.197C26.8542 370.671 26.2094 370.938 25.5369 370.939H-13.3611C-14.0336 370.938 -14.6784 370.671 -15.1539 370.197C-15.6295 369.722 -15.897 369.079 -15.8979 368.408V337.189H0.168629V353.22C0.168629 353.444 0.257719 353.659 0.416302 353.817C0.574884 353.975 0.789968 354.064 1.01424 354.064H11.1615C11.3858 354.064 11.6009 353.975 11.7595 353.817C11.9181 353.659 12.0071 353.444 12.0071 353.22V337.189H28.0737V368.408ZM30.6105 335.501H14.544V327.064H28.0737C28.7462 327.065 29.391 327.332 29.8665 327.806C30.3421 328.281 30.6096 328.924 30.6105 329.595V335.501Z" fill="#404040"/>
<path d="M-1.52207 364.187H4.39719C4.62146 364.187 4.83655 364.098 4.99513 363.94C5.15371 363.782 5.2428 363.567 5.2428 363.344C5.2428 363.12 5.15371 362.905 4.99513 362.747C4.83655 362.589 4.62146 362.5 4.39719 362.5H-1.52207C-1.74634 362.5 -1.96142 362.589 -2.12 362.747C-2.27859 362.905 -2.36768 363.12 -2.36768 363.344C-2.36768 363.567 -2.27859 363.782 -2.12 363.94C-1.96142 364.098 -1.74634 364.187 -1.52207 364.187Z" fill="#404040"/>
<path d="M0.16915 367.562H-1.52207C-1.74634 367.562 -1.96142 367.651 -2.12 367.809C-2.27859 367.968 -2.36768 368.182 -2.36768 368.406C-2.36768 368.63 -2.27859 368.844 -2.12 369.003C-1.96142 369.161 -1.74634 369.25 -1.52207 369.25H0.16915C0.39342 369.25 0.608504 369.161 0.767087 369.003C0.925669 368.844 1.01476 368.63 1.01476 368.406C1.01476 368.182 0.925669 367.968 0.767087 367.809C0.608504 367.651 0.39342 367.562 0.16915 367.562Z" fill="#404040"/>
<path d="M4.50289 365.031H-1.52207C-1.74634 365.031 -1.96142 365.12 -2.12 365.278C-2.27859 365.436 -2.36768 365.651 -2.36768 365.875C-2.36768 366.099 -2.27859 366.313 -2.12 366.471C-1.96142 366.63 -1.74634 366.719 -1.52207 366.719H4.50289C4.72716 366.719 4.94225 366.63 5.10083 366.471C5.25941 366.313 5.3485 366.099 5.3485 365.875C5.3485 365.651 5.25941 365.436 5.10083 365.278C4.94225 365.12 4.72716 365.031 4.50289 365.031Z" fill="#404040"/>
</g>
<g clip-path="url(#clip18)">
<path d="M56.1987 327H102.3L102.644 327.171C103.661 327.679 104.304 328.718 104.304 329.856V334.88C104.304 335.566 103.916 336.193 103.302 336.5C102.688 336.806 102.3 337.433 102.3 338.12V369C102.3 370.657 100.957 372 99.3001 372H59.1987C57.5419 372 56.1987 370.657 56.1987 369V338.12C56.1987 337.433 55.8107 336.806 55.1965 336.5C54.5824 336.193 54.1943 335.566 54.1943 334.88V329.856C54.1943 328.718 54.8374 327.679 55.8551 327.171L56.1987 327Z" fill="white" fill-opacity="0.05"/>
<path d="M72.2334 335.5V327H86.7653V335.5L84.2598 337L84.7609 353H74.2378V337L72.2334 335.5Z" fill="#EF7C00"/>
<path d="M68.7258 363.5V368H60.207V363.5H68.7258Z" fill="#EF7C00"/>
<path d="M101.234 325.376H57.2622C56.1412 325.378 55.0665 325.822 54.2738 326.613C53.4811 327.404 53.0353 328.477 53.0342 329.595V336.345C53.0342 336.569 53.1233 336.784 53.2819 336.942C53.4404 337.1 53.6555 337.189 53.8798 337.189H55.571V368.408C55.5721 369.526 56.0179 370.599 56.8106 371.39C57.6033 372.181 58.678 372.625 59.799 372.626H98.697C99.818 372.625 100.893 372.181 101.685 371.39C102.478 370.599 102.924 369.526 102.925 368.408V337.189H104.616C104.841 337.189 105.056 337.1 105.214 336.942C105.373 336.784 105.462 336.569 105.462 336.345V329.595C105.461 328.477 105.015 327.404 104.222 326.613C103.43 325.822 102.355 325.378 101.234 325.376ZM72.4832 327.064H86.0129V335.501H72.4832V327.064ZM83.4761 337.189V352.376H75.02V337.189H83.4761ZM54.7254 335.501V329.595C54.7263 328.924 54.9939 328.281 55.4694 327.806C55.945 327.332 56.5897 327.065 57.2622 327.064H70.792V335.501H54.7254ZM101.234 368.408C101.233 369.079 100.965 369.722 100.49 370.197C100.014 370.671 99.3696 370.938 98.697 370.939H59.799C59.1265 370.938 58.4818 370.671 58.0062 370.197C57.5307 369.722 57.2631 369.079 57.2622 368.408V337.189H73.3288V353.22C73.3288 353.444 73.4179 353.659 73.5765 353.817C73.735 353.975 73.9501 354.064 74.1744 354.064H84.3217C84.546 354.064 84.7611 353.975 84.9196 353.817C85.0782 353.659 85.1673 353.444 85.1673 353.22V337.189H101.234V368.408ZM103.771 335.501H87.7041V327.064H101.234C101.906 327.065 102.551 327.332 103.027 327.806C103.502 328.281 103.77 328.924 103.771 329.595V335.501Z" fill="#404040"/>
<path d="M69.1009 362.5H59.7992C59.575 362.5 59.3599 362.589 59.2013 362.747C59.0427 362.905 58.9536 363.12 58.9536 363.344V368.406C58.9536 368.63 59.0427 368.844 59.2013 369.003C59.3599 369.161 59.575 369.25 59.7992 369.25H69.1009C69.3252 369.25 69.5403 369.161 69.6989 369.003C69.8574 368.844 69.9465 368.63 69.9465 368.406V363.344C69.9465 363.12 69.8574 362.905 69.6989 362.747C69.5403 362.589 69.3252 362.5 69.1009 362.5ZM68.2553 367.562H60.6448V364.187H68.2553V367.562Z" fill="#404040"/>
<path d="M71.6381 364.187H77.5573C77.7816 364.187 77.9967 364.098 78.1553 363.94C78.3139 363.782 78.403 363.567 78.403 363.344C78.403 363.12 78.3139 362.905 78.1553 362.747C77.9967 362.589 77.7816 362.5 77.5573 362.5H71.6381C71.4138 362.5 71.1987 362.589 71.0402 362.747C70.8816 362.905 70.7925 363.12 70.7925 363.344C70.7925 363.567 70.8816 363.782 71.0402 363.94C71.1987 364.098 71.4138 364.187 71.6381 364.187Z" fill="#404040"/>
<path d="M73.3293 367.562H71.6381C71.4138 367.562 71.1987 367.651 71.0402 367.809C70.8816 367.968 70.7925 368.182 70.7925 368.406C70.7925 368.63 70.8816 368.844 71.0402 369.003C71.1987 369.161 71.4138 369.25 71.6381 369.25H73.3293C73.5536 369.25 73.7687 369.161 73.9272 369.003C74.0858 368.844 74.1749 368.63 74.1749 368.406C74.1749 368.182 74.0858 367.968 73.9272 367.809C73.7687 367.651 73.5536 367.562 73.3293 367.562Z" fill="#404040"/>
<path d="M77.663 365.031H71.6381C71.4138 365.031 71.1987 365.12 71.0402 365.278C70.8816 365.436 70.7925 365.651 70.7925 365.875C70.7925 366.099 70.8816 366.313 71.0402 366.471C71.1987 366.63 71.4138 366.719 71.6381 366.719H77.663C77.8873 366.719 78.1024 366.63 78.261 366.471C78.4196 366.313 78.5087 366.099 78.5087 365.875C78.5087 365.651 78.4196 365.436 78.261 365.278C78.1024 365.12 77.8873 365.031 77.663 365.031Z" fill="#404040"/>
</g>
<g clip-path="url(#clip19)">
<path d="M359.866 133H405.968L406.311 133.171C407.329 133.679 407.972 134.719 407.972 135.856V140.88C407.972 141.566 407.584 142.194 406.97 142.5C406.356 142.806 405.968 143.434 405.968 144.12V175C405.968 176.657 404.624 178 402.968 178H362.866C361.209 178 359.866 176.657 359.866 175V144.12C359.866 143.434 359.478 142.806 358.864 142.5C358.25 142.194 357.862 141.566 357.862 140.88V135.856C357.862 134.719 358.505 133.679 359.523 133.171L359.866 133Z" fill="white" fill-opacity="0.05"/>
<path d="M372.393 169.5V174H363.875V169.5H372.393Z" fill="#EF7C00"/>
<path d="M404.901 131.377H360.93C359.809 131.378 358.734 131.823 357.941 132.614C357.149 133.405 356.703 134.477 356.702 135.595V142.345C356.702 142.569 356.791 142.784 356.949 142.942C357.108 143.1 357.323 143.189 357.547 143.189H359.238V174.408C359.24 175.527 359.685 176.599 360.478 177.39C361.271 178.181 362.346 178.626 363.467 178.627H402.365C403.486 178.626 404.56 178.181 405.353 177.39C406.146 176.599 406.591 175.527 406.593 174.408V143.189H408.284C408.508 143.189 408.723 143.1 408.882 142.942C409.04 142.784 409.129 142.569 409.129 142.345V135.595C409.128 134.477 408.682 133.405 407.89 132.614C407.097 131.823 406.022 131.378 404.901 131.377ZM376.151 133.064H389.68V141.502H376.151V133.064ZM387.144 143.189V158.377H378.687V143.189H387.144ZM358.393 141.502V135.595C358.394 134.924 358.661 134.281 359.137 133.807C359.612 133.332 360.257 133.065 360.93 133.064H374.459V141.502H358.393ZM404.901 174.408C404.9 175.079 404.633 175.722 404.157 176.197C403.682 176.671 403.037 176.938 402.365 176.939H363.467C362.794 176.938 362.149 176.671 361.674 176.197C361.198 175.722 360.931 175.079 360.93 174.408V143.189H376.996V159.22C376.996 159.444 377.085 159.659 377.244 159.817C377.403 159.975 377.618 160.064 377.842 160.064H387.989C388.213 160.064 388.429 159.975 388.587 159.817C388.746 159.659 388.835 159.444 388.835 159.22V143.189H404.901V174.408ZM407.438 141.502H391.372V133.064H404.901C405.574 133.065 406.219 133.332 406.694 133.807C407.17 134.281 407.437 134.924 407.438 135.595V141.502Z" fill="#404040"/>
<path d="M372.768 168.5H363.467C363.242 168.5 363.027 168.589 362.869 168.747C362.71 168.905 362.621 169.12 362.621 169.344V174.406C362.621 174.63 362.71 174.845 362.869 175.003C363.027 175.161 363.242 175.25 363.467 175.25H372.768C372.993 175.25 373.208 175.161 373.366 175.003C373.525 174.845 373.614 174.63 373.614 174.406V169.344C373.614 169.12 373.525 168.905 373.366 168.747C373.208 168.589 372.993 168.5 372.768 168.5ZM371.923 173.562H364.312V170.187H371.923V173.562Z" fill="#404040"/>
<path d="M375.306 170.188H381.225C381.449 170.188 381.664 170.099 381.823 169.94C381.981 169.782 382.07 169.568 382.07 169.344C382.07 169.12 381.981 168.905 381.823 168.747C381.664 168.589 381.449 168.5 381.225 168.5H375.306C375.081 168.5 374.866 168.589 374.708 168.747C374.549 168.905 374.46 169.12 374.46 169.344C374.46 169.568 374.549 169.782 374.708 169.94C374.866 170.099 375.081 170.188 375.306 170.188Z" fill="#404040"/>
<path d="M376.997 173.562H375.306C375.081 173.562 374.866 173.651 374.708 173.81C374.549 173.968 374.46 174.182 374.46 174.406C374.46 174.63 374.549 174.845 374.708 175.003C374.866 175.161 375.081 175.25 375.306 175.25H376.997C377.221 175.25 377.436 175.161 377.595 175.003C377.753 174.845 377.842 174.63 377.842 174.406C377.842 174.182 377.753 173.968 377.595 173.81C377.436 173.651 377.221 173.562 376.997 173.562Z" fill="#404040"/>
<path d="M381.331 171.031H375.306C375.081 171.031 374.866 171.12 374.708 171.278C374.549 171.437 374.46 171.651 374.46 171.875C374.46 172.099 374.549 172.313 374.708 172.472C374.866 172.63 375.081 172.719 375.306 172.719H381.331C381.555 172.719 381.77 172.63 381.928 172.472C382.087 172.313 382.176 172.099 382.176 171.875C382.176 171.651 382.087 171.437 381.928 171.278C381.77 171.12 381.555 171.031 381.331 171.031Z" fill="#404040"/>
</g>
<g clip-path="url(#clip20)">
<path d="M281.695 36H327.796L328.14 36.1715C329.157 36.6792 329.801 37.7187 329.801 38.8559V43.88C329.801 44.5663 329.412 45.1936 328.798 45.5C328.184 45.8064 327.796 46.4337 327.796 47.12V78C327.796 79.6569 326.453 81 324.796 81H284.695C283.038 81 281.695 79.6569 281.695 78V47.12C281.695 46.4337 281.307 45.8064 280.693 45.5C280.079 45.1936 279.69 44.5663 279.69 43.88V38.8559C279.69 37.7187 280.334 36.6792 281.351 36.1715L281.695 36Z" fill="white" fill-opacity="0.05"/>
<path d="M297.729 44.5V36H312.261V44.5L309.756 46L310.257 62H299.734V46L297.729 44.5Z" fill="#EF7C00"/>
<path d="M294.222 72.5V77H285.703V72.5H294.222Z" fill="#EF7C00"/>
<path d="M326.73 34.3767H282.758C281.637 34.3778 280.563 34.8227 279.77 35.6136C278.977 36.4045 278.531 37.4769 278.53 38.5955V45.3455C278.53 45.5692 278.619 45.7838 278.778 45.9421C278.937 46.1003 279.152 46.1892 279.376 46.1892H281.067V77.408C281.068 78.5265 281.514 79.5989 282.307 80.3898C283.099 81.1808 284.174 81.6256 285.295 81.6267H324.193C325.314 81.6256 326.389 81.1808 327.182 80.3898C327.974 79.5989 328.42 78.5265 328.421 77.408V46.1892H330.112C330.337 46.1892 330.552 46.1003 330.71 45.9421C330.869 45.7838 330.958 45.5692 330.958 45.3455V38.5955C330.957 37.4769 330.511 36.4045 329.718 35.6136C328.926 34.8227 327.851 34.3778 326.73 34.3767ZM297.979 36.0642H311.509V44.5017H297.979V36.0642ZM308.972 46.1892V61.3767H300.516V46.1892H308.972ZM280.221 44.5017V38.5955C280.222 37.9244 280.49 37.2811 280.965 36.8066C281.441 36.3321 282.086 36.0651 282.758 36.0642H296.288V44.5017H280.221ZM326.73 77.408C326.729 78.079 326.462 78.7223 325.986 79.1968C325.51 79.6713 324.866 79.9383 324.193 79.9392H285.295C284.623 79.9383 283.978 79.6713 283.502 79.1968C283.027 78.7223 282.759 78.079 282.758 77.408V46.1892H298.825V62.2205C298.825 62.4442 298.914 62.6588 299.073 62.8171C299.231 62.9753 299.446 63.0642 299.67 63.0642H309.818C310.042 63.0642 310.257 62.9753 310.416 62.8171C310.574 62.6588 310.663 62.4442 310.663 62.2205V46.1892H326.73V77.408ZM329.267 44.5017H313.2V36.0642H326.73C327.402 36.0651 328.047 36.3321 328.523 36.8066C328.998 37.2811 329.266 37.9244 329.267 38.5955V44.5017Z" fill="#404040"/>
<path d="M294.597 71.5H285.295C285.071 71.5 284.856 71.5889 284.697 71.7471C284.539 71.9054 284.45 72.12 284.45 72.3437V77.4062C284.45 77.63 284.539 77.8446 284.697 78.0029C284.856 78.1611 285.071 78.25 285.295 78.25H294.597C294.821 78.25 295.036 78.1611 295.195 78.0029C295.354 77.8446 295.443 77.63 295.443 77.4062V72.3437C295.443 72.12 295.354 71.9054 295.195 71.7471C295.036 71.5889 294.821 71.5 294.597 71.5ZM293.751 76.5625H286.141V73.1875H293.751V76.5625Z" fill="#404040"/>
<path d="M297.134 73.1875H303.053C303.278 73.1875 303.493 73.0986 303.651 72.9404C303.81 72.7821 303.899 72.5675 303.899 72.3438C303.899 72.12 303.81 71.9054 303.651 71.7471C303.493 71.5889 303.278 71.5 303.053 71.5H297.134C296.91 71.5 296.695 71.5889 296.536 71.7471C296.378 71.9054 296.289 72.12 296.289 72.3438C296.289 72.5675 296.378 72.7821 296.536 72.9404C296.695 73.0986 296.91 73.1875 297.134 73.1875Z" fill="#404040"/>
<path d="M298.825 76.5625H297.134C296.91 76.5625 296.695 76.6514 296.536 76.8096C296.378 76.9679 296.289 77.1825 296.289 77.4063C296.289 77.63 296.378 77.8446 296.536 78.0029C296.695 78.1611 296.91 78.25 297.134 78.25H298.825C299.05 78.25 299.265 78.1611 299.423 78.0029C299.582 77.8446 299.671 77.63 299.671 77.4063C299.671 77.1825 299.582 76.9679 299.423 76.8096C299.265 76.6514 299.05 76.5625 298.825 76.5625Z" fill="#404040"/>
<path d="M303.159 74.0312H297.134C296.91 74.0312 296.695 74.1201 296.536 74.2784C296.378 74.4366 296.289 74.6512 296.289 74.875C296.289 75.0988 296.378 75.3134 296.536 75.4716C296.695 75.6299 296.91 75.7188 297.134 75.7188H303.159C303.383 75.7188 303.598 75.6299 303.757 75.4716C303.916 75.3134 304.005 75.0988 304.005 74.875C304.005 74.6512 303.916 74.4366 303.757 74.2784C303.598 74.1201 303.383 74.0312 303.159 74.0312Z" fill="#404040"/>
</g>
<path d="M10 10C10 4.47715 14.4772 0 20 0H76C81.5229 0 86 4.47715 86 10V19C86 24.5228 81.5229 29 76 29H10V10Z" fill="#1D1D1D"/>
<path d="M23.7848 18.1611C23.1128 18.1611 22.5088 18.0371 21.9728 17.7891C21.4368 17.5411 21.0368 17.2251 20.7728 16.8411L21.3608 16.2051C21.6008 16.5251 21.9368 16.7851 22.3688 16.9851C22.8088 17.1771 23.2728 17.2731 23.7608 17.2731C24.3848 17.2731 24.8768 17.1411 25.2368 16.8771C25.5968 16.6051 25.7768 16.2371 25.7768 15.7731C25.7768 15.2931 25.5888 14.9371 25.2128 14.7051C24.8448 14.4731 24.3408 14.3571 23.7008 14.3571H22.0688V13.4691H23.7008C24.2688 13.4691 24.7328 13.3611 25.0928 13.1451C25.4608 12.9211 25.6448 12.5891 25.6448 12.1491C25.6448 11.7171 25.4608 11.3811 25.0928 11.1411C24.7328 10.9011 24.2768 10.7811 23.7248 10.7811C22.8208 10.7811 22.0648 11.1051 21.4568 11.7531L20.9048 11.1291C21.2248 10.7611 21.6328 10.4651 22.1288 10.2411C22.6328 10.0091 23.1888 9.89309 23.7968 9.89309C24.6128 9.89309 25.2928 10.0851 25.8368 10.4691C26.3888 10.8531 26.6648 11.3731 26.6648 12.0291C26.6648 12.5571 26.4848 12.9811 26.1248 13.3011C25.7728 13.6131 25.3768 13.8091 24.9368 13.8891C25.3768 13.9291 25.7928 14.1211 26.1848 14.4651C26.5848 14.8091 26.7848 15.2731 26.7848 15.8571C26.7848 16.5291 26.5088 17.0811 25.9568 17.5131C25.4048 17.9451 24.6808 18.1611 23.7848 18.1611ZM32.8566 18.0171H31.9566V17.3571C31.4686 17.8931 30.8286 18.1611 30.0366 18.1611C29.5006 18.1611 29.0286 17.9891 28.6206 17.6451C28.2126 17.3011 28.0086 16.8331 28.0086 16.2411C28.0086 15.6331 28.2086 15.1651 28.6086 14.8371C29.0166 14.5011 29.4926 14.3331 30.0366 14.3331C30.8606 14.3331 31.5006 14.5971 31.9566 15.1251V14.0811C31.9566 13.6971 31.8206 13.3971 31.5486 13.1811C31.2766 12.9651 30.9246 12.8571 30.4926 12.8571C29.8126 12.8571 29.2206 13.1251 28.7166 13.6611L28.2966 13.0371C28.9126 12.3971 29.6846 12.0771 30.6126 12.0771C31.2766 12.0771 31.8166 12.2371 32.2326 12.5571C32.6486 12.8771 32.8566 13.3691 32.8566 14.0331V18.0171ZM30.3606 17.5131C31.0806 17.5131 31.6126 17.2731 31.9566 16.7931V15.7011C31.6126 15.2211 31.0806 14.9811 30.3606 14.9811C29.9446 14.9811 29.6006 15.1011 29.3286 15.3411C29.0646 15.5731 28.9326 15.8771 28.9326 16.2531C28.9326 16.6211 29.0646 16.9251 29.3286 17.1651C29.6006 17.3971 29.9446 17.5131 30.3606 17.5131ZM39.7607 18.0171H38.6087L36.5207 15.4131L35.5607 16.3611V18.0171H34.6607V12.2211H35.5607V15.3051L38.6087 12.2211H39.7487L37.1807 14.8491L39.7607 18.0171ZM45.3488 18.0171H44.4488V17.3571C43.9608 17.8931 43.3208 18.1611 42.5288 18.1611C41.9928 18.1611 41.5208 17.9891 41.1128 17.6451C40.7048 17.3011 40.5008 16.8331 40.5008 16.2411C40.5008 15.6331 40.7008 15.1651 41.1008 14.8371C41.5088 14.5011 41.9848 14.3331 42.5288 14.3331C43.3528 14.3331 43.9928 14.5971 44.4488 15.1251V14.0811C44.4488 13.6971 44.3128 13.3971 44.0408 13.1811C43.7688 12.9651 43.4168 12.8571 42.9848 12.8571C42.3048 12.8571 41.7128 13.1251 41.2088 13.6611L40.7888 13.0371C41.4048 12.3971 42.1768 12.0771 43.1048 12.0771C43.7688 12.0771 44.3088 12.2371 44.7248 12.5571C45.1408 12.8771 45.3488 13.3691 45.3488 14.0331V18.0171ZM42.8528 17.5131C43.5728 17.5131 44.1048 17.2731 44.4488 16.7931V15.7011C44.1048 15.2211 43.5728 14.9811 42.8528 14.9811C42.4368 14.9811 42.0928 15.1011 41.8208 15.3411C41.5568 15.5731 41.4248 15.8771 41.4248 16.2531C41.4248 16.6211 41.5568 16.9251 41.8208 17.1651C42.0928 17.3971 42.4368 17.5131 42.8528 17.5131ZM49.2049 18.1611C48.0929 18.1611 47.2209 17.8451 46.5889 17.2131L47.0329 16.6371C47.5769 17.1571 48.3009 17.4171 49.2049 17.4171C49.7249 17.4171 50.1369 17.3251 50.4409 17.1411C50.7529 16.9571 50.9089 16.7131 50.9089 16.4091C50.9089 15.7691 50.3009 15.4491 49.0849 15.4491H47.7889V14.7171H49.0849C49.5889 14.7171 50.0009 14.6371 50.3209 14.4771C50.6409 14.3091 50.8009 14.0651 50.8009 13.7451C50.8009 13.4731 50.6409 13.2531 50.3209 13.0851C50.0009 12.9091 49.5969 12.8211 49.1089 12.8211C48.3009 12.8211 47.6529 13.0691 47.1649 13.5651L46.6969 13.0131C47.2969 12.3971 48.0889 12.0891 49.0729 12.0891C49.8649 12.0811 50.5049 12.2171 50.9929 12.4971C51.4889 12.7691 51.7369 13.1491 51.7369 13.6371C51.7369 14.0371 51.5729 14.3611 51.2449 14.6091C50.9249 14.8571 50.5689 15.0051 50.1769 15.0531C50.5849 15.0851 50.9649 15.2211 51.3169 15.4611C51.6769 15.7011 51.8569 16.0371 51.8569 16.4691C51.8569 16.9651 51.6169 17.3731 51.1369 17.6931C50.6649 18.0051 50.0209 18.1611 49.2049 18.1611ZM58.7027 18.1611C58.0627 18.1611 57.4947 18.0371 56.9987 17.7891C56.5027 17.5411 56.1227 17.2251 55.8587 16.8411L56.4467 16.2171C56.6867 16.5371 57.0027 16.7931 57.3947 16.9851C57.7867 17.1771 58.2147 17.2731 58.6787 17.2731C59.2627 17.2731 59.7187 17.1411 60.0467 16.8771C60.3827 16.6051 60.5507 16.2371 60.5507 15.7731C60.5507 15.2931 60.3707 14.9371 60.0107 14.7051C59.6587 14.4731 59.1747 14.3571 58.5587 14.3571C58.0867 14.3571 57.8107 14.3611 57.7307 14.3691V13.4571C57.8187 13.4651 58.0947 13.4691 58.5587 13.4691C59.1027 13.4691 59.5467 13.3611 59.8907 13.1451C60.2427 12.9211 60.4187 12.5891 60.4187 12.1491C60.4187 11.7251 60.2467 11.3931 59.9027 11.1531C59.5667 10.9051 59.1427 10.7811 58.6307 10.7811C57.8227 10.7811 57.1187 11.1051 56.5187 11.7531L55.9667 11.1291C56.6467 10.3051 57.5587 9.89309 58.7027 9.89309C59.4947 9.89309 60.1427 10.0851 60.6467 10.4691C61.1587 10.8451 61.4147 11.3651 61.4147 12.0291C61.4147 12.5571 61.2387 12.9811 60.8867 13.3011C60.5347 13.6131 60.1347 13.8091 59.6867 13.8891C60.1267 13.9291 60.5427 14.1211 60.9347 14.4651C61.3347 14.8091 61.5347 15.2731 61.5347 15.8571C61.5347 16.5371 61.2787 17.0931 60.7667 17.5251C60.2547 17.9491 59.5667 18.1611 58.7027 18.1611ZM68.3344 18.0171H62.8384V17.2251C63.6704 16.5691 64.3144 16.0491 64.7704 15.6651C65.2344 15.2731 65.6784 14.8611 66.1024 14.4291C66.5344 13.9891 66.8384 13.6011 67.0144 13.2651C67.1904 12.9211 67.2784 12.5811 67.2784 12.2451C67.2784 11.7651 67.1144 11.4011 66.7864 11.1531C66.4584 10.9051 66.0664 10.7811 65.6104 10.7811C64.6904 10.7811 63.9664 11.1171 63.4384 11.7891L62.8264 11.1531C63.1304 10.7531 63.5264 10.4451 64.0144 10.2291C64.5104 10.0051 65.0424 9.89309 65.6104 9.89309C66.3384 9.89309 66.9664 10.0971 67.4944 10.5051C68.0304 10.9131 68.2984 11.4931 68.2984 12.2451C68.2984 12.9891 67.9784 13.7331 67.3384 14.4771C66.6984 15.2131 65.7224 16.0971 64.4104 17.1291H68.3344V18.0171ZM72.8571 18.1611C71.6251 18.1611 70.6851 17.7331 70.0371 16.8771L70.6491 16.2171C71.2011 16.9211 71.9371 17.2731 72.8571 17.2731C73.4011 17.2731 73.8451 17.1091 74.1891 16.7811C74.5331 16.4531 74.7051 16.0451 74.7051 15.5571C74.7051 15.0371 74.5331 14.6211 74.1891 14.3091C73.8531 13.9891 73.4131 13.8291 72.8691 13.8291C72.1491 13.8291 71.5331 14.0811 71.0211 14.5851L70.2891 14.3331V10.0131H75.1851V10.9011H71.2851V13.6851C71.7651 13.2051 72.3891 12.9651 73.1571 12.9651C73.8611 12.9651 74.4611 13.1971 74.9571 13.6611C75.4531 14.1171 75.7011 14.7371 75.7011 15.5211C75.7011 16.3211 75.4331 16.9611 74.8971 17.4411C74.3611 17.9211 73.6811 18.1611 72.8571 18.1611Z" fill="white"/>
<path d="M251 297C251 291.477 255.477 287 261 287H317C322.523 287 327 291.477 327 297V306C327 311.523 322.523 316 317 316H251V297Z" fill="#1D1D1D"/>
<path d="M268.336 299.204V299.996H265.18V305H264.28V299.204H268.336ZM269.74 304.928C269.612 305.056 269.456 305.12 269.272 305.12C269.088 305.12 268.932 305.056 268.804 304.928C268.676 304.8 268.612 304.644 268.612 304.46C268.612 304.276 268.676 304.12 268.804 303.992C268.932 303.864 269.088 303.8 269.272 303.8C269.456 303.8 269.612 303.864 269.74 303.992C269.868 304.12 269.932 304.276 269.932 304.46C269.932 304.644 269.868 304.8 269.74 304.928ZM282.523 305H281.527V298.412L278.803 305H278.395L275.683 298.412V305H274.687V296.996H276.115L278.599 303.02L281.095 296.996H282.523V305ZM288.962 304.268C288.442 304.852 287.75 305.144 286.886 305.144C286.022 305.144 285.326 304.852 284.798 304.268C284.278 303.684 284.018 302.96 284.018 302.096C284.018 301.232 284.278 300.512 284.798 299.936C285.326 299.352 286.022 299.06 286.886 299.06C287.75 299.06 288.442 299.352 288.962 299.936C289.49 300.512 289.754 301.232 289.754 302.096C289.754 302.96 289.49 303.684 288.962 304.268ZM285.47 303.692C285.822 304.124 286.294 304.34 286.886 304.34C287.478 304.34 287.946 304.124 288.29 303.692C288.634 303.252 288.806 302.72 288.806 302.096C288.806 301.472 288.634 300.944 288.29 300.512C287.946 300.08 287.478 299.864 286.886 299.864C286.294 299.864 285.822 300.084 285.47 300.524C285.126 300.956 284.954 301.48 284.954 302.096C284.954 302.72 285.126 303.252 285.47 303.692ZM293.778 305.144C292.922 305.144 292.226 304.856 291.69 304.28C291.154 303.696 290.886 302.968 290.886 302.096C290.886 301.224 291.154 300.5 291.69 299.924C292.226 299.348 292.922 299.06 293.778 299.06C294.674 299.06 295.382 299.396 295.902 300.068L295.302 300.62C294.934 300.116 294.442 299.864 293.826 299.864C293.218 299.864 292.73 300.072 292.362 300.488C292.002 300.904 291.822 301.44 291.822 302.096C291.822 302.752 292.002 303.292 292.362 303.716C292.73 304.132 293.218 304.34 293.826 304.34C294.434 304.34 294.926 304.088 295.302 303.584L295.902 304.136C295.382 304.808 294.674 305.144 293.778 305.144ZM302.263 305H301.111L299.023 302.396L298.063 303.344V305H297.163V299.204H298.063V302.288L301.111 299.204H302.251L299.683 301.832L302.263 305ZM306.579 305H303.327V299.204H306.519C307.023 299.204 307.419 299.34 307.707 299.612C308.003 299.884 308.151 300.244 308.151 300.692C308.151 301.02 308.059 301.304 307.875 301.544C307.699 301.776 307.479 301.932 307.215 302.012C307.511 302.084 307.759 302.256 307.959 302.528C308.167 302.8 308.271 303.1 308.271 303.428C308.271 303.9 308.119 304.28 307.815 304.568C307.519 304.856 307.107 305 306.579 305ZM306.399 304.208C306.687 304.208 306.915 304.128 307.083 303.968C307.251 303.808 307.335 303.592 307.335 303.32C307.335 303.072 307.251 302.86 307.083 302.684C306.915 302.508 306.687 302.42 306.399 302.42H304.227V304.208H306.399ZM306.363 301.628C306.635 301.628 306.847 301.556 306.999 301.412C307.151 301.26 307.227 301.064 307.227 300.824C307.227 300.568 307.151 300.368 306.999 300.224C306.847 300.072 306.635 299.996 306.363 299.996H304.227V301.628H306.363ZM314.496 305H313.596V304.34C313.108 304.876 312.468 305.144 311.676 305.144C311.14 305.144 310.668 304.972 310.26 304.628C309.852 304.284 309.648 303.816 309.648 303.224C309.648 302.616 309.848 302.148 310.248 301.82C310.656 301.484 311.132 301.316 311.676 301.316C312.5 301.316 313.14 301.58 313.596 302.108V301.064C313.596 300.68 313.46 300.38 313.188 300.164C312.916 299.948 312.564 299.84 312.132 299.84C311.452 299.84 310.86 300.108 310.356 300.644L309.936 300.02C310.552 299.38 311.324 299.06 312.252 299.06C312.916 299.06 313.456 299.22 313.872 299.54C314.288 299.86 314.496 300.352 314.496 301.016V305ZM312 304.496C312.72 304.496 313.252 304.256 313.596 303.776V302.684C313.252 302.204 312.72 301.964 312 301.964C311.584 301.964 311.24 302.084 310.968 302.324C310.704 302.556 310.572 302.86 310.572 303.236C310.572 303.604 310.704 303.908 310.968 304.148C311.24 304.38 311.584 304.496 312 304.496Z" fill="white"/>
<defs>
<clipPath id="clip0">
<rect x="-16.9629" y="32" width="50.1101" height="50" rx="1" fill="white"/>
</clipPath>
<clipPath id="clip1">
<rect x="125.35" y="32" width="50.1101" height="50" rx="1" fill="white"/>
</clipPath>
<clipPath id="clip2">
<rect x="11.0991" y="225" width="50.1101" height="50" rx="1" fill="white"/>
</clipPath>
<clipPath id="clip3">
<rect x="218.555" y="225" width="50.1101" height="50" rx="1" fill="white"/>
</clipPath>
<clipPath id="clip4">
<rect x="356.859" y="322" width="50.1101" height="50" rx="1" fill="white"/>
</clipPath>
<clipPath id="clip5">
<rect x="294.723" y="322" width="50.1101" height="50" rx="1" fill="white"/>
</clipPath>
<clipPath id="clip6">
<rect x="220.56" y="322" width="50.1101" height="50" rx="1" fill="white"/>
</clipPath>
<clipPath id="clip7">
<rect x="132.366" y="322" width="50.1101" height="50" rx="1" fill="white"/>
</clipPath>
<clipPath id="clip8">
<rect x="209.535" y="32" width="50.1101" height="50" rx="1" fill="white"/>
</clipPath>
<clipPath id="clip9">
<rect x="277.686" y="128" width="50.1101" height="50" rx="1" fill="white"/>
</clipPath>
<clipPath id="clip10">
<rect x="353.853" y="32" width="50.1101" height="50" rx="1" fill="white"/>
</clipPath>
<clipPath id="clip11">
<rect width="52.1145" height="48" fill="white" transform="translate(47.1782 34)"/>
</clipPath>
<clipPath id="clip12">
<rect width="52.1145" height="48" fill="white" transform="translate(-3.93408 131)"/>
</clipPath>
<clipPath id="clip13">
<rect width="52.1145" height="48" fill="white" transform="translate(102.3 131)"/>
</clipPath>
<clipPath id="clip14">
<rect width="52.1145" height="48" fill="white" transform="translate(210.537 131)"/>
</clipPath>
<clipPath id="clip15">
<rect width="52.1145" height="48" fill="white" transform="translate(344.833 228)"/>
</clipPath>
<clipPath id="clip16">
<rect width="52.1145" height="48" fill="white" transform="translate(117.333 228)"/>
</clipPath>
<clipPath id="clip17">
<rect width="52.1145" height="48" fill="white" transform="translate(-19.9688 325)"/>
</clipPath>
<clipPath id="clip18">
<rect width="52.1145" height="48" fill="white" transform="translate(53.1914 325)"/>
</clipPath>
<clipPath id="clip19">
<rect width="52.1145" height="48" fill="white" transform="translate(356.859 131)"/>
</clipPath>
<clipPath id="clip20">
<rect width="52.1145" height="48" fill="white" transform="translate(278.688 34)"/>
</clipPath>
</defs>
</svg>
